<svg xmlns="http://www.w3.org/2000/svg" xmlns:xlink="http://www.w3.org/1999/xlink" width="240.46" height="190.986" viewBox="0 0 240.46 190.986"><defs><clipPath id="a"><ellipse cx="120.23" cy="13.232" rx="120.23" ry="13.232" fill="none"/></clipPath><linearGradient id="b" x1="0.5" y1="0.896" x2="0.5" y2="-0.256" gradientUnits="objectBoundingBox"><stop offset="0" stop-color="#fff"/><stop offset="0.07" stop-color="#e7eef3"/><stop offset="0.29" stop-color="#a1bccf"/><stop offset="0.48" stop-color="#6a95b3"/><stop offset="0.65" stop-color="#42799f"/><stop offset="0.78" stop-color="#2a6793"/><stop offset="0.87" stop-color="#21618e"/></linearGradient><linearGradient id="c" y1="0.896" y2="-0.256" xlink:href="#b"/><linearGradient id="d" y1="0.896" y2="-0.256" xlink:href="#b"/><linearGradient id="g" x1="-0.04" y1="-0.152" x2="0.789" y2="0.532" gradientUnits="objectBoundingBox"><stop offset="0" stop-color="#fff"/><stop offset="0.11" stop-color="#dce6ed"/><stop offset="0.31" stop-color="#9fbcd0"/><stop offset="0.49" stop-color="#709ab8"/><stop offset="0.65" stop-color="#4e82a7"/><stop offset="0.78" stop-color="#39739d"/><stop offset="0.87" stop-color="#316e99"/></linearGradient><clipPath id="h"><path d="M279.509,141.2c-22.49,57.876-26.53,71.5-116.226,68.784C113.576,205.214,79.556,228.91,61.113,147.8c-9.414-41.4,16.7-94.682,62.337-117.155,42.413-20.88,65.757-7.987,76.975,0,25.095,19.175,19.264,35.493,40,43.733C275.771,88.416,290.181,109.849,279.509,141.2Z" transform="translate(-59.203 -19.32)" fill="none"/></clipPath><linearGradient id="i" x1="0.5" y1="1.309" x2="0.5" y2="0.427" gradientUnits="objectBoundingBox"><stop offset="0" stop-color="#fffbe5"/><stop offset="1" stop-color="#ffe7b7"/></linearGradient><linearGradient id="j" x1="0.5" y1="1.015" x2="0.5" y2="-0.008" gradientUnits="objectBoundingBox"><stop offset="0" stop-color="#8fb7af"/><stop offset="0.16" stop-color="#fcbac0"/><stop offset="0.84" stop-color="#b41b28"/><stop offset="1" stop-color="#b41b28"/></linearGradient><linearGradient id="k" x1="0.652" y1="1.551" x2="0.491" y2="0.217" xlink:href="#b"/><linearGradient id="l" x1="0.5" y1="1.015" x2="0.5" y2="-0.008" xlink:href="#j"/><linearGradient id="m" x1="0.645" y1="1.491" x2="0.483" y2="0.157" xlink:href="#b"/><linearGradient id="n" x1="0.5" y1="1.015" x2="0.5" y2="-0.008" gradientUnits="objectBoundingBox"><stop offset="0.16" stop-color="#8fb7af"/><stop offset="0.84" stop-color="#5c8e89"/></linearGradient><linearGradient id="o" x1="0.637" y1="1.429" x2="0.476" y2="0.095" xlink:href="#b"/><linearGradient id="p" x1="0.46" y1="1.091" x2="0.531" y2="0.033" xlink:href="#n"/><linearGradient id="q" x1="0.461" y1="1.091" x2="0.531" y2="0.033" xlink:href="#n"/><linearGradient id="r" y1="1.127" y2="0.137" xlink:href="#b"/><linearGradient id="s" x1="-1.221" y1="1.071" x2="-1.221" y2="0.081" xlink:href="#b"/><linearGradient id="t" y1="0.501" x2="1" y2="0.501" gradientUnits="objectBoundingBox"><stop offset="0" stop-color="#edebd8"/><stop offset="0.42" stop-color="#a9c2bd"/><stop offset="1" stop-color="#719995"/></linearGradient><linearGradient id="v" x1="0" y1="0.499" y2="0.499" xlink:href="#t"/><linearGradient id="y" x1="0" y1="0.499" y2="0.499" xlink:href="#t"/><linearGradient id="z" x1="30.565" y1="0.352" x2="28.444" y2="0.667" gradientUnits="objectBoundingBox"><stop offset="0" stop-color="#e7855f"/><stop offset="1" stop-color="#9a1418"/></linearGradient><linearGradient id="aa" x1="10.574" y1="1.164" x2="10.179" y2="-0.112" gradientUnits="objectBoundingBox"><stop offset="0" stop-color="#f5ebcb"/><stop offset="0.17" stop-color="#f1e8c9"/><stop offset="0.35" stop-color="#e5e0c4"/><stop offset="0.53" stop-color="#d0d2bc"/><stop offset="0.71" stop-color="#b3bfb0"/><stop offset="0.89" stop-color="#8ea7a1"/><stop offset="1" stop-color="#759696"/></linearGradient><linearGradient id="ab" x1="8.388" y1="-0.579" x2="8.568" y2="0.772" gradientUnits="objectBoundingBox"><stop offset="0" stop-color="#ffffd1"/><stop offset="1" stop-color="#61cfcf"/></linearGradient><linearGradient id="ac" x1="14.058" y1="-0.195" x2="14.365" y2="1.123" xlink:href="#aa"/><linearGradient id="ad" x1="1.567" y1="-0.79" x2="1.567" y2="0.873" gradientUnits="objectBoundingBox"><stop offset="0.01" stop-color="#22567d"/><stop offset="0.25" stop-color="#204e76"/><stop offset="0.63" stop-color="#1a3a62"/><stop offset="1" stop-color="#131f49"/></linearGradient><linearGradient id="ae" x1="-0.456" y1="0.5" x2="0.544" y2="0.5" xlink:href="#ab"/><linearGradient id="af" x1="-0.997" y1="1.147" x2="-1.494" y2="-0.12" xlink:href="#aa"/><linearGradient id="ag" x1="-1.056" y1="-0.313" x2="-0.924" y2="1.192" xlink:href="#ab"/><linearGradient id="ah" x1="-2.395" y1="-0.171" x2="-2.068" y2="1.05" xlink:href="#aa"/><linearGradient id="ai" x1="-0.946" y1="0.498" x2="0.054" y2="0.498" xlink:href="#ab"/><linearGradient id="aj" x1="-2.009" y1="0.5" x2="-1.009" y2="0.5" xlink:href="#ab"/><linearGradient id="ak" x1="0.589" y1="-1.066" x2="1.071" y2="1.044" gradientUnits="objectBoundingBox"><stop offset="0" stop-color="#46adad"/><stop offset="1" stop-color="#216a82"/></linearGradient><linearGradient id="al" x1="1.859" y1="-1.508" x2="3.753" y2="1.079" gradientUnits="objectBoundingBox"><stop offset="0" stop-color="#f5ecbd"/><stop offset="0.11" stop-color="#e2d9ae"/><stop offset="0.34" stop-color="#b0a987"/><stop offset="0.65" stop-color="#5f5b49"/><stop offset="1"/></linearGradient><linearGradient id="am" x1="0.708" y1="-0.67" x2="2.963" y2="1.572" xlink:href="#al"/><linearGradient id="an" x1="-0.651" y1="-0.215" x2="0.401" y2="1.203" xlink:href="#al"/><linearGradient id="ao" x1="-1.993" y1="-0.351" x2="-0.634" y2="1.181" xlink:href="#al"/><linearGradient id="ap" x1="-4.486" y1="-0.747" x2="-3.33" y2="0.488" xlink:href="#al"/><linearGradient id="aq" x1="-0.855" y1="-0.84" x2="0.317" y2="0.409" xlink:href="#al"/><linearGradient id="ar" x1="8.461" y1="-0.145" x2="8.479" y2="1.408" gradientUnits="objectBoundingBox"><stop offset="0" stop-color="#5cb6b8"/><stop offset="0.14" stop-color="#61b8ba"/><stop offset="0.3" stop-color="#6fbec0"/><stop offset="0.47" stop-color="#86c9ca"/><stop offset="0.64" stop-color="#a7d8d9"/><stop offset="0.83" stop-color="#d0eaeb"/><stop offset="1" stop-color="#fff"/></linearGradient><linearGradient id="as" x1="-0.79" y1="-0.101" x2="-0.785" y2="1.362" xlink:href="#ar"/><linearGradient id="at" x1="13.256" y1="-0.481" x2="13.338" y2="1.204" xlink:href="#ak"/><linearGradient id="au" x1="6.215" y1="-0.487" x2="6.296" y2="1.205" xlink:href="#ak"/><linearGradient id="av" x1="-4.128" y1="-0.245" x2="-4.121" y2="1.217" xlink:href="#ar"/><linearGradient id="aw" x1="-8.237" y1="-2.885" x2="-8.233" y2="-1.383" xlink:href="#ar"/><linearGradient id="ax" x1="-3.885" y1="-1.279" x2="-3.061" y2="0.581" xlink:href="#al"/><linearGradient id="ay" x1="-25.029" y1="-2.348" x2="-25.029" y2="-0.658" xlink:href="#aa"/><linearGradient id="az" x1="-2.479" y1="0.107" x2="-1.13" y2="0.769" xlink:href="#al"/><linearGradient id="ba" x1="0.001" y1="0.501" x2="0.999" y2="0.501" xlink:href="#ak"/><linearGradient id="bb" x1="-41.753" y1="1.122" x2="-42.638" y2="-0.113" xlink:href="#ab"/><linearGradient id="bc" x1="0.307" y1="-2.07" x2="-0.88" y2="0.724" gradientUnits="objectBoundingBox"><stop offset="0" stop-color="#a68b6d"/><stop offset="0.12" stop-color="#9f8568"/><stop offset="0.29" stop-color="#8c755c"/><stop offset="0.49" stop-color="#6c5a47"/><stop offset="0.72" stop-color="#3f352a"/><stop offset="0.97" stop-color="#070605"/><stop offset="1"/></linearGradient><linearGradient id="bd" x1="0.958" y1="1.072" x2="0.942" y2="0.115" xlink:href="#bc"/><linearGradient id="be" x1="1.237" y1="-17.523" x2="2.512" y2="17.71" xlink:href="#ak"/><linearGradient id="bf" x1="167.392" y1="0.352" x2="165.253" y2="0.667" xlink:href="#z"/><linearGradient id="bg" x1="70.615" y1="1.164" x2="70.225" y2="-0.112" xlink:href="#aa"/><linearGradient id="bh" x1="58.812" y1="-0.579" x2="58.993" y2="0.772" gradientUnits="objectBoundingBox"><stop offset="0" stop-color="#ffba7a"/><stop offset="1" stop-color="#e84f43"/></linearGradient><linearGradient id="bi" x1="99.514" y1="-0.195" x2="99.821" y2="1.123" xlink:href="#aa"/><linearGradient id="bj" x1="12.903" y1="-0.79" x2="12.903" y2="0.873" xlink:href="#ad"/><linearGradient id="bk" x1="20.812" y1="0.5" x2="21.81" y2="0.5" gradientUnits="objectBoundingBox"><stop offset="0" stop-color="#ffbc80"/><stop offset="0.25" stop-color="#ffba7a"/><stop offset="0.4" stop-color="#ffb578"/><stop offset="0.57" stop-color="#ffa672"/><stop offset="0.76" stop-color="#ff8e68"/><stop offset="0.96" stop-color="#ff6c5a"/><stop offset="1" stop-color="#ff6457"/></linearGradient><linearGradient id="bl" x1="51.819" y1="1.147" x2="51.321" y2="-0.12" xlink:href="#aa"/><linearGradient id="bm" x1="35.737" y1="-0.313" x2="35.869" y2="1.192" xlink:href="#bh"/><linearGradient id="bn" x1="72.612" y1="-0.173" x2="72.939" y2="1.05" xlink:href="#aa"/><linearGradient id="bo" x1="8.171" y1="0.498" x2="9.171" y2="0.498" xlink:href="#bk"/><linearGradient id="bp" x1="11.909" y1="0.5" x2="12.909" y2="0.5" xlink:href="#bk"/><linearGradient id="bq" x1="7.06" y1="-1.066" x2="7.543" y2="1.044" gradientUnits="objectBoundingBox"><stop offset="0" stop-color="#ff695e"/><stop offset="1" stop-color="#ba2537"/></linearGradient><linearGradient id="br" x1="25.518" y1="-1.508" x2="27.412" y2="1.079" xlink:href="#al"/><linearGradient id="bs" x1="28.874" y1="-0.67" x2="31.129" y2="1.572" xlink:href="#al"/><linearGradient id="bt" x1="15.358" y1="-0.215" x2="16.41" y2="1.203" xlink:href="#al"/><linearGradient id="bu" x1="38.472" y1="-0.351" x2="39.833" y2="1.181" xlink:href="#al"/><linearGradient id="bv" x1="58.364" y1="-0.747" x2="59.52" y2="0.488" xlink:href="#al"/><linearGradient id="bw" x1="55.478" y1="-0.84" x2="56.649" y2="0.409" xlink:href="#al"/><linearGradient id="bx" x1="56.842" y1="-0.145" x2="56.861" y2="1.408" xlink:href="#ar"/><linearGradient id="by" x1="38.06" y1="-0.101" x2="38.065" y2="1.362" xlink:href="#ar"/><linearGradient id="bz" x1="96.952" y1="-0.482" x2="97.034" y2="1.204" xlink:href="#bq"/><linearGradient id="ca" x1="89.905" y1="-0.487" x2="89.986" y2="1.205" xlink:href="#bq"/><linearGradient id="cb" x1="25.2" y1="-0.233" x2="25.208" y2="1.215" xlink:href="#ar"/><linearGradient id="cc" x1="22.484" y1="-2.885" x2="22.488" y2="-1.383" xlink:href="#ar"/><linearGradient id="cd" x1="10.337" y1="-1.279" x2="11.161" y2="0.581" xlink:href="#al"/><linearGradient id="ce" x1="62.853" y1="-2.348" x2="62.853" y2="-0.658" xlink:href="#aa"/><linearGradient id="cf" x1="13.017" y1="0.107" x2="14.367" y2="0.769" xlink:href="#al"/><linearGradient id="cg" x1="110.524" y1="1.165" x2="109.895" y2="-0.152" xlink:href="#bq"/><linearGradient id="ch" x1="167.63" y1="1.122" x2="166.746" y2="-0.113" xlink:href="#bh"/><linearGradient id="ci" x1="15.225" y1="-2.07" x2="14.038" y2="0.724" xlink:href="#bc"/><linearGradient id="cj" x1="7.756" y1="1.072" x2="7.74" y2="0.115" xlink:href="#bc"/><linearGradient id="ck" x1="18.315" y1="-17.523" x2="19.589" y2="17.71" gradientUnits="objectBoundingBox"><stop offset="0" stop-color="#ff5144"/><stop offset="1" stop-color="#c43848"/></linearGradient><linearGradient id="cl" x1="0.5" y1="1.562" x2="0.5" y2="-0.704" gradientUnits="objectBoundingBox"><stop offset="0" stop-color="#fff"/><stop offset="0.03" stop-color="#f7f9fb"/><stop offset="0.26" stop-color="#b1c8d8"/><stop offset="0.46" stop-color="#7aa1bd"/><stop offset="0.64" stop-color="#5285aa"/><stop offset="0.78" stop-color="#3a749d"/><stop offset="0.87" stop-color="#316e99"/></linearGradient><linearGradient id="cm" x1="0.488" y1="-0.429" x2="0.535" y2="1.23" gradientUnits="objectBoundingBox"><stop offset="0" stop-color="#131f49"/><stop offset="0.67" stop-color="#14466a"/><stop offset="1" stop-color="#22567d"/></linearGradient><linearGradient id="cn" x1="0.417" y1="-0.416" x2="0.513" y2="1.225" xlink:href="#cm"/><linearGradient id="co" x1="0.5" y1="1.407" x2="0.5" y2="-0.317" xlink:href="#cl"/><linearGradient id="cs" x1="0.5" y1="1.564" x2="0.5" y2="-0.705" xlink:href="#cm"/><linearGradient id="ct" x1="0.498" y1="-0.353" x2="0.507" y2="1.336" xlink:href="#cm"/><linearGradient id="cu" x1="0.5" y1="1.564" x2="0.5" y2="-0.705" xlink:href="#cm"/><linearGradient id="cv" x1="0.498" y1="-0.353" x2="0.508" y2="1.336" xlink:href="#cm"/><linearGradient id="cw" x1="0.5" y1="1.564" x2="0.5" y2="-0.705" xlink:href="#cm"/></defs><g transform="translate(-132.97 -25.57)" style="isolation:isolate"><g transform="translate(132.97 25.57)"><g transform="translate(0 159.686)" clip-path="url(#a)"><rect width="441.184" height="57.39" transform="translate(-21.148 1.163)" fill="#fcbac0"/><rect width="38.226" height="57.39" transform="translate(-25.179 1.163)" opacity="0.3" fill="url(#b)" style="mix-blend-mode:multiply;isolation:isolate"/><rect width="35.191" height="57.39" transform="translate(384.845 1.163)" opacity="0.3" fill="url(#c)" style="mix-blend-mode:multiply;isolation:isolate"/><rect width="7.81" height="57.39" transform="translate(96.03 1.163)" opacity="0.3" fill="url(#d)" style="mix-blend-mode:multiply;isolation:isolate"/><rect width="7.502" height="57.39" transform="translate(187.257 1.163)" opacity="0.3" fill="url(#b)" style="mix-blend-mode:multiply;isolation:isolate"/><rect width="7.72" height="57.39" transform="translate(282.057 1.163)" opacity="0.3" fill="url(#d)" style="mix-blend-mode:multiply;isolation:isolate"/><path d="M460.893,362.849l.173-.207L435.86,342H444.8v-.274H435.53l-19.007-15.58h11.454v-.268h-11.8l-15.217-12.461H415.92v-.274H400.636l-11.846-9.7-.173.207,11.594,9.5H371.963l-10.264-9.7-.19.2,10.062,9.5H343.285l-8.676-9.688-.207.179,8.52,9.5H314.613l-7.094-9.682-.218.162,6.977,9.5H285.94l-5.512-9.666-.235.129,5.428,9.554H257.268l-3.913-9.649-.257.1,3.913,9.548H228.6l-2.354-9.632-.263.061,2.337,9.571H199.94l-.783-9.61h-.274l.783,9.587H171.278l.777-9.587h-.268l-.766,9.61h-28.4l2.337-9.571-.268-.061-2.353,9.632H113.967l3.885-9.548-.252-.1-3.913,9.649H85.317l5.434-9.537-.24-.129L85,313.14H56.667l6.977-9.5-.224-.162-7.088,9.666H28.022l8.514-9.5-.2-.179-8.676,9.682H-.6l10.062-9.5-.184-.2-10.3,9.7H-29.272l11.6-9.5-.173-.207-11.823,9.71H-47.636v.274h17.609l-15.217,12.461H-63.91v.268h18.342l-19.007,15.58H-83.09V342h18.2L-90.1,362.642l.173.207L-64.463,342h32.915L-53.4,362.653l.19.19L-31.151,342H1.832l-18.5,20.684.2.179L2.2,342H35.178L20.084,362.67l.218.157L35.564,342H68.6l-11.79,20.684.24.134L68.9,342h33.055l-8.425,20.684.252.1,8.469-20.8h33.066L130.291,362.7l.268.067,5.07-20.785h33.083l-1.677,20.74h.268l1.677-20.762h33.083l1.677,20.762h.274l-1.677-20.74h33.027l5.076,20.785.263-.067-5.031-20.718h33.072l8.464,20.8.252-.1L269.035,342h33.055l11.863,20.818.235-.134L302.4,342h33.033L350.7,362.827l.218-.157-15.144-20.684h32.983l18.66,20.841.207-.179-18.5-20.684h32.983l22.059,20.846.19-.19L402.5,341.964h32.943Zm-60.375-49.435,15.217,12.461h-30.3l-13.165-12.461Zm-28.689,0,13.187,12.461H354.662l-11.181-12.461Zm-28.689,0,11.181,12.461H323.937l-9.129-12.461Zm-28.689,0,9.129,12.461H293.2l-7.105-12.461Zm-28.695,0,7.133,12.461H262.45l-5.07-12.461Zm-28.695,0,5.082,12.461H231.709l-3.041-12.461Zm-28.695,0,3.041,12.461H200.974l-1.012-12.461Zm-28.7,0,1.012,12.461H170.239l1.017-12.461Zm-28.706,0-1.012,12.461H139.509l3.047-12.461Zm-28.706,0-3.047,12.461H108.785l5.07-12.461Zm-28.712,0-5.076,12.461H78.061l7.1-12.461Zm-28.717,0-7.1,12.461H47.342l9.129-12.461Zm-28.712,0-9.134,12.461H16.618L27.8,313.414Zm-28.723,0L16.21,325.875H-14.1L-.907,313.414Zm-57.021,0H-1.3l-13.187,12.461H-44.813Zm-34.531,28.309,19.007-15.58h30.378l-16.486,15.58Zm33.3,0,16.48-15.58h30.4L2.039,341.723Zm33.3,0,13.976-15.58h30.4L35.4,341.723Zm33.3,0,11.41-15.58H77.6l-8.877,15.58Zm33.3,0,8.877-15.58h30.5l-6.339,15.58Zm33.3,0,6.339-15.58h30.484l-3.807,15.58Zm33.307,0,3.807-15.58h30.5l-1.269,15.58Zm33.312,0,1.269-15.58h30.5l1.269,15.58Zm33.312,0L201,326.143h30.5l3.8,15.58Zm33.318,0-3.807-15.58h30.489l6.339,15.58Zm33.318,0-6.339-15.58h30.473l8.877,15.58Zm33.324,0-8.877-15.58H323.8l11.415,15.58Zm33.324,0-11.415-15.58h30.428l13.948,15.58Zm33.324,0-13.931-15.58h30.4l16.486,15.58Zm33.329,0-16.48-15.58h30.366l19.007,15.58Z" transform="translate(15.794 -304.291)" fill="#598989"/><g transform="translate(-54.125 1.967)"><rect width="507.037" height="55.344" fill="#fa9fa6" opacity="0.6" style="mix-blend-mode:overlay;isolation:isolate"/></g><path d="M705.438,340.425h5.3V321.29H569.46v3.192h9.246l-.218,9.654-6.429-1.381-.419-1.5-1.342.123.559,1.962,72.752,15.6h69.319l-7.323-1.537Zm-.822,6.742-17.57-3.762-.061-2.98h17.777ZM603.583,327.685v3.2h8.3l-.2,10.37-16.329-3.5-.212-10.062Zm69.526,12.74H686.14l-.061,2.8Zm-43.783-6.345-.218,10.912-16.474-3.533-.207-10.577h8.207v3.2ZM705.3,348.151H648.618l-.212-10.929h5.825l.531.117v3.086h14.417Zm-75.217-2.946-.218-11.125h7.826v3.142h10.163l-.218,10.929h-3.8Zm-43.554-20.723v3.2H594.6l-.24,9.867-14.909-3.2-.185-9.867Z" transform="translate(-275.054 -312.167)" opacity="0.3" fill="url(#g)" style="mix-blend-mode:multiply;isolation:isolate"/></g><g transform="translate(9.159)" clip-path="url(#h)"><rect width="453.007" height="157.981" transform="translate(422.102 165.064) rotate(180)" fill="#ffdee1"/><path d="M117.43,155.415h.307v48.574h2.018v-4.813h6.87V175.92h5.411V161.28h1.414l.179-11.27.179,11.27h13.651V175.92h1.794v-5.478h4.774v-12.12h.1V143.162h4.249v-8.095H170.3l.173-18.85.179,18.85h.453l.335-35.56.33,35.56H175.1v23.256h7.893v21.6h4.875V163.348h.682l.162-17.721.168,17.721h3.913l.319-34.43.324,34.43h1.336V108.407h21.2V190.7h2.018v-8.151h6.865v-39.4h5.411v-24.81h1.414l.179-19.091.179,19.091h13.651v24.81h3.717v22.177h17.458V143.15h3.717v-24.81h13.646l.179-19.091.179,19.091h1.42v24.81h5.411v39.4h6.865V190.7H300.3V108.407h21.2v54.941h1.336l.319-34.43.324,34.43H327.4l.162-17.721.168,17.721h.682v16.575h4.875v-21.6h7.893V135.067h3.326l.335-35.56.33,35.56h.458l.173-18.85.179,18.85H357.9v8.095h4.249v15.161h.1v12.12h3.337V161.28h13.651l.179-11.27.179,11.27h1.414V175.92h5.411v23.256h6.865v4.813H395.3V155.415h21.209v32.429h1.33l.324-20.321.319,20.321H422.4l.168-10.459.162,10.459h.682v9.783h1.6v-5.6h3.27v-7.15h1.6v-8.95h4.249v-4.774h5.372l.33-20.991.335,20.991h.453l.179-11.13.173,11.13h5.076l.179-11.13.173,11.13h.458l.33-20.991.335,20.991H452.9v4.774h4.249v8.95h1.6v7.15h2.538v31.1H117.43Z" transform="translate(-135.276 -58.061)" fill="#fcbac0"/><path d="M1012.827,155.415h-.313v48.574H1010.5v-4.813h-6.865V175.92H998.22V161.28h-1.414l-.179-11.27-.179,11.27H982.8V175.92H981v-5.478h-4.78v-12.12h-.095V143.162h-4.249v-8.095H959.96l-.179-18.85-.173,18.85h-.458l-.33-35.56-.335,35.56h-3.326v23.256h-7.893v21.6H942.39V163.348h-.682l-.162-17.721-.168,17.721h-3.913l-.324-34.43-.319,34.43h-1.336V108.407h-21.2V190.7h-2.018v-8.151H905.4v-39.4h-5.411v-24.81h-1.42l-.179-19.091-.179,19.091H884.564v24.81h-3.718v22.177H863.388V143.15h-3.718v-24.81H846.019l-.173-19.091-.185,19.091h-1.414v24.81h-5.411v39.4h-6.865V190.7h-2.018V108.407h-21.2v54.941h-1.336l-.324-34.43-.319,34.43h-3.913l-.168-17.721-.162,17.721h-.682v16.575H796.97v-21.6h-7.893V135.067h-3.326l-.335-35.56-.33,35.56h-.458l-.179-18.85-.173,18.85H772.356v8.095h-4.249v15.161h-.1v12.12h-3.332V161.28H751.024l-.179-11.27-.179,11.27h-1.414V175.92H743.84v23.256h-6.865v4.813h-2.018V155.415H713.748v32.429h-1.331l-.324-20.321-.324,20.321h-3.908l-.168-10.459-.168,10.459h-.676v9.783h-1.6v-5.6h-3.276v-7.15h-1.6v-8.95h-4.249v-4.774H690.75l-.33-20.991-.335,20.991h-.458l-.173-11.13-.179,11.13H684.2l-.179-11.13-.173,11.13h-.458l-.33-20.991-.335,20.991h-5.367v4.774h-4.248v8.95h-1.6v7.15H668.97v31.1h343.857Z" transform="translate(-378.49 -58.061)" fill="url(#i)"/><rect width="454.74" height="1.14" transform="translate(-30.905 164.494)" fill="#74a1a1"/><path d="M258.152,217.781h-.928L256.9,85.84h1.576Z" transform="translate(-196.779 -52.147)" fill="#74a1a1"/><path d="M369.922,217.781h-.934L368.67,85.84h1.576Z" transform="translate(-246.066 -52.147)" fill="#74a1a1"/><path d="M430,217.781h-.934L428.75,85.84h1.576Z" transform="translate(-272.56 -52.147)" fill="#74a1a1"/><path d="M541.1,217.781h-.928L539.85,85.84h1.576Z" transform="translate(-321.552 -52.147)" fill="#74a1a1"/><path d="M601.182,217.781h-.928L599.93,85.84h1.577Z" transform="translate(-348.046 -52.147)" fill="#74a1a1"/><path d="M722.5,217.781h-.928L721.25,85.84h1.576Z" transform="translate(-401.545 -52.147)" fill="#74a1a1"/><path d="M782.582,217.781h-.934L781.33,85.84h1.576Z" transform="translate(-428.038 -52.147)" fill="#74a1a1"/><path d="M198.072,217.781h-.928L196.82,85.84H198.4Z" transform="translate(-170.285 -52.147)" fill="#74a1a1"/><rect width="381.776" height="0.894" transform="translate(4.208 107.741)" fill="#74a1a1"/><path d="M315.555,218.513h-6.669L307.79,87.5h8.861Z" transform="translate(-219.22 -52.879)" fill="url(#j)"/><path d="M322.776,87.5l-1.1,131.013h1.1L325.152,87.5Z" transform="translate(-225.345 -52.879)" fill="#fffbe3"/><path d="M307.79,87.5l.442,40.865,8.028-4.729.391-36.135Z" transform="translate(-219.22 -52.879)" opacity="0.3" fill="url(#k)" style="mix-blend-mode:multiply;isolation:isolate"/><path d="M482.565,218.513H475.9L474.8,87.5h8.861Z" transform="translate(-292.867 -52.879)" fill="url(#l)"/><path d="M489.786,87.5l-1.1,131.013h1.1L492.162,87.5Z" transform="translate(-298.992 -52.879)" fill="#fffbe3"/><path d="M474.8,87.5l.442,40.865,8.028-4.729.391-36.135Z" transform="translate(-292.867 -52.879)" opacity="0.3" fill="url(#m)" style="mix-blend-mode:multiply;isolation:isolate"/><path d="M657.095,218.513h-6.669L649.33,87.5h8.861Z" transform="translate(-369.83 -52.879)" fill="url(#n)"/><path d="M664.316,87.5l-1.1,131.013h1.1L666.692,87.5Z" transform="translate(-375.955 -52.879)" fill="#fffbe3"/><path d="M649.33,87.5l.442,40.865,8.028-4.729.391-36.135Z" transform="translate(-369.83 -52.879)" opacity="0.3" fill="url(#o)" style="mix-blend-mode:multiply;isolation:isolate"/><rect width="5.283" height="131.941" transform="translate(-1.075 33.693)" fill="#fffbe3"/><rect width="35.112" height="131.941" transform="translate(-35.047 33.693)" fill="url(#p)"/><rect width="36.135" height="131.941" transform="translate(385.978 33.693)" fill="url(#q)"/><rect width="454.74" height="41.105" transform="translate(-30.905 -6.485)" fill="#b41b28"/><path d="M121.772,87.5v43.207L86.66,149.446V87.5Z" transform="translate(-121.707 -52.879)" opacity="0.3" fill="url(#r)" style="mix-blend-mode:multiply;isolation:isolate"/><path d="M839.8,87.5v43.207l35.118,18.739V87.5Z" transform="translate(-453.822 -52.879)" opacity="0.3" fill="url(#s)" style="mix-blend-mode:multiply;isolation:isolate"/><rect width="57.479" height="5.439" transform="translate(380.706 141.037)" fill="url(#t)"/><rect width="57.479" height="5.439" transform="translate(363.186 146.476)" fill="url(#t)"/><rect width="57.479" height="5.439" transform="translate(345.667 151.826)" fill="url(#v)"/><rect width="57.479" height="5.439" transform="translate(328.152 157.265)" fill="url(#t)"/><rect width="57.479" height="5.439" transform="translate(310.632 162.705)" fill="url(#t)"/><rect width="57.479" height="5.439" transform="translate(293.118 168.15)" fill="url(#y)"/><path d="M732.535,285.947l-1.381-.212.553-3.337,82.149-29.12H750.748l-73.7,26.179-.43,2.56-1.381-.212.559-3.337,74.7-26.537h71.17L732.96,283.386Z" transform="translate(-381.255 -125.389)" fill="#517575"/><path d="M776.5,314.7h87.588V287.59H846.574v5.439h-17.52v5.35H811.54v5.439H794.02v5.445H776.5Z" transform="translate(-425.908 -141.114)" fill="#517575"/><path d="M691.053,312.341H690.5l-.229-17.129,1.017-.643Z" transform="translate(-387.883 -144.192)" fill="#517575"/><path d="M720.213,302.363h-.553l-.229-17.419,1.017-.654Z" transform="translate(-400.742 -139.659)" fill="#517575"/><path d="M818.073,272.2h-.553l-.229-18.89,1.012-.615Z" transform="translate(-443.896 -125.728)" fill="#517575"/><path d="M784.023,281.934h-.553l-.229-18.884,1.012-.621Z" transform="translate(-428.881 -130.019)" fill="#517575"/><path d="M751.983,291.8h-.553l-.229-18.521,1.012-.6Z" transform="translate(-414.752 -134.539)" fill="#517575"/><path d="M700.518,288.7h-.559l-.229-12.858,1.006-.481Zm19.337-20.444-1.012.559.229,15.15h.559Zm54.706-19.381-1.017.559.235,17.581h.559Zm-19.035,6.569-1.017.559.235,17.576h.559Zm-17.889,6.283-1.017.531.229,16.312h.559Z" transform="translate(-341.659 -120.545)" fill="#517575"/><path d="M231.22,288.042h2.359l.6-6.842h-1.191a44.943,44.943,0,0,0-1.767,6.842Z" transform="translate(-135.058 -134.802)" fill="url(#z)"/><path d="M336.74,296.673l1.89.19a22.6,22.6,0,0,1,1.638-4.472l-1.778-.481A13.3,13.3,0,0,0,336.74,296.673Z" transform="translate(-181.59 -139.525)" fill="#d96118"/><path d="M338.06,294.741a11.545,11.545,0,0,1,1.118-2.421l1.4.375c-.324.676-.609,1.364-.861,2.046Z" transform="translate(-182.172 -139.706)" fill="#f7a01e"/><path d="M244.08,295.734c-4.942.956-1.75,9.789-1.75,9.789h.911c-.078-.324-.134-.66-.184-1-.8-5.5,2.046-7.636,2.046-7.636a4.781,4.781,0,0,1,1.638-.956,5.145,5.145,0,0,0-1.733-.285A4.769,4.769,0,0,0,244.08,295.734Z" transform="translate(-139.51 -141.174)" fill="#124f63"/><path d="M244.318,304.752c.05.335.106.671.184,1,.688,3.063,2.476,5.764,5.439,5.764,4.176,0,4.959-5.764,4.959-5.764h-2.119a16.989,16.989,0,0,0-.24-2.2c-.408-2.482-1.532-6.311-4.539-7.385a4.779,4.779,0,0,0-1.638.956S243.519,299.251,244.318,304.752Zm1.319.771a7.977,7.977,0,0,1-.207-1.275,5.87,5.87,0,0,1,1-4.075,2.342,2.342,0,0,1,1.839-.967h.089c1.621.073,3.119,2,3.55,4.444q.067.38.1.771a5.892,5.892,0,0,1-1,4.081,2.331,2.331,0,0,1-1.839.962h-.061C247.572,309.4,246.169,307.726,245.638,305.524Z" transform="translate(-140.772 -141.399)" fill="#438094"/><path d="M252.577,306.429a1.252,1.252,0,0,0-.039-.246.418.418,0,0,0,0-.112,1.323,1.323,0,0,0-.028-.145,1.466,1.466,0,0,0-.078-.352c-.028-.112-.045-.168-.073-.257s-.045-.162-.073-.24l-.05-.145a2.1,2.1,0,0,0-.089-.24l-.145-.335a2.928,2.928,0,0,0-.129-.268c-.056-.112-.117-.224-.179-.324l-.1-.162-.039-.056-.062-.089a2.652,2.652,0,0,0-.207-.285c-.073-.089-.151-.173-.224-.252l-.117-.117a2.532,2.532,0,0,0-1.61-.788c-1.621-.067-2.767,2-2.56,4.606s1.677,4.78,3.309,4.847a1.789,1.789,0,0,0,1.04-.279,1.949,1.949,0,0,0,.369-.28h0a2.566,2.566,0,0,0,.335-.391,1.916,1.916,0,0,0,.145-.224c.05-.078.089-.151.134-.235h0l.05-.1h0a1.427,1.427,0,0,0,.073-.162v-.034l.089-.229a.435.435,0,0,0,.028-.1,2.948,2.948,0,0,0,.134-.475l.034-.14.034-.2a7,7,0,0,0,.067-1.727v-.145A2.432,2.432,0,0,0,252.577,306.429Zm-3.354-4.819h.089c1.621.073,3.119,2,3.55,4.444q.067.38.1.771a5.892,5.892,0,0,1-1,4.081,2.342,2.342,0,0,1-1.839.967h-.045c-1.509-.067-2.913-1.744-3.444-3.947a7.98,7.98,0,0,1-.207-1.275,5.87,5.87,0,0,1,1-4.075,2.342,2.342,0,0,1,1.811-.967Z" transform="translate(-141.746 -143.802)" fill="url(#aa)"/><path d="M248.881,303.374a2.27,2.27,0,0,1,1.18-.956,2.538,2.538,0,0,1,.816.425,3.515,3.515,0,0,1,.324.274,2.532,2.532,0,0,0-1.61-.788c-1.621-.067-2.767,2-2.56,4.606s1.677,4.78,3.309,4.847a1.789,1.789,0,0,0,1.04-.28.583.583,0,0,1-.866.006,2.8,2.8,0,0,1-.615-.447,5.635,5.635,0,0,1-1.487-2.572,7.528,7.528,0,0,1-.224-1.034,4.122,4.122,0,0,1-.061-.52,6.786,6.786,0,0,1,.14-2.085,4.382,4.382,0,0,1,.615-1.476Z" transform="translate(-142.02 -144.119)" fill="#759696"/><path d="M248.9,295.6c3.008,1.073,4.131,4.9,4.539,7.385a17,17,0,0,1,.24,2.2h.525c.168-4.249-.872-7.921-4.578-10.3a23.606,23.606,0,0,0-3.388.514,4.771,4.771,0,0,1,.928-.084A5.144,5.144,0,0,1,248.9,295.6Z" transform="translate(-141.682 -140.835)" fill="url(#ab)"/><path d="M249.129,306.84a6.786,6.786,0,0,0-.14,2.085,4.115,4.115,0,0,0,.062.52s1.828-.335,1.828-.866S249.129,306.84,249.129,306.84Z" transform="translate(-142.882 -146.109)" fill="#4a6d73"/><path d="M249.12,307.862a7.524,7.524,0,0,0,.224,1.034s1.426-1.381,1.711-1.034-.207,3.472-.224,3.606a2.8,2.8,0,0,0,.615.447s-.28-3.7.291-3.768,1.5,2.208,1.627,2.5a1.336,1.336,0,0,0,.073-.157v-.034l.089-.229a.434.434,0,0,0,.028-.1,1.676,1.676,0,0,0,.056-.179s-1.61-2.029-1.409-2.421,1.515-.106,1.6-.084a2.432,2.432,0,0,0-.034-.291,1.252,1.252,0,0,0-.039-.246.285.285,0,0,0,0-.112c-.1,0-1.526.056-1.677-.341-.274-.665.743-2.13.743-2.13a.118.118,0,0,0-.034-.056l-.061-.089c-.067-.1-.134-.19-.207-.285s-.151-.173-.224-.252l-.117-.117a3.516,3.516,0,0,0-.324-.274s.14,2.89-.447,3-1.5-2.348-1.549-2.471a4.383,4.383,0,0,0-.615,1.476s1.75,1.213,1.75,1.739S249.12,307.862,249.12,307.862Z" transform="translate(-142.952 -144.526)" fill="url(#ac)"/><path d="M249.52,312.492a5.635,5.635,0,0,0,1.487,2.572c0-.134.5-3.27.224-3.606S249.52,312.492,249.52,312.492Z" transform="translate(-143.128 -148.122)" fill="#4a6d73"/><path d="M250.5,274.73c-.492.453-.973.917-1.448,1.386q8.151.5,16.447,1.157h0c.039-.693.073-1.381.117-2.063l-15.094-.475Z" transform="translate(-142.921 -131.949)" fill="#004d5c"/><path d="M251.65,270.3l15.094.475q.184-3.119.386-6.088c-3.03.045-5.982.151-8.715.313A49.161,49.161,0,0,0,251.65,270.3Z" transform="translate(-144.067 -127.522)" fill="#287994"/><path d="M251.54,302.49a2.269,2.269,0,0,0-1.18.956c.045.123.978,2.583,1.548,2.471s.447-3,.447-3A2.538,2.538,0,0,0,251.54,302.49Z" transform="translate(-143.498 -144.19)" fill="#4a6d73"/><path d="M253.52,312c-.559.067-.291,3.768-.291,3.768a.583.583,0,0,0,.866-.006,2.465,2.465,0,0,0,.369-.279h0a3.32,3.32,0,0,0,.335-.391,2.192,2.192,0,0,0,.145-.224l.134-.235h0l.05-.1h0C255.018,314.235,254.051,311.938,253.52,312Z" transform="translate(-144.735 -148.383)" fill="#4a6d73"/><path d="M255.037,305.17s-1.017,1.465-.744,2.13c.162.4,1.588.347,1.677.341a.71.71,0,0,0,0-.145,1.466,1.466,0,0,0-.078-.352c-.028-.112-.045-.173-.073-.257s-.045-.162-.073-.24l-.05-.145c-.028-.078-.056-.162-.089-.24l-.145-.335a1.952,1.952,0,0,0-.129-.268c-.056-.112-.117-.224-.179-.324l-.1-.162Z" transform="translate(-145.212 -145.372)" fill="#4a6d73"/><path d="M254.636,310.74c-.2.391,1.409,2.421,1.409,2.421.028-.1.056-.2.078-.3l.034-.14.034-.2a7,7,0,0,0,.067-1.727v-.145C256.151,310.634,254.832,310.354,254.636,310.74Z" transform="translate(-145.376 -147.739)" fill="#4a6d73"/><path d="M254.49,319.074a24.452,24.452,0,0,0,4.774-.14,9.414,9.414,0,0,0,3.091-5.624h-2.907S258.688,319.074,254.49,319.074Z" transform="translate(-145.32 -148.962)" fill="#004d5c"/><path d="M280.3,272.932h0q7.061.559,14.233,1.207c-.184-.777-.414-1.632-.676-2.538l-5.59-.212-1.929-6.669h-1.414l1.414,6.306-5.965-.185h-.039C280.322,271.518,280.311,272.222,280.3,272.932Z" transform="translate(-156.701 -127.535)" fill="#004d5c"/><path d="M280.36,270.825h.039l5.965.184-1.437-6.289h-4.472C280.427,266.643,280.394,268.689,280.36,270.825Z" transform="translate(-156.728 -127.535)" fill="#287994"/><path d="M291.06,264.73l1.929,6.669,5.59.212a50.715,50.715,0,0,0-2.46-6.708C294.459,264.808,292.759,264.758,291.06,264.73Z" transform="translate(-161.446 -127.539)" fill="#287994"/><path d="M253.7,265.1l1.962-.1a49.157,49.157,0,0,0-6.781,5.3h0c-.492.453-.973.917-1.448,1.386l-2.057-.559A68.764,68.764,0,0,1,253.7,265.1Zm10.174,7.743h0c.341,0,.682.045,1.023.078h0c0-.71,0-1.414.034-2.108.034-2.135.067-4.182.106-6.121h-.66q-.2,2.968-.386,6.088C263.951,271.46,263.917,272.131,263.878,272.841Zm13.294-7.977H276a50.715,50.715,0,0,1,2.46,6.708c.263.906.492,1.761.676,2.538l1.616.106c-.313-.883-.609-1.744-.911-2.588C278.983,269.218,278.15,266.954,277.172,264.863Z" transform="translate(-141.302 -127.522)" fill="url(#ad)"/><path d="M301.59,263.64c.123.252.252.509.369.771,2.012.106,4.025.235,6.015.375l1.085.078c3.846.274,7.58.6,11.058.939l.3.028-.749-.76C313.358,264.4,307.314,263.908,301.59,263.64Z" transform="translate(-166.089 -127.059)" fill="url(#ae)"/><path d="M302.25,265c.973,2.08,1.811,4.344,2.667,6.775h0l5.087.2-1.744-6.585C306.275,265.246,304.262,265.117,302.25,265Z" transform="translate(-166.381 -127.658)" fill="#287994"/><path d="M307,272.091h0c.3.844.6,1.705.911,2.588a135.9,135.9,0,0,1,21.467.212,69.255,69.255,0,0,0-6.591-8.156l-.3-.028h0l3.237,6.088-11.577-.514-2.678-6.513-1.085-.078,1.744,6.6Z" transform="translate(-168.475 -127.963)" fill="#004d5c"/><path d="M313.569,298.04c-3.628,1.235-1.968,8.458-1.968,8.458h1.2c-.084-.324-.151-.66-.207-1-.911-5.5,2.331-7.636,2.331-7.636a1.049,1.049,0,0,0-.19,0,3.644,3.644,0,0,0-1.157.179Z" transform="translate(-170.337 -142.15)" fill="#124f63"/><path d="M324.867,306.5h.755s-.889,5.764-5.652,5.764c-3.382,0-5.423-2.7-6.211-5.764-.084-.324-.151-.66-.207-1-.911-5.5,2.331-7.636,2.331-7.636C320.921,298.071,324.867,306.5,324.867,306.5Zm-5.887,3.74h.106a2.8,2.8,0,0,0,2.1-.967,5.339,5.339,0,0,0,1.118-4.081c-.252-2.8-2.119-5.137-4.159-5.216h-.106a2.8,2.8,0,0,0-2.1.967,5.316,5.316,0,0,0-1.118,4.075C315.073,307.8,316.946,310.146,318.981,310.241Z" transform="translate(-171.293 -142.153)" fill="#438094"/><path d="M315,265.83l2.717,6.518,11.577.514-3.237-6.088h0C322.552,266.434,318.818,266.1,315,265.83Z" transform="translate(-172.003 -128.024)" fill="#287994"/><path d="M322.463,309.923c.028-.05.056-.106.078-.157s0-.028,0-.034.067-.157.1-.24.067-.173.1-.263h0l.05-.168v-.028c0-.028.05-.173.073-.263a2.12,2.12,0,0,0,.039-.224c.011-.073.034-.162.045-.252a1.206,1.206,0,0,0,0-.2v-.621a4.966,4.966,0,0,0-.028-.6v-.145a4.909,4.909,0,0,0-.106-.648.842.842,0,0,0-.034-.162,3.245,3.245,0,0,0-.1-.352c-.028-.106-.061-.218-.1-.324s-.106-.291-.168-.43-.112-.246-.173-.363V304.4a2.245,2.245,0,0,0-.151-.274l-.061-.106-.168-.252a1.207,1.207,0,0,0-.117-.162,1.38,1.38,0,0,0-.106-.145,3.681,3.681,0,0,0-.369-.414,1.337,1.337,0,0,0-.129-.123,3.257,3.257,0,0,0-.263-.224,3.113,3.113,0,0,0-.559-.363,2.634,2.634,0,0,0-1.118-.319c-1.845-.067-3.159,2-2.918,4.606s1.923,4.78,3.773,4.847a2.136,2.136,0,0,0,.71-.084,2.236,2.236,0,0,0,.481-.2,1.31,1.31,0,0,0,.218-.14,1.626,1.626,0,0,0,.2-.14h0a2.015,2.015,0,0,0,.2-.185h0a1.08,1.08,0,0,0,.151-.168,2.244,2.244,0,0,0,.2-.257,2.1,2.1,0,0,0,.14-.218v-.05l.045-.067Zm-3.354-8.313h.106c2.04.078,3.913,2.415,4.159,5.216a5.339,5.339,0,0,1-1.118,4.081,2.8,2.8,0,0,1-2.1.967h-.106c-2.035-.078-3.913-2.421-4.159-5.221a5.316,5.316,0,0,1,1.118-4.075,2.8,2.8,0,0,1,2.124-.967Z" transform="translate(-172.371 -143.802)" fill="url(#af)"/><path d="M319.949,311.111a5.54,5.54,0,0,1-1.677-2.572,6.231,6.231,0,0,1-.263-1.034q-.039-.263-.067-.52a6.151,6.151,0,0,1,.157-2.085,4.239,4.239,0,0,1,.7-1.481,2.605,2.605,0,0,1,1.353-.95,2.8,2.8,0,0,1,.6.229,2.633,2.633,0,0,0-1.118-.319c-1.845-.067-3.159,2-2.918,4.606s1.923,4.78,3.773,4.847a2.137,2.137,0,0,0,.71-.084,3.007,3.007,0,0,1-.514-.19h0A3.277,3.277,0,0,1,319.949,311.111Z" transform="translate(-172.748 -144.141)" fill="#759696"/><path d="M315.44,297.539a3.644,3.644,0,0,1,1.157-.179,1.057,1.057,0,0,1,.19,0c5.031.2,8.984,8.631,8.984,8.631h.559c-1.644-4.987-3.567-7.267-6.893-9.252A14.323,14.323,0,0,0,315.44,297.539Z" transform="translate(-172.197 -141.655)" fill="url(#ag)"/><path d="M319.034,306.84a6.149,6.149,0,0,0-.157,2.085,2.1,2.1,0,0,0,.067.52s2.1-.335,2.1-.866S319.034,306.84,319.034,306.84Z" transform="translate(-173.7 -146.109)" fill="#4a6d73"/><path d="M319,307.871a6.224,6.224,0,0,0,.263,1.034s1.627-1.381,1.945-1.034-.229,3.472-.252,3.606a3.275,3.275,0,0,0,.7.447c0-.157-.3-3.7.335-3.768s1.711,2.208,1.85,2.5a1.062,1.062,0,0,0,.084-.157v-.034c0-.006.067-.157.1-.24s.067-.173.1-.263h0c-.106-.112-1.834-2.035-1.61-2.415s1.834-.084,1.834-.084a4.9,4.9,0,0,0-.106-.648s-1.739.073-1.934-.341c-.307-.665.85-2.13.85-2.13l-.106-.145a5.263,5.263,0,0,0-.369-.414l-.129-.123a3.269,3.269,0,0,0-.263-.224,2.291,2.291,0,0,0-.235-.168s.157,2.89-.509,3-1.772-2.476-1.772-2.476a4.237,4.237,0,0,0-.7,1.481s2.007,1.213,2.007,1.739S319,307.871,319,307.871Z" transform="translate(-173.767 -144.534)" fill="url(#ah)"/><path d="M319.49,312.492a5.54,5.54,0,0,0,1.677,2.572c0-.134.559-3.27.252-3.606S319.49,312.492,319.49,312.492Z" transform="translate(-173.983 -148.122)" fill="#4a6d73"/><path d="M321.793,302.49a2.6,2.6,0,0,0-1.353.95s1.118,2.594,1.772,2.476.509-3,.509-3a3.413,3.413,0,0,0-.33-.2A2.792,2.792,0,0,0,321.793,302.49Z" transform="translate(-174.402 -144.19)" fill="#4a6d73"/><path d="M308.65,281.535c6.183,1.61,12.511,3.835,17.453,5.663l1.778.481,6.68,1.811a124.441,124.441,0,0,0,14.25.783l3.824-1.37a155.532,155.532,0,0,0-22.5-7.133A138.815,138.815,0,0,0,308.65,281.535Z" transform="translate(-169.203 -134.818)" fill="url(#ai)"/><path d="M324.046,312c-.637.067-.347,3.611-.335,3.768h0a.738.738,0,0,0,1,0,1.309,1.309,0,0,0,.218-.14c.073-.039.134-.1.2-.14h0a2.021,2.021,0,0,0,.2-.184h0a1.459,1.459,0,0,0,.151-.168,2.241,2.241,0,0,0,.2-.257,2.082,2.082,0,0,0,.14-.218v-.05a.184.184,0,0,0,.039-.073C325.756,314.235,324.649,311.938,324.046,312Z" transform="translate(-175.81 -148.383)" fill="#4a6d73"/><path d="M325.779,305.17s-1.157,1.465-.85,2.13c.2.414,1.934.341,1.934.341a.936.936,0,0,0-.034-.162,3.243,3.243,0,0,0-.1-.352,2.745,2.745,0,0,0-.1-.324c-.05-.145-.106-.291-.168-.43s-.112-.246-.173-.363v-.045a2.243,2.243,0,0,0-.151-.274l-.061-.106-.168-.252a1.206,1.206,0,0,0-.134-.162Z" transform="translate(-176.358 -145.372)" fill="#4a6d73"/><path d="M325.324,310.741c-.224.38,1.5,2.3,1.61,2.415l.05-.162v-.028c0-.028.05-.173.073-.263a1.89,1.89,0,0,0,.039-.224c.011-.078.034-.162.045-.252a1.2,1.2,0,0,0,0-.2v-.62a4.971,4.971,0,0,0-.028-.6v-.145S325.553,310.344,325.324,310.741Z" transform="translate(-176.547 -147.74)" fill="#4a6d73"/><path d="M325.16,319.074a31.773,31.773,0,0,0,5.445-.14,9.118,9.118,0,0,0,3.522-5.624h-3.315S329.923,319.074,325.16,319.074Z" transform="translate(-176.483 -148.962)" fill="#004d5c"/><path d="M283.275,297.116a4.751,4.751,0,0,1,1.632-.956c3.013,1.073,4.131,4.9,4.545,7.385a16.994,16.994,0,0,1,.24,2.2h5.031a9.47,9.47,0,0,1-3.091,5.624,24.485,24.485,0,0,1-4.774.14c-2.963,0-4.757-2.7-5.439-5.764a9.748,9.748,0,0,1-.184-1C280.418,299.251,283.275,297.116,283.275,297.116Z" transform="translate(-157.048 -141.399)" fill="#004d5c"/><path d="M355.19,297.87c5.031.2,8.984,8.631,8.984,8.631h4.07a9.168,9.168,0,0,1-3.522,5.624,31.86,31.86,0,0,1-5.451.14c-3.354,0-5.423-2.7-6.205-5.764-.084-.324-.157-.66-.212-1C351.942,300.005,355.19,297.87,355.19,297.87Z" transform="translate(-188.624 -142.153)" fill="#004d5c"/><path d="M340.12,297.255l8.743.872-.425-3.539L341.78,292.8a22.608,22.608,0,0,0-1.66,4.455Z" transform="translate(-183.08 -139.917)" fill="#fff7cc"/><path d="M355,296l.447,3.561c5.355.134,10.292.2,13.8,0v-2.8A124.447,124.447,0,0,1,355,296Z" transform="translate(-189.642 -141.329)" fill="#438094"/><path d="M446.15,312.44l1.247,2.622h11.057l.749-2.538Z" transform="translate(-280.233 -152.072)" fill="#438094"/><path d="M468.909,312.59l-.749,2.538h.587l.866-2.532Z" transform="translate(-289.939 -152.138)" fill="#004d5c"/><path d="M380.45,296.288v2.8h.4l3.975-.24a12.194,12.194,0,0,0-.559-3.913Z" transform="translate(-200.865 -140.857)" fill="#fff7cc"/><path d="M337,304.785l.716,2.845h27.42l-.481-2.331.889-4.047-3.975.24h-.4c-3.511.179-8.447.112-13.8,0l-8.743-.872-1.89-.19Zm10.5-1.118,13.053.084h.71l-.867,2.532h-11.65Z" transform="translate(-181.59 -143.282)" fill="url(#aj)"/><path d="M229.906,287.679c.106-.648.212-1.291.335-1.917H232.6l.6-6.842h-1.191a27,27,0,0,1,1.191-2.829,48.875,48.875,0,0,1,4.953,0l2.057.559q8.151.5,16.447,1.157c.341,0,.682.045,1.023.078q7.06.559,14.233,1.207l1.616.106c6.183,1.61,12.511,3.835,17.453,5.663a13.305,13.305,0,0,0-1.75,4.768l.263,4.355.716,2.845H288.2c-1.644-4.987-3.567-7.267-6.893-9.252a14.321,14.321,0,0,0-3.986.788h0c-3.628,1.235-1.968,8.458-1.968,8.458h-28.74c.168-4.249-.872-7.921-4.578-10.3a23.6,23.6,0,0,0-3.388.514c-4.942.956-1.75,9.789-1.75,9.789h-6.446A49.38,49.38,0,0,1,229,287.679Z" transform="translate(-134.079 -132.521)" fill="url(#ak)"/><path d="M249.05,271.689c.475-.47.956-.934,1.448-1.386h0a49.163,49.163,0,0,1,6.781-5.3c2.734-.162,5.685-.268,8.715-.313q-.2,2.968-.386,6.088c-.045.682-.078,1.37-.117,2.063h0Q257.2,272.192,249.05,271.689Z" transform="translate(-142.921 -127.522)" fill="url(#al)" style="mix-blend-mode:screen;isolation:isolate"/><path d="M280.449,264.69h5.887c1.677,0,3.4.078,5.082.162a50.71,50.71,0,0,1,2.46,6.708c.263.906.492,1.761.676,2.538q-7.178-.654-14.233-1.208h0c0-.71,0-1.414.034-2.108C280.376,268.676,280.409,266.63,280.449,264.69Z" transform="translate(-156.71 -127.522)" fill="url(#am)" style="mix-blend-mode:screen;isolation:isolate"/><path d="M308.255,265.395l1.085.078c3.846.274,7.58.6,11.058.939l.3.028a69.258,69.258,0,0,1,6.591,8.156,135.909,135.909,0,0,0-21.467-.212c-.313-.883-.609-1.744-.911-2.588a69.616,69.616,0,0,0-2.667-6.775C304.258,265.126,306.271,265.255,308.255,265.395Z" transform="translate(-166.376 -127.667)" fill="url(#an)" style="mix-blend-mode:screen;isolation:isolate"/><path d="M328.917,268.638l-5.9,5.892H321.1l3.712-7.424,3.125.235Zm-7.826-1.828L319,274.53h.978l3.913-7.5Z" transform="translate(-173.767 -128.456)" fill="url(#ao)" style="mix-blend-mode:screen;isolation:isolate"/><path d="M381.508,271.394l-4.344,7.921-2.035-.084,2.314-7.972Z" transform="translate(-248.915 -133.913)" fill="url(#ap)" style="mix-blend-mode:screen;isolation:isolate"/><path d="M360.606,271.13l-5.076,7.357-2.04-.123,3.667-7.088Z" transform="translate(-239.372 -133.855)" fill="url(#aq)" style="mix-blend-mode:screen;isolation:isolate"/><path d="M438.931,301.209l.257,1.862-.978-.1-.486-1.084-4.5-.676-.693.934-.85-.078.85-2.594Z" transform="translate(-273.852 -146.353)" fill="#ffe696"/><path d="M474.321,301.72l.414,1.906h-.928l-.335-.492-1.722.352-.1.576-.783.067-.106-1.185Z" transform="translate(-291.085 -147.345)" fill="#ffe696"/><path d="M251.819,303.217c-.525-2.236-1.94-3.913-3.46-4h-.089a2.342,2.342,0,0,0-1.839.967,5.3,5.3,0,0,0-1.006,2.952h-1.235c-.084-4.282,2.18-5.993,2.18-5.993a4.781,4.781,0,0,1,1.638-.956c2.9,1.034,4.036,4.612,4.472,7.088Z" transform="translate(-140.776 -141.412)" fill="url(#ar)" style="mix-blend-mode:multiply;isolation:isolate"/><path d="M322.2,304.41c-.5-2.437-2.2-4.355-4.042-4.427h-.106a2.8,2.8,0,0,0-2.1.967,5.031,5.031,0,0,0-1.163,3.388h-1.381c-.285-4.6,2.471-6.418,2.471-6.418,3.4.134,6.311,4.031,7.826,6.541Z" transform="translate(-171.294 -142.175)" fill="url(#as)" style="mix-blend-mode:multiply;isolation:isolate"/><path d="M249.093,277.2a41.743,41.743,0,0,0,1.716,8.877c3.734,1.219,5.758,4.629,6.021,10.141h8.5a152.4,152.4,0,0,1,.509-17.827h.2a152.152,152.152,0,0,0-.509,17.811h14q.073-1.677.14-3.321c.179-4.3.358-8.749.917-13.26h.2c-.559,4.506-.738,8.944-.917,13.243-.045,1.118-.089,2.286-.145,3.421v.1H256.646v-.1c-.246-5.59-2.186-8.872-5.937-10.062h-.05v-.05a42.059,42.059,0,0,1-1.739-8.944Z" transform="translate(-142.863 -133.038)" fill="#1d5e73"/><path d="M251.44,279.225a2.8,2.8,0,0,0,.52,2.029,22.585,22.585,0,0,0,3.913.162,1.845,1.845,0,0,0,.559-1.822,19.006,19.006,0,0,0-4.992-.369Z" transform="translate(-143.964 -133.917)" fill="#1d5e73"/><path d="M254.947,281.072h1a1.224,1.224,0,0,0,.5-1.207,24.67,24.67,0,0,0-3.8-.324c-.335,0-.66,0-.973.028a1.9,1.9,0,0,0,.47,1.375A26.176,26.176,0,0,0,254.947,281.072Z" transform="translate(-144.077 -134.07)" fill="url(#at)"/><path d="M281.6,281.816a2.868,2.868,0,0,0,.52,2.035,22.621,22.621,0,0,0,3.913.156,1.85,1.85,0,0,0,.559-1.817,19.1,19.1,0,0,0-4.992-.375Z" transform="translate(-157.266 -135.06)" fill="#1d5e73"/><path d="M285.108,283.666h1a1.2,1.2,0,0,0,.5-1.2,24.6,24.6,0,0,0-3.8-.324c-.33,0-.654,0-.973.028a1.906,1.906,0,0,0,.47,1.37A26.183,26.183,0,0,0,285.108,283.666Z" transform="translate(-157.378 -135.217)" fill="url(#au)"/><path d="M470.1,303.61v2.8h-.531l-.106-2.8Z" transform="translate(-290.512 -148.178)" fill="#004d5c"/><path d="M368.646,298.163l-13.417-.117L355,296a128.576,128.576,0,0,0,13.618.783Z" transform="translate(-189.642 -141.329)" fill="url(#av)" style="mix-blend-mode:multiply;isolation:isolate"/><path d="M459.2,312.524l-.375,1.275H446.793l-.643-1.358Z" transform="translate(-280.233 -152.072)" fill="url(#aw)" style="mix-blend-mode:multiply;isolation:isolate"/><path d="M455.632,308.095l-1.029,3.734.514,2.08H454.6l-.643-.492H428.525l-.184-.682,25.542.056-.129-.962.872-3.047-2.8.151-14.2-.151-10.185-.771v-.721l10.32.95,13.9.157Z" transform="translate(-271.982 -149.801)" fill="url(#ax)" style="mix-blend-mode:screen;isolation:isolate"/><path d="M460.472,304.563l-.621,1.347h-2.873l-1.068-1.75Z" transform="translate(-284.537 -148.421)" fill="url(#ay)"/><path d="M456.88,304.67l.632,1.062h.766l-.089-.894.425-.022.078.822,1.336.1-.117.184h-2.622l-.978-1.386Z" transform="translate(-284.713 -148.584)" fill="#759696"/><path d="M364.415,289.149l-2.8,1.168a135.529,135.529,0,0,1-13.657-.716l-8.693-2.342c-2.108-3.354.911-5.109.911-5.109l3.086.24A128.26,128.26,0,0,1,364.415,289.149Z" transform="translate(-182.376 -135.221)" fill="url(#az)" style="mix-blend-mode:screen;isolation:isolate"/><path d="M324.84,287.9l-.313,3.164H323.04l.9-3.164Z" transform="translate(-225.945 -141.251)" fill="#9a1418"/><path d="M323.886,294.59l-.257,2.521H322.08l.537-2.521Z" transform="translate(-225.521 -144.201)" fill="#d96118"/><path d="M345.487,307.464a2.392,2.392,0,0,0,2.029-1.733,1.593,1.593,0,0,0-.151-1.437,1.079,1.079,0,0,0-.883-.425,2.4,2.4,0,0,0-2.035,1.739,1.593,1.593,0,0,0,.151,1.437,1.073,1.073,0,0,0,.889.419Z" transform="translate(-184.942 -144.799)" fill="url(#ba)"/><path d="M344.8,306.049a2.057,2.057,0,0,1,1.677-1.509c.682,0,1.029.676.771,1.509a2.063,2.063,0,0,1-1.677,1.509C344.874,307.559,344.544,306.882,344.8,306.049Z" transform="translate(-185.106 -145.094)" fill="#fff7cc"/><path d="M347.128,306.57a.984.984,0,0,0-.967-.643,1.426,1.426,0,0,0-1.051.5.217.217,0,0,1,.028-.129,1.979,1.979,0,0,1,1.588-1.4.643.643,0,0,1,.559.246,1.168,1.168,0,0,1,.084,1.034,2.328,2.328,0,0,1-.2.43Z" transform="translate(-185.281 -145.252)" fill="#ffe696"/><path d="M382.825,307.423c.486,0,1.006-.671,1.185-1.521a1.979,1.979,0,0,0-.089-1.263.559.559,0,0,0-.514-.369c-.486,0-1.006.671-1.185,1.521a2.007,2.007,0,0,0,.089,1.258.559.559,0,0,0,.514.375Z" transform="translate(-201.618 -144.975)" fill="url(#bb)"/><path d="M382.43,306.179c.145-.727.593-1.319.989-1.319s.6.593.453,1.319-.6,1.325-1,1.325S382.279,306.912,382.43,306.179Z" transform="translate(-201.716 -145.236)" fill="#fff7cc"/><path d="M383.792,306.635a.626.626,0,0,0-.559-.559.771.771,0,0,0-.615.436.777.777,0,0,1,0-.112c.14-.665.559-1.23.934-1.23a.347.347,0,0,1,.313.212,1.5,1.5,0,0,1,.05.911,2.66,2.66,0,0,1-.117.375Z" transform="translate(-201.82 -145.372)" fill="#ffe696"/><path d="M378.323,312.344l-26.42-.934-.224,2.672,26.872.2Z" transform="translate(-238.574 -151.618)" opacity="0.5" fill="url(#bc)" style="mix-blend-mode:screen;isolation:isolate"/><path d="M235.571,278.919H234.38a27.014,27.014,0,0,1,1.191-2.829,48.866,48.866,0,0,1,4.953,0l2.057.559q8.151.5,16.447,1.157c.341,0,.682.045,1.023.078q7.061.559,14.233,1.207l1.616.106c6.183,1.61,12.511,3.835,17.453,5.663a12.543,12.543,0,0,0-1.47,3.488l-56.6-6.16Z" transform="translate(-136.452 -132.521)" opacity="0.5" fill="url(#bd)" style="mix-blend-mode:screen;isolation:isolate"/><path d="M271.616,264.011H277.5c1.677,0,3.4.078,5.082.162h1.174c-.117-.263-.246-.52-.369-.771a187.918,187.918,0,0,0-21.64.129c-.486.28-.978.559-1.459.866l1.962-.1c2.734-.162,5.685-.268,8.715-.313Z" transform="translate(-147.877 -126.843)" fill="url(#be)"/><path d="M103.75,288.042h2.376l.559-6.842H105.5A44.936,44.936,0,0,0,103.75,288.042Z" transform="translate(-78.847 -134.802)" fill="url(#bf)"/><path d="M209.28,296.673l1.884.19a22.963,22.963,0,0,1,1.638-4.472l-1.772-.481A13.2,13.2,0,0,0,209.28,296.673Z" transform="translate(-125.383 -139.525)" fill="#d96118"/><path d="M210.6,294.741a11.534,11.534,0,0,1,1.118-2.421l1.4.375c-.319.676-.6,1.364-.855,2.046Z" transform="translate(-125.965 -139.706)" fill="#f7a01e"/><path d="M116.62,295.734c-4.942.956-1.75,9.789-1.75,9.789h.911a9.752,9.752,0,0,1-.184-1c-.805-5.5,2.046-7.636,2.046-7.636a4.754,4.754,0,0,1,1.632-.956,5.145,5.145,0,0,0-1.733-.285A4.712,4.712,0,0,0,116.62,295.734Z" transform="translate(-83.304 -141.174)" fill="#124f63"/><path d="M116.883,304.752a9.749,9.749,0,0,0,.184,1c.682,3.063,2.476,5.764,5.439,5.764,4.176,0,4.953-5.764,4.953-5.764h-2.113a16.993,16.993,0,0,0-.24-2.2c-.414-2.482-1.532-6.311-4.545-7.385a4.751,4.751,0,0,0-1.632.956S116.061,299.251,116.883,304.752Zm1.314.771a8.657,8.657,0,0,1-.207-1.275,5.842,5.842,0,0,1,1-4.075,2.331,2.331,0,0,1,1.834-.967h.1c1.621.073,3.119,2,3.55,4.444.045.252.073.509.1.771a5.864,5.864,0,0,1-.989,4.081,2.342,2.342,0,0,1-1.845.962h-.084c-1.532-.061-2.935-1.739-3.466-3.941Z" transform="translate(-84.573 -141.399)" fill="#438094"/><path d="M125.082,306.429a.542.542,0,0,0-.039-.246.9.9,0,0,0,0-.112.271.271,0,0,0-.028-.145c-.028-.045-.05-.24-.084-.352s-.045-.168-.067-.257a2.423,2.423,0,0,0-.078-.24,1.213,1.213,0,0,1-.045-.145,2.335,2.335,0,0,0-.089-.24c-.034-.078-.045-.112-.073-.168s-.045-.112-.073-.168-.084-.179-.129-.268a3.044,3.044,0,0,0-.184-.324l-.1-.162-.039-.056-.061-.089c-.067-.1-.14-.2-.212-.285a2.391,2.391,0,0,0-.224-.252.778.778,0,0,0-.117-.117,2.521,2.521,0,0,0-1.6-.788c-1.627-.067-2.8,2-2.566,4.606s1.677,4.78,3.315,4.847a1.8,1.8,0,0,0,1.04-.28,1.912,1.912,0,0,0,.363-.279h0a2.287,2.287,0,0,0,.335-.391,1.962,1.962,0,0,0,.151-.224c.05-.078.089-.151.134-.235h0l.05-.1h0a1.423,1.423,0,0,0,.073-.162.237.237,0,0,0,0-.034,1.784,1.784,0,0,0,.089-.229l.034-.1a4.817,4.817,0,0,0,.134-.475.261.261,0,0,1,.028-.14,1.117,1.117,0,0,0,.034-.2,6.741,6.741,0,0,0,.067-1.727,1.175,1.175,0,0,0,0-.145A1.037,1.037,0,0,1,125.082,306.429Zm-3.354-4.819h.1c1.621.073,3.119,2,3.55,4.444.045.252.073.509.1.771a5.864,5.864,0,0,1-.989,4.081,2.348,2.348,0,0,1-1.845.967h-.084c-1.515-.067-2.918-1.744-3.449-3.947a8.659,8.659,0,0,1-.207-1.275,5.842,5.842,0,0,1,1-4.075,2.331,2.331,0,0,1,1.834-.967Z" transform="translate(-85.504 -143.802)" fill="url(#bg)"/><path d="M121.408,303.374a2.281,2.281,0,0,1,1.185-.956,2.656,2.656,0,0,1,.816.425,3.471,3.471,0,0,1,.319.274,2.521,2.521,0,0,0-1.6-.788c-1.627-.067-2.8,2-2.566,4.606s1.677,4.78,3.315,4.847a1.8,1.8,0,0,0,1.04-.28,2.376,2.376,0,0,1-.419.2,2.233,2.233,0,0,1-.447-.19,2.844,2.844,0,0,1-.621-.447,5.735,5.735,0,0,1-1.487-2.572,7.53,7.53,0,0,1-.224-1.034c-.028-.173-.05-.347-.062-.52a6.965,6.965,0,0,1,.14-2.085A4.472,4.472,0,0,1,121.408,303.374Z" transform="translate(-85.805 -144.119)" fill="#759696"/><path d="M121.477,295.6c3.013,1.073,4.131,4.9,4.545,7.385a17,17,0,0,1,.24,2.2h.525c.162-4.249-.878-7.921-4.584-10.3a23.523,23.523,0,0,0-3.354.514,4.715,4.715,0,0,1,.922-.084A5.144,5.144,0,0,1,121.477,295.6Z" transform="translate(-85.506 -140.835)" fill="url(#bh)"/><path d="M121.661,306.84a6.965,6.965,0,0,0-.14,2.085,3.3,3.3,0,0,0,.061.52s1.834-.335,1.834-.866S121.661,306.84,121.661,306.84Z" transform="translate(-86.673 -146.109)" fill="#4a6d73"/><path d="M121.65,307.862a7.528,7.528,0,0,0,.224,1.034s1.431-1.381,1.711-1.034-.2,3.472-.224,3.606a2.843,2.843,0,0,0,.621.447s-.28-3.7.291-3.768,1.5,2.208,1.621,2.5a1.334,1.334,0,0,0,.073-.157.237.237,0,0,0,0-.034,1.782,1.782,0,0,0,.089-.229l.034-.1a.819.819,0,0,1,.056-.179c.017-.062-1.61-2.029-1.409-2.421s1.515-.106,1.6-.084a.847.847,0,0,0-.034-.291c-.034-.1,0-.162-.039-.246a.441.441,0,0,0,0-.112c-.106,0-1.526.056-1.677-.341-.274-.665.749-2.13.749-2.13a.118.118,0,0,0-.034-.056l-.061-.089c-.067-.1-.14-.19-.212-.285a2.394,2.394,0,0,0-.224-.252l-.117-.117a3.472,3.472,0,0,0-.319-.274s.134,2.89-.447,3-1.5-2.348-1.554-2.471a4.472,4.472,0,0,0-.615,1.476s1.755,1.213,1.755,1.739S121.65,307.862,121.65,307.862Z" transform="translate(-86.741 -144.526)" fill="url(#bi)"/><path d="M122.05,312.492a5.736,5.736,0,0,0,1.487,2.572c0-.134.5-3.27.224-3.606S122.05,312.492,122.05,312.492Z" transform="translate(-86.917 -148.122)" fill="#4a6d73"/><path d="M123.032,274.73c-.492.453-.967.917-1.442,1.386q8.145.5,16.441,1.157h0c.039-.693.078-1.381.123-2.063l-15.094-.475Z" transform="translate(-86.714 -131.949)" fill="#004d5c"/><path d="M124.18,270.3l15.094.475q.179-3.119.386-6.088c-3.036.045-5.982.151-8.721.313a49.157,49.157,0,0,0-6.759,5.3Z" transform="translate(-87.856 -127.522)" fill="#287994"/><path d="M124.065,302.49a2.281,2.281,0,0,0-1.185.956c.05.123.984,2.583,1.554,2.471s.447-3,.447-3A2.654,2.654,0,0,0,124.065,302.49Z" transform="translate(-87.283 -144.19)" fill="#4a6d73"/><path d="M126.06,312c-.559.067-.291,3.768-.291,3.768a2.237,2.237,0,0,0,.447.19,2.381,2.381,0,0,0,.419-.2,2.42,2.42,0,0,0,.363-.28h0a2.868,2.868,0,0,0,.335-.391,2.233,2.233,0,0,0,.151-.224q.067-.106.134-.235h0l.05-.1h0C127.547,314.235,126.591,311.938,126.06,312Z" transform="translate(-88.529 -148.383)" fill="#4a6d73"/><path d="M127.572,305.17s-1.023,1.465-.749,2.13c.168.4,1.588.347,1.677.341V307.5a2.335,2.335,0,0,0-.084-.352c-.034-.112-.045-.173-.067-.257s-.05-.162-.078-.24a1.208,1.208,0,0,1-.045-.145,2.333,2.333,0,0,0-.089-.24c-.034-.078-.045-.112-.073-.168s-.045-.112-.073-.168-.084-.179-.129-.268a3.047,3.047,0,0,0-.184-.324l-.1-.162Z" transform="translate(-89.001 -145.372)" fill="#4a6d73"/><path d="M127.176,310.74c-.2.391,1.409,2.421,1.409,2.421a1.226,1.226,0,0,1,.078-.3c.028-.1,0-.089.028-.14a1.118,1.118,0,0,0,.034-.2,6.743,6.743,0,0,0,.067-1.727,1.182,1.182,0,0,0,0-.145C128.691,310.634,127.366,310.354,127.176,310.74Z" transform="translate(-89.17 -147.739)" fill="#4a6d73"/><path d="M127,319.074a24.483,24.483,0,0,0,4.774-.14,9.442,9.442,0,0,0,3.091-5.624h-2.913S131.193,319.074,127,319.074Z" transform="translate(-89.1 -148.962)" fill="#004d5c"/><path d="M152.84,272.932h0q7.049.559,14.233,1.207c-.184-.777-.414-1.632-.676-2.538l-5.59-.212-1.934-6.669h-1.414l1.42,6.306-5.948-.2H152.9C152.862,271.518,152.846,272.222,152.84,272.932Z" transform="translate(-100.495 -127.535)" fill="#004d5c"/><path d="M152.9,270.825h.056l5.97.184-1.442-6.289h-4.472C152.956,266.643,152.956,268.689,152.9,270.825Z" transform="translate(-100.521 -127.535)" fill="#287994"/><path d="M163.59,264.73l1.934,6.669,5.59.212a49.966,49.966,0,0,0-2.465-6.708C166.994,264.808,165.3,264.758,163.59,264.73Z" transform="translate(-105.235 -127.539)" fill="#287994"/><path d="M126.238,265.1l1.962-.1a49.16,49.16,0,0,0-6.781,5.3h0c-.492.453-.967.917-1.442,1.386l-2.057-.559a68.665,68.665,0,0,1,8.318-6.032Zm10.174,7.742h0c.341,0,.688.045,1.029.078h0c0-.71,0-1.414.034-2.108,0-2.135.061-4.182.1-6.121h-.654q-.207,2.968-.386,6.088C136.491,271.46,136.452,272.131,136.413,272.841Zm13.3-7.977h-1.18A49.956,49.956,0,0,1,151,271.572c.263.906.492,1.761.676,2.538l1.61.106-.906-2.588C151.506,269.218,150.679,266.954,149.712,264.863Z" transform="translate(-85.096 -127.522)" fill="url(#bj)"/><path d="M174.12,263.64c.129.252.252.509.375.771,2.007.106,4.025.235,6.01.375l1.118.078c3.84.274,7.58.6,11.058.939l.291.028c-.246-.257-.492-.509-.744-.76C185.893,264.4,179.85,263.908,174.12,263.64Z" transform="translate(-109.879 -127.059)" fill="url(#bk)"/><path d="M174.79,265c.967,2.08,1.806,4.344,2.667,6.775h0l5.087.2-1.75-6.6C178.821,265.246,176.8,265.117,174.79,265Z" transform="translate(-110.174 -127.658)" fill="#287994"/><path d="M179.57,272.086h0l.906,2.588a135.887,135.887,0,0,1,21.467.212,69.26,69.26,0,0,0-6.591-8.156l-.291-.028h0l3.231,6.088-11.572-.514L184,265.758l-1.118-.078,1.75,6.6Z" transform="translate(-112.282 -127.958)" fill="#004d5c"/><path d="M186.145,298.04c-3.634,1.235-1.973,8.458-1.973,8.458h1.208c-.084-.324-.157-.66-.212-1-.911-5.5,2.337-7.636,2.337-7.636a1.08,1.08,0,0,0-.19,0,3.705,3.705,0,0,0-1.163.179Z" transform="translate(-114.144 -142.15)" fill="#124f63"/><path d="M197.4,306.5h.755s-.894,5.764-5.657,5.764c-3.354,0-5.423-2.7-6.205-5.764-.084-.324-.157-.66-.212-1-.911-5.5,2.337-7.636,2.337-7.636C193.456,298.071,197.4,306.5,197.4,306.5Zm-5.887,3.74h.106a2.8,2.8,0,0,0,2.1-.967,5.339,5.339,0,0,0,1.118-4.081c-.257-2.8-2.119-5.137-4.165-5.216h-.106a2.8,2.8,0,0,0-2.091.967,5.322,5.322,0,0,0-1.118,4.075C187.609,307.8,189.476,310.146,191.517,310.241Z" transform="translate(-115.083 -142.153)" fill="#438094"/><path d="M187.49,265.83l2.717,6.518,11.572.514-3.231-6.088h0C195.07,266.434,191.33,266.1,187.49,265.83Z" transform="translate(-115.774 -128.024)" fill="#287994"/><path d="M195,309.923c.028-.05.061-.106.084-.157a.09.09,0,0,1,0-.034l.1-.24c.034-.084.067-.173.1-.263h0a1.474,1.474,0,0,0,.045-.168.033.033,0,0,0,0-.028,2,2,0,0,0,.067-.263,1.584,1.584,0,0,1,.045-.224c.011-.073.028-.162.039-.252a.7.7,0,0,1,.028-.2v-.621a5.519,5.519,0,0,0,0-.6.609.609,0,0,0,0-.145,6.031,6.031,0,0,0-.1-.648.25.25,0,0,0-.039-.162,3.252,3.252,0,0,0-.089-.352c-.028-.106-.067-.218-.1-.324l-.168-.43c-.056-.123-.112-.246-.173-.363a.169.169,0,0,0,0-.045l-.145-.274a1.127,1.127,0,0,1-.067-.106,2.794,2.794,0,0,0-.162-.252c-.039-.062-.078-.112-.117-.162a.919.919,0,0,0-.112-.145,3.633,3.633,0,0,0-.363-.414,1.346,1.346,0,0,0-.106-.1,2.589,2.589,0,0,0-.268-.224,2.934,2.934,0,0,0-.559-.363,2.633,2.633,0,0,0-1.118-.319c-1.845-.067-3.153,2-2.918,4.606s1.929,4.78,3.779,4.847a2.152,2.152,0,0,0,.71-.084,2.188,2.188,0,0,0,.475-.2,1.357,1.357,0,0,0,.224-.14,1.57,1.57,0,0,0,.2-.14h0a2.074,2.074,0,0,0,.2-.184h0a1.428,1.428,0,0,0,.145-.168,2.271,2.271,0,0,0,.2-.257q.067-.1.134-.218a.1.1,0,0,0,0-.05l.045-.067Zm-3.354-8.313h.106c2.046.078,3.913,2.415,4.165,5.216a5.339,5.339,0,0,1-1.118,4.081,2.8,2.8,0,0,1-2.1.967h-.106c-2.04-.078-3.913-2.421-4.165-5.221a5.322,5.322,0,0,1,1.118-4.075,2.8,2.8,0,0,1,2.119-.967Z" transform="translate(-116.165 -143.802)" fill="url(#bl)"/><path d="M192.49,311.111a5.506,5.506,0,0,1-1.677-2.572,6.216,6.216,0,0,1-.257-1.034c-.034-.173-.05-.347-.067-.52a6,6,0,0,1,.157-2.085,4.143,4.143,0,0,1,.7-1.481,1.249,1.249,0,0,1,1.945-.721,2.633,2.633,0,0,0-1.118-.319c-1.845-.067-3.153,2-2.918,4.606s1.929,4.78,3.779,4.847a2.153,2.153,0,0,0,.71-.084,3.009,3.009,0,0,1-.514-.19h0A3.143,3.143,0,0,1,192.49,311.111Z" transform="translate(-116.542 -144.141)" fill="#759696"/><path d="M188,297.539a3.7,3.7,0,0,1,1.163-.179,1.086,1.086,0,0,1,.19,0c5.031.2,8.984,8.631,8.984,8.631h.559c-1.644-4.987-3.567-7.267-6.893-9.252A14.319,14.319,0,0,0,188,297.539Z" transform="translate(-115.999 -141.655)" fill="url(#bm)"/><path d="M191.573,306.84a6,6,0,0,0-.157,2.085,2.759,2.759,0,0,0,.067.52s2.091-.335,2.091-.866S191.573,306.84,191.573,306.84Z" transform="translate(-117.493 -146.109)" fill="#4a6d73"/><path d="M191.56,307.884a6.215,6.215,0,0,0,.257,1.034s1.627-1.381,1.945-1.034-.224,3.472-.246,3.606a3.143,3.143,0,0,0,.7.447c0-.157-.3-3.7.33-3.768s1.711,2.208,1.856,2.5c.028-.05.062-.106.084-.157a.089.089,0,0,1,0-.034l.1-.24c.034-.084.067-.173.1-.263h0c-.1-.112-1.828-2.035-1.61-2.415s1.834-.084,1.834-.084a6.041,6.041,0,0,0-.1-.648s-1.744.073-1.934-.341c-.313-.665.85-2.13.85-2.13a1.43,1.43,0,0,0-.112-.145,5.2,5.2,0,0,0-.363-.414l-.084-.106a2.586,2.586,0,0,0-.268-.224,2.229,2.229,0,0,0-.235-.168s.157,2.89-.509,3-1.767-2.476-1.767-2.476a4.143,4.143,0,0,0-.7,1.481s1.973,1.18,1.973,1.739S191.56,307.884,191.56,307.884Z" transform="translate(-117.569 -144.548)" fill="url(#bn)"/><path d="M192,312.492a5.506,5.506,0,0,0,1.677,2.572c0-.134.559-3.27.246-3.606S192,312.492,192,312.492Z" transform="translate(-117.763 -148.122)" fill="#4a6d73"/><path d="M194.327,302.49a2.594,2.594,0,0,0-1.347.95s1.118,2.594,1.767,2.476.509-3,.509-3a2.844,2.844,0,0,0-.33-.2,2.593,2.593,0,0,0-.6-.229Z" transform="translate(-118.195 -144.19)" fill="#4a6d73"/><path d="M181.18,281.535c6.188,1.61,12.511,3.835,17.458,5.663l1.772.481,6.664,1.811a124.386,124.386,0,0,0,14.25.783l3.824-1.37a155.6,155.6,0,0,0-22.5-7.133A138.468,138.468,0,0,0,181.18,281.535Z" transform="translate(-112.992 -134.818)" fill="url(#bo)"/><path d="M196.58,312c-.632.067-.341,3.611-.33,3.768h0a3.011,3.011,0,0,0,.514.19,2.93,2.93,0,0,0,.475-.2,1.353,1.353,0,0,0,.224-.14c.067-.039.134-.1.2-.14h0a2.069,2.069,0,0,0,.2-.184h0a1.425,1.425,0,0,0,.145-.168,2.268,2.268,0,0,0,.2-.257q.067-.1.134-.218a.1.1,0,0,0,0-.05.318.318,0,0,0,.045-.073C198.313,314.235,197.194,311.938,196.58,312Z" transform="translate(-119.604 -148.383)" fill="#4a6d73"/><path d="M198.288,305.17s-1.163,1.465-.85,2.13c.19.414,1.934.341,1.934.341a.347.347,0,0,0-.039-.162,3.247,3.247,0,0,0-.089-.352c-.028-.112-.067-.224-.1-.324l-.168-.43c-.05-.123-.112-.246-.173-.363a.169.169,0,0,0,0-.045l-.145-.274a1.12,1.12,0,0,1-.067-.106,2.808,2.808,0,0,0-.162-.252A.971.971,0,0,0,198.288,305.17Z" transform="translate(-120.137 -145.372)" fill="#4a6d73"/><path d="M197.855,310.741c-.218.38,1.509,2.3,1.61,2.415a.783.783,0,0,0,.05-.162.033.033,0,0,0,0-.028,1.509,1.509,0,0,1,.067-.263c.017-.089.034-.145.045-.224s.028-.162.039-.252a.7.7,0,0,1,.028-.2v-.62a5.518,5.518,0,0,0,0-.6.608.608,0,0,0,0-.145S198.09,310.344,197.855,310.741Z" transform="translate(-120.337 -147.74)" fill="#4a6d73"/><path d="M197.69,319.074a31.86,31.86,0,0,0,5.451-.14,9.168,9.168,0,0,0,3.522-5.624h-3.315S202.453,319.074,197.69,319.074Z" transform="translate(-120.272 -148.962)" fill="#004d5c"/><path d="M155.8,297.116a4.83,4.83,0,0,1,1.638-.956c3.008,1.073,4.131,4.9,4.539,7.385a17,17,0,0,1,.24,2.2h5.031a9.414,9.414,0,0,1-3.091,5.624,24.454,24.454,0,0,1-4.774.14c-2.963,0-4.752-2.7-5.439-5.764-.078-.324-.134-.66-.184-1C152.952,299.251,155.8,297.116,155.8,297.116Z" transform="translate(-100.836 -141.399)" fill="#004d5c"/><path d="M227.712,297.87c5.031.2,8.984,8.631,8.984,8.631h4.047a9.129,9.129,0,0,1-3.516,5.624,31.863,31.863,0,0,1-5.45.14c-3.382,0-5.423-2.7-6.211-5.764-.084-.324-.151-.66-.207-1C224.469,300.005,227.712,297.87,227.712,297.87Z" transform="translate(-132.405 -142.153)" fill="#004d5c"/><path d="M212.65,297.255l8.743.872-.442-3.539-6.664-1.789a22.966,22.966,0,0,0-1.638,4.455Z" transform="translate(-126.869 -139.917)" fill="#fff7cc"/><path d="M227.5,296l.442,3.561c5.355.134,10.3.2,13.808,0v-2.8A124.392,124.392,0,0,1,227.5,296Z" transform="translate(-133.418 -141.329)" fill="#438094"/><path d="M318.69,312.44l1.241,2.622h11.063l.743-2.538Z" transform="translate(-224.026 -152.072)" fill="#438094"/><path d="M341.443,312.59l-.743,2.538h.587l.867-2.532Z" transform="translate(-233.732 -152.138)" fill="#004d5c"/><path d="M253,296.288v2.8h.391l3.98-.24a12.349,12.349,0,0,0-.559-3.913Z" transform="translate(-144.663 -140.857)" fill="#fff7cc"/><path d="M209.521,304.785l.71,2.845h27.392l-.481-2.331.894-4.047-3.98.24h-.391c-3.511.179-8.452.112-13.808,0l-8.743-.872-1.884-.19Zm10.5-1.118,13.048.084h.71l-.866,2.532h-11.65Z" transform="translate(-125.361 -143.282)" fill="url(#bp)"/><path d="M102.454,287.679c.1-.648.212-1.291.33-1.917h2.376l.559-6.842h-1.185a25.847,25.847,0,0,1,1.185-2.829,48.976,48.976,0,0,1,4.959,0l2.057.559q8.145.5,16.441,1.157c.341,0,.688.045,1.029.078q7.049.559,14.233,1.207l1.61.106c6.188,1.61,12.511,3.835,17.458,5.663a13.2,13.2,0,0,0-1.75,4.769l.263,4.355.71,2.845h-2c-1.644-4.987-3.567-7.267-6.893-9.252a14.321,14.321,0,0,0-3.991.788h0c-3.634,1.235-1.973,8.458-1.973,8.458H119.164c.162-4.249-.878-7.921-4.584-10.3a23.518,23.518,0,0,0-3.354.514c-4.942.956-1.75,9.789-1.75,9.789H103a48.92,48.92,0,0,1-1.442-9.19Z" transform="translate(-77.882 -132.521)" fill="url(#bq)"/><path d="M121.59,271.689c.475-.47.95-.934,1.442-1.386h0a49.166,49.166,0,0,1,6.781-5.3c2.739-.162,5.685-.268,8.721-.313q-.207,2.968-.386,6.088c-.045.682-.084,1.37-.123,2.063h0Q129.729,272.192,121.59,271.689Z" transform="translate(-86.714 -127.522)" fill="url(#br)" style="mix-blend-mode:screen;isolation:isolate"/><path d="M152.983,264.69h5.887c1.677,0,3.4.078,5.082.162a49.96,49.96,0,0,1,2.465,6.708c.263.906.492,1.761.676,2.538q-7.189-.654-14.233-1.208h0c0-.71,0-1.414.034-2.108C152.938,268.676,152.938,266.63,152.983,264.69Z" transform="translate(-100.504 -127.522)" fill="url(#bs)" style="mix-blend-mode:screen;isolation:isolate"/><path d="M180.822,265.395l1.118.078c3.841.274,7.58.6,11.058.939l.291.028a69.252,69.252,0,0,1,6.591,8.156,135.909,135.909,0,0,0-21.467-.212l-.906-2.588a71.068,71.068,0,0,0-2.667-6.775C176.819,265.126,178.843,265.255,180.822,265.395Z" transform="translate(-110.196 -127.667)" fill="url(#bt)" style="mix-blend-mode:screen;isolation:isolate"/><path d="M201.466,268.638l-5.9,5.892h-1.923l3.717-7.424,3.125.235Zm-7.826-1.828-2.08,7.72h.973l3.913-7.5Z" transform="translate(-117.569 -128.456)" fill="url(#bu)" style="mix-blend-mode:screen;isolation:isolate"/><path d="M254.048,271.394l-4.349,7.921-2.029-.084,2.314-7.972Z" transform="translate(-192.708 -133.913)" fill="url(#bv)" style="mix-blend-mode:screen;isolation:isolate"/><path d="M233.146,271.13l-5.076,7.357-2.04-.123,3.662-7.088Z" transform="translate(-183.166 -133.855)" fill="url(#bw)" style="mix-blend-mode:screen;isolation:isolate"/><path d="M311.466,301.209l.257,1.862-.978-.1-.492-1.084-4.5-.676-.693.934-.85-.078.85-2.594Z" transform="translate(-217.641 -146.353)" fill="#ffe696"/><path d="M346.861,301.72l.408,1.906h-.922l-.335-.492-1.722.352-.106.576-.777.067-.106-1.185Z" transform="translate(-234.879 -147.345)" fill="#ffe696"/><path d="M124.344,303.217c-.52-2.236-1.934-3.913-3.455-4h-.106a2.331,2.331,0,0,0-1.834.967,5.221,5.221,0,0,0-1.006,2.952h-1.235c-.084-4.282,2.18-5.993,2.18-5.993a4.752,4.752,0,0,1,1.632-.956c2.9,1.034,4.042,4.612,4.472,7.088Z" transform="translate(-84.561 -141.412)" fill="url(#bx)" style="mix-blend-mode:multiply;isolation:isolate"/><path d="M194.735,304.41c-.5-2.437-2.191-4.355-4.042-4.427h-.106a2.8,2.8,0,0,0-2.091.967,5.031,5.031,0,0,0-1.163,3.388h-1.381c-.291-4.6,2.471-6.418,2.471-6.418,3.4.134,6.306,4.031,7.826,6.541Z" transform="translate(-115.087 -142.175)" fill="url(#by)" style="mix-blend-mode:multiply;isolation:isolate"/><path d="M121.624,277.2a41.769,41.769,0,0,0,1.711,8.877c3.734,1.219,5.764,4.629,6.026,10.141h8.5a151.189,151.189,0,0,1,.509-17.827h.2a150.94,150.94,0,0,0-.509,17.811h13.976q.078-1.677.14-3.321c.173-4.3.358-8.749.917-13.26h.2c-.559,4.506-.744,8.944-.917,13.243q-.067,1.716-.145,3.421v.1H129.166v-.1c-.246-5.59-2.191-8.872-5.937-10.062h-.05v-.05a41.715,41.715,0,0,1-1.739-8.944Z" transform="translate(-86.648 -133.038)" fill="#9e1f2f"/><path d="M123.983,279.225a2.879,2.879,0,0,0,.52,2.029,22.646,22.646,0,0,0,3.913.162,1.862,1.862,0,0,0,.559-1.822,19.07,19.07,0,0,0-4.992-.369Z" transform="translate(-87.76 -133.917)" fill="#9e1f2f"/><path d="M127.482,281.072h1a1.224,1.224,0,0,0,.5-1.208,24.746,24.746,0,0,0-3.8-.324c-.33,0-.654,0-.967.028a1.9,1.9,0,0,0,.47,1.375,26.08,26.08,0,0,0,2.8.129Z" transform="translate(-87.871 -134.07)" fill="url(#bz)"/><path d="M154.133,281.816a2.9,2.9,0,0,0,.52,2.035,22.666,22.666,0,0,0,3.913.157,1.845,1.845,0,0,0,.559-1.817A19.064,19.064,0,0,0,154.133,281.816Z" transform="translate(-101.056 -135.06)" fill="#9e1f2f"/><path d="M157.647,283.666h1a1.213,1.213,0,0,0,.5-1.2,24.684,24.684,0,0,0-3.8-.324c-.33,0-.654,0-.967.028a1.878,1.878,0,0,0,.47,1.37,26.121,26.121,0,0,0,2.8.129Z" transform="translate(-101.171 -135.217)" fill="url(#ca)"/><path d="M342.632,303.61v2.8H342.1l-.1-2.8Z" transform="translate(-234.305 -148.178)" fill="#004d5c"/><path d="M241.154,298.146l-13.417-.117-.257-2.068a128.5,128.5,0,0,0,13.612.783Z" transform="translate(-133.409 -141.311)" fill="url(#cb)" style="mix-blend-mode:multiply;isolation:isolate"/><path d="M331.738,312.524l-.375,1.275h-12.03l-.643-1.358Z" transform="translate(-224.026 -152.072)" fill="url(#cc)" style="mix-blend-mode:multiply;isolation:isolate"/><path d="M328.166,308.095l-1.029,3.734.514,2.08h-.514l-.643-.492H301.059l-.179-.682,25.536.056-.123-.962.872-3.047-2.806.151-14.194-.151-10.185-.771v-.721l10.32.95,13.9.157Z" transform="translate(-215.776 -149.801)" fill="url(#cd)" style="mix-blend-mode:screen;isolation:isolate"/><path d="M333,304.563l-.615,1.347h-2.873l-1.073-1.75Z" transform="translate(-228.326 -148.421)" fill="url(#ce)"/><path d="M329.42,304.67l.626,1.062h.771l-.089-.894.425-.022.073.822,1.342.1-.117.184h-2.622l-.978-1.386Z" transform="translate(-228.507 -148.584)" fill="#759696"/><path d="M236.967,289.149l-2.8,1.168a135.44,135.44,0,0,1-13.623-.716l-8.7-2.342c-2.108-3.354.911-5.109.911-5.109l3.086.24a128.094,128.094,0,0,1,21.12,6.759Z" transform="translate(-126.187 -135.221)" fill="url(#cf)" style="mix-blend-mode:screen;isolation:isolate"/><path d="M197.37,287.9l-.307,3.164H195.57l.9-3.164Z" transform="translate(-169.734 -141.251)" fill="#9a1418"/><path d="M196.42,294.59l-.257,2.521H194.62l.531-2.521Z" transform="translate(-169.315 -144.201)" fill="#d96118"/><path d="M218.019,307.464a2.4,2.4,0,0,0,2.035-1.733,1.593,1.593,0,0,0-.151-1.437,1.079,1.079,0,0,0-.889-.425,2.393,2.393,0,0,0-2.029,1.739,1.576,1.576,0,0,0,.151,1.437A1.073,1.073,0,0,0,218.019,307.464Z" transform="translate(-128.734 -144.799)" fill="url(#cg)"/><path d="M217.333,306.049a2.063,2.063,0,0,1,1.677-1.509c.682,0,1.029.676.777,1.509a2.063,2.063,0,0,1-1.705,1.509C217.422,307.559,217.076,306.882,217.333,306.049Z" transform="translate(-128.897 -145.094)" fill="#fff7cc"/><path d="M219.664,306.57a.984.984,0,0,0-.967-.643,1.425,1.425,0,0,0-1.057.5,1.122,1.122,0,0,1,.034-.129,1.973,1.973,0,0,1,1.6-1.4.637.637,0,0,1,.559.246,1.152,1.152,0,0,1,.084,1.034,1.776,1.776,0,0,1-.2.43Z" transform="translate(-129.07 -145.251)" fill="#ffe696"/><path d="M255.363,307.423c.486,0,1.006-.671,1.185-1.521a2.019,2.019,0,0,0-.089-1.263.559.559,0,0,0-.514-.369c-.486,0-1.006.671-1.185,1.521a1.968,1.968,0,0,0,.089,1.258A.559.559,0,0,0,255.363,307.423Z" transform="translate(-145.41 -144.975)" fill="url(#ch)"/><path d="M254.963,306.179c.151-.727.593-1.319.989-1.319s.6.593.453,1.319-.593,1.325-.989,1.325S254.817,306.912,254.963,306.179Z" transform="translate(-145.507 -145.236)" fill="#fff7cc"/><path d="M256.324,306.635a.626.626,0,0,0-.559-.559.771.771,0,0,0-.615.436V306.4c.145-.665.559-1.23.939-1.23a.335.335,0,0,1,.307.212,1.465,1.465,0,0,1,.05.911,2.089,2.089,0,0,1-.117.375Z" transform="translate(-145.611 -145.372)" fill="#ffe696"/><path d="M250.859,312.344l-26.42-.934-.229,2.672,26.872.2Z" transform="translate(-182.363 -151.618)" opacity="0.5" fill="url(#ci)" style="mix-blend-mode:screen;isolation:isolate"/><path d="M108.065,278.919H106.88a25.847,25.847,0,0,1,1.185-2.829,48.976,48.976,0,0,1,4.959,0l2.057.559q8.145.5,16.441,1.157c.341,0,.688.045,1.029.078q7.049.559,14.233,1.207l1.61.106c6.188,1.61,12.511,3.835,17.458,5.663a12.382,12.382,0,0,0-1.47,3.488L107.8,282.189Z" transform="translate(-80.228 -132.521)" opacity="0.5" fill="url(#cj)" style="mix-blend-mode:screen;isolation:isolate"/><path d="M144.146,264.012h5.887c1.677,0,3.4.078,5.082.162h1.18c-.123-.263-.246-.52-.375-.771a187.835,187.835,0,0,0-21.634.129c-.486.279-.978.559-1.465.866l1.962-.1c2.739-.162,5.685-.268,8.721-.313Z" transform="translate(-91.666 -126.843)" fill="url(#ck)"/><path d="M260.95,327.349l.481-1.034h-3.913c-.386-.833-1.263-1.722-3.522-2.5-1.5-.078-3.41-.117-5.451-.061-3.354,0-5.423,1.2-6.205,2.566h-6.814c-.38-.833-1.258-1.722-3.522-2.5-1.5-.078-3.4-.117-5.445-.061-3.382,0-5.423,1.2-6.211,2.566h-4.8c-.341-.833-1.118-1.722-3.091-2.5-1.319-.078-2.991-.117-4.774-.061-2.963,0-4.757,1.2-5.439,2.566h-7.323c-.335-.833-1.118-1.722-3.091-2.5-1.314-.078-2.985-.117-4.774-.061a8.2,8.2,0,0,0-3.108.559,11,11,0,0,0-1.219-.492c-1.5-.078-3.41-.117-5.451-.061-3.382,0-5.423,1.2-6.211,2.566h-6.792c-.386-.833-1.263-1.722-3.522-2.5-1.5-.078-3.41-.117-5.451-.061-3.354,0-5.423,1.2-6.205,2.566h-4.8c-.335-.833-1.118-1.722-3.091-2.5-1.314-.078-2.985-.117-4.774-.061-2.963,0-4.752,1.2-5.439,2.566h-7.323c-.341-.833-1.118-1.722-3.091-2.5-1.319-.078-2.991-.117-4.774-.061-2.963,0-4.757,1.2-5.439,2.566H103a11.18,11.18,0,0,0-1.442,4.092h.894c.1.285.212.559.33.855a12.64,12.64,0,0,0,1.772,3.047h0a10.409,10.409,0,0,0,1.185,1.258c1.5.039,3.136.034,4.959,0,2.532.945,5.389,1.878,8.324,2.678l1.465.38c6.524.207,13.786.224,21.634.061,5.73-.123,11.773-.335,18.079-.637l.744-.341c1.118-.525,2.236-1.118,3.354-1.705.559-.3,1.118-.615,1.632-.934s1.079-.654,1.61-1h0c2.51-.257,5.031-.559,7.5-.872a11.306,11.306,0,0,0,.771,1.118h0a10.93,10.93,0,0,0,1.191,1.258c1.5.039,3.136.034,4.953,0,2.538.945,5.389,1.878,8.329,2.678l1.459.38c6.524.207,13.786.224,21.64.061,5.724-.123,11.768-.335,18.073-.637l.749-.341c1.118-.525,2.236-1.118,3.354-1.705.559-.3,1.118-.615,1.638-.934s1.079-.654,1.61-1h0q11.343-1.174,22.5-3.175a2.8,2.8,0,0,0,.559-1.739Z" transform="translate(-77.882 -153.554)" opacity="0.3" fill="url(#cl)" style="mix-blend-mode:multiply;isolation:isolate"/><path d="M180.023,286.6h-7.508l-.475-11.287h8.452Z" transform="translate(-159.358 -135.699)" fill="url(#cm)"/><path d="M177.183,315.183h-.218L177,295.36h-.727l.045,19.823H176.1l-3.209.811H180.4Z" transform="translate(-159.732 -144.54)" fill="url(#cn)"/><path d="M173.41,276.481l.358,5.143h6.373l.24-5.244Z" transform="translate(-159.962 -136.171)" fill="#e1a300"/><path d="M174.12,287.631v.615h6.16l.017-.626Z" transform="translate(-160.275 -141.127)" fill="#fff7cc"/><path d="M174.12,289.661v.615h6.16l.017-.626Z" transform="translate(-160.275 -142.022)" fill="#fff7cc"/><path d="M179.9,278.352v-.621l-.989.011.034-.313h-.811l.045.319-.755.006h-.341l.045.319.19,1.548.034.246.252-.006,1.711-.034-.022.716-1.867.017V281l.766.006-.056.386h.811l-.045-.38.637.006.235.006.011-.235.067-1.213.011-.263h-.279l-1.722.006-.106-.989Z" transform="translate(-161.58 -136.634)" fill="#131f49"/><path d="M180.023,340.024l.47,4.26H172.04l.475-4.26H175.9l.045-7.446h-.224l-3.209-.307h7.508l-3.214.307h-.218l.039,7.446Z" transform="translate(-159.358 -160.817)" opacity="0.3" fill="url(#co)" style="mix-blend-mode:multiply;isolation:isolate"/><path d="M366.643,286.6h-7.508l-.475-11.287h8.452Z" transform="translate(-241.652 -135.699)" fill="url(#cm)"/><path d="M363.8,315.183h-.218l.039-19.823H362.9l.045,19.823h-.224l-3.209.811h7.508Z" transform="translate(-242.027 -144.54)" fill="url(#cn)"/><path d="M360.03,276.481l.358,5.143h6.373l.24-5.244Z" transform="translate(-242.256 -136.171)" fill="#e1a300"/><path d="M360.74,287.631v.615h6.16l.017-.626Z" transform="translate(-242.569 -141.127)" fill="#fff7cc"/><path d="M360.74,289.661v.615h6.16l.017-.626Z" transform="translate(-242.569 -142.022)" fill="#fff7cc"/><path d="M366.518,278.352v-.621l-1,.011.039-.313h-.811l.045.319-.755.006H363.7l.039.319.2,1.548.034.246.252-.006,1.711-.034-.022.716-1.867.017V281l.766.006-.056.386h.811l-.045-.38.632.006.24.006.011-.235.067-1.213.011-.263h-.28l-1.722.006-.106-.989Z" transform="translate(-243.875 -136.634)" fill="#131f49"/><path d="M366.643,340.024l.47,4.26H358.66l.475-4.26h3.388l.045-7.446h-.224l-3.209-.307h7.508l-3.214.307h-.218l.039,7.446Z" transform="translate(-241.652 -160.817)" opacity="0.3" fill="url(#co)" style="mix-blend-mode:multiply;isolation:isolate"/><path d="M260.436,110.207h-.716V8h.716ZM277.626,8h-.716V110.207h.716Z" transform="translate(-147.626 -14.328)" fill="url(#cs)"/><path d="M367.382,191.667h-19.27l-.263-16.5h19.8Z" transform="translate(-236.885 -91.54)" fill="url(#ct)"/><rect width="16.223" height="0.419" transform="translate(112.631 85.866)" fill="#fff7cc"/><rect width="10.761" height="0.419" transform="translate(112.631 87.08)" fill="#fff7cc"/><rect width="7.826" height="0.419" transform="translate(112.631 89.517)" fill="#fff7cc"/><rect width="5.188" height="0.419" transform="translate(112.631 88.298)" fill="#fff7cc"/><rect width="3.645" height="0.419" transform="translate(119.68 88.298)" fill="#fff7cc"/><rect width="3.645" height="0.419" transform="translate(125.209 88.298)" fill="#fff7cc"/><rect width="16.273" height="4.886" transform="translate(112.86 93.039)" fill="#e1a300"/><path d="M650.436,110.207h-.716V8h.716ZM667.62,8H666.9V110.207h.716Z" transform="translate(-319.605 -14.328)" fill="url(#cu)"/><path d="M757.377,191.667H738.113l-.263-16.5h19.789Z" transform="translate(-408.865 -91.54)" fill="url(#cv)"/><rect width="16.223" height="0.419" transform="translate(330.651 85.866)" fill="#fff7cc"/><rect width="10.756" height="0.419" transform="translate(330.651 87.08)" fill="#fff7cc"/><rect width="7.826" height="0.419" transform="translate(330.651 89.517)" fill="#fff7cc"/><rect width="5.188" height="0.419" transform="translate(330.651 88.298)" fill="#fff7cc"/><rect width="3.645" height="0.419" transform="translate(337.7 88.298)" fill="#fff7cc"/><rect width="3.645" height="0.419" transform="translate(343.224 88.298)" fill="#fff7cc"/><rect width="16.273" height="4.886" transform="translate(330.875 93.039)" fill="#e1a300"/><path d="M151.806,110.207h-.716V8h.716ZM168.979,8h-.716V110.207h.716Z" transform="translate(-99.723 -14.328)" fill="url(#cw)"/><path d="M258.727,191.667h-19.27l-.257-16.5h19.79Z" transform="translate(-188.973 -91.54)" fill="url(#cv)"/><rect width="16.223" height="0.419" transform="translate(51.887 85.866)" fill="#fff7cc"/><rect width="10.761" height="0.419" transform="translate(51.887 87.08)" fill="#fff7cc"/><rect width="7.826" height="0.419" transform="translate(51.887 89.517)" fill="#fff7cc"/><rect width="5.188" height="0.419" transform="translate(51.887 88.298)" fill="#fff7cc"/><rect width="3.645" height="0.419" transform="translate(58.942 88.298)" fill="#fff7cc"/><rect width="3.645" height="0.419" transform="translate(64.465 88.298)" fill="#fff7cc"/><rect width="16.273" height="4.886" transform="translate(52.116 93.039)" fill="#e1a300"/><rect width="37.494" height="1.096" transform="translate(-45.205 21.467)" fill="#6d9494"/><rect width="37.494" height="2.08" transform="translate(-45.205 -8.436)" fill="#6d9494"/><path d="M69.554,10.35l36.124,30.176-.973.688L67.81,11.591Z" transform="translate(-113.395 -18.858)" fill="#6d9494"/><path d="M106.373,11.591l-36.9,29.623-.967-.688L104.629,10.35Z" transform="translate(-113.704 -18.858)" fill="#6d9494"/><path d="M70.135,12.327h-4.5L65.35,8.19h5.07Z" transform="translate(-112.31 -17.906)" fill="#6d9494"/><path d="M134.5,12.327H129.99L129.71,8.19h5.065Z" transform="translate(-140.691 -17.906)" fill="#6d9494"/><path d="M70.135,64.084h-4.5L65.35,60.92h5.07Z" transform="translate(-112.31 -41.158)" fill="#6d9494"/><path d="M134.5,64.084H129.99l-.279-3.164h5.065Z" transform="translate(-140.691 -41.158)" fill="#6d9494"/><rect width="1.487" height="28.091" transform="translate(-9.204 -7.647)" fill="#6d9494"/><rect width="1.487" height="29.466" transform="translate(-27.009 -7.647)" fill="#6d9494"/><rect width="1.487" height="28.091" transform="translate(-45.171 -7.647)" fill="#6d9494"/><rect width="37.494" height="1.096" transform="translate(-9.231 21.467)" fill="#6d9494"/><rect width="37.494" height="2.08" transform="translate(-9.231 -8.436)" fill="#6d9494"/><path d="M133.914,10.35l36.119,30.176-.967.688-36.9-29.623Z" transform="translate(-141.776 -18.858)" fill="#6d9494"/><path d="M170.723,11.591l-36.9,29.623-.967-.688L168.984,10.35Z" transform="translate(-142.08 -18.858)" fill="#6d9494"/><path d="M134.5,12.327H129.99L129.71,8.19h5.065Z" transform="translate(-140.691 -17.906)" fill="#6d9494"/><path d="M198.845,12.327h-4.5L194.06,8.19h5.07Z" transform="translate(-169.068 -17.906)" fill="#6d9494"/><path d="M134.5,64.084H129.99l-.279-3.164h5.065Z" transform="translate(-140.691 -41.158)" fill="#6d9494"/><path d="M198.845,64.084h-4.5l-.285-3.164h5.07Z" transform="translate(-169.068 -41.158)" fill="#6d9494"/><rect width="1.487" height="28.091" transform="translate(26.77 -7.647)" fill="#6d9494"/><rect width="1.487" height="29.466" transform="translate(8.97 -7.647)" fill="#6d9494"/><rect width="1.487" height="28.091" transform="translate(-9.192 -7.647)" fill="#6d9494"/><rect width="37.494" height="1.096" transform="translate(26.747 21.467)" fill="#6d9494"/><rect width="37.494" height="2.08" transform="translate(26.747 -8.436)" fill="#6d9494"/><path d="M198.264,10.35l36.119,30.176-.967.688-36.9-29.623Z" transform="translate(-170.153 -18.858)" fill="#6d9494"/><path d="M235.083,11.591l-36.9,29.623-.967-.688L233.339,10.35Z" transform="translate(-170.461 -18.858)" fill="#6d9494"/><path d="M198.845,12.327h-4.5L194.06,8.19h5.07Z" transform="translate(-169.068 -17.906)" fill="#6d9494"/><path d="M263.205,12.327H258.7l-.28-4.137h5.065Z" transform="translate(-197.449 -17.906)" fill="#6d9494"/><path d="M198.845,64.084h-4.5l-.285-3.164h5.07Z" transform="translate(-169.068 -41.158)" fill="#6d9494"/><path d="M263.205,64.084H258.7l-.28-3.164h5.065Z" transform="translate(-197.449 -41.158)" fill="#6d9494"/><rect width="1.487" height="28.091" transform="translate(62.743 -7.647)" fill="#6d9494"/><rect width="1.487" height="29.466" transform="translate(44.944 -7.647)" fill="#6d9494"/><rect width="1.487" height="28.091" transform="translate(26.781 -7.647)" fill="#6d9494"/><rect width="37.494" height="1.096" transform="translate(62.721 21.467)" fill="#6d9494"/><rect width="37.494" height="2.08" transform="translate(62.721 -8.436)" fill="#6d9494"/><path d="M262.619,10.35l36.124,30.176-.967.688-36.9-29.623Z" transform="translate(-198.534 -18.858)" fill="#6d9494"/><path d="M299.433,11.591l-36.9,29.623-.967-.688L297.694,10.35Z" transform="translate(-198.838 -18.858)" fill="#6d9494"/><path d="M263.205,12.327H258.7l-.28-4.137h5.065Z" transform="translate(-197.449 -17.906)" fill="#6d9494"/><path d="M327.555,12.327h-4.506L322.77,8.19h5.065Z" transform="translate(-225.826 -17.906)" fill="#6d9494"/><path d="M263.205,64.084H258.7l-.28-3.164h5.065Z" transform="translate(-197.449 -41.158)" fill="#6d9494"/><path d="M327.555,64.084h-4.506l-.279-3.164h5.065Z" transform="translate(-225.826 -41.158)" fill="#6d9494"/><rect width="1.487" height="28.091" transform="translate(98.722 -7.647)" fill="#6d9494"/><rect width="1.487" height="29.466" transform="translate(80.923 -7.647)" fill="#6d9494"/><rect width="1.487" height="28.091" transform="translate(62.76 -7.647)" fill="#6d9494"/><rect width="37.494" height="1.096" transform="translate(98.7 21.467)" fill="#6d9494"/><rect width="37.494" height="2.08" transform="translate(98.7 -8.436)" fill="#6d9494"/><path d="M326.974,10.35l36.119,30.176-.967.688-36.9-29.623Z" transform="translate(-226.91 -18.858)" fill="#6d9494"/><path d="M363.793,11.591l-36.9,29.623-.962-.688L362.049,10.35Z" transform="translate(-227.219 -18.858)" fill="#6d9494"/><path d="M327.555,12.327h-4.506L322.77,8.19h5.065Z" transform="translate(-225.826 -17.906)" fill="#6d9494"/><path d="M391.905,12.327h-4.5L387.12,8.19h5.07Z" transform="translate(-254.202 -17.906)" fill="#6d9494"/><path d="M327.555,64.084h-4.506l-.279-3.164h5.065Z" transform="translate(-225.826 -41.158)" fill="#6d9494"/><path d="M391.905,64.084h-4.5l-.285-3.164h5.07Z" transform="translate(-254.202 -41.158)" fill="#6d9494"/><rect width="1.487" height="28.091" transform="translate(134.696 -7.647)" fill="#6d9494"/><rect width="1.487" height="29.466" transform="translate(116.896 -7.647)" fill="#6d9494"/><rect width="1.487" height="28.091" transform="translate(98.733 -7.647)" fill="#6d9494"/><rect width="37.494" height="1.096" transform="translate(134.673 21.467)" fill="#6d9494"/><rect width="37.494" height="2.08" transform="translate(134.673 -8.436)" fill="#6d9494"/><path d="M391.324,10.35l36.124,30.176-.967.688-36.9-29.623Z" transform="translate(-255.287 -18.858)" fill="#6d9494"/><path d="M428.143,11.591l-36.9,29.623-.967-.688L426.4,10.35Z" transform="translate(-255.596 -18.858)" fill="#6d9494"/><path d="M391.905,12.327h-4.5L387.12,8.19h5.07Z" transform="translate(-254.202 -17.906)" fill="#6d9494"/><path d="M456.265,12.327h-4.506L451.48,8.19h5.065Z" transform="translate(-282.583 -17.906)" fill="#6d9494"/><path d="M391.905,64.084h-4.5l-.285-3.164h5.07Z" transform="translate(-254.202 -41.158)" fill="#6d9494"/><path d="M456.265,64.084h-4.506l-.279-3.164h5.065Z" transform="translate(-282.583 -41.158)" fill="#6d9494"/><rect width="1.487" height="28.091" transform="translate(170.674 -7.647)" fill="#6d9494"/><rect width="1.487" height="29.466" transform="translate(152.875 -7.647)" fill="#6d9494"/><rect width="1.487" height="28.091" transform="translate(134.712 -7.647)" fill="#6d9494"/><rect width="37.494" height="1.096" transform="translate(170.652 21.467)" fill="#6d9494"/><rect width="37.494" height="2.08" transform="translate(170.652 -8.436)" fill="#6d9494"/><path d="M455.684,10.35,491.8,40.526l-.967.688-36.9-29.623Z" transform="translate(-283.668 -18.858)" fill="#6d9494"/><path d="M492.5,11.591,455.6,41.214l-.967-.688L490.754,10.35Z" transform="translate(-283.972 -18.858)" fill="#6d9494"/><path d="M456.265,12.327h-4.506L451.48,8.19h5.065Z" transform="translate(-282.583 -17.906)" fill="#6d9494"/><path d="M520.615,12.327h-4.5L515.83,8.19h5.07Z" transform="translate(-310.96 -17.906)" fill="#6d9494"/><path d="M456.265,64.084h-4.506l-.279-3.164h5.065Z" transform="translate(-282.583 -41.158)" fill="#6d9494"/><path d="M520.615,64.084h-4.5l-.285-3.164h5.07Z" transform="translate(-310.96 -41.158)" fill="#6d9494"/><rect width="1.487" height="28.091" transform="translate(206.648 -7.647)" fill="#6d9494"/><rect width="1.487" height="29.466" transform="translate(188.848 -7.647)" fill="#6d9494"/><rect width="1.487" height="28.091" transform="translate(170.686 -7.647)" fill="#6d9494"/><rect width="37.494" height="1.096" transform="translate(206.625 21.467)" fill="#6d9494"/><rect width="37.494" height="2.08" transform="translate(206.625 -8.436)" fill="#6d9494"/><path d="M520.034,10.35l36.124,30.176-.967.688-36.9-29.623Z" transform="translate(-312.045 -18.858)" fill="#6d9494"/><path d="M556.853,11.591l-36.9,29.623-.967-.688L555.109,10.35Z" transform="translate(-312.353 -18.858)" fill="#6d9494"/><path d="M520.615,12.327h-4.5L515.83,8.19h5.07Z" transform="translate(-310.96 -17.906)" fill="#6d9494"/><path d="M584.975,12.327h-4.506L580.19,8.19h5.065Z" transform="translate(-339.341 -17.906)" fill="#6d9494"/><path d="M520.615,64.084h-4.5l-.285-3.164h5.07Z" transform="translate(-310.96 -41.158)" fill="#6d9494"/><path d="M584.975,64.084h-4.506l-.279-3.164h5.065Z" transform="translate(-339.341 -41.158)" fill="#6d9494"/><rect width="1.487" height="28.091" transform="translate(242.627 -7.647)" fill="#6d9494"/><rect width="1.487" height="29.466" transform="translate(224.822 -7.647)" fill="#6d9494"/><rect width="1.487" height="28.091" transform="translate(206.665 -7.647)" fill="#6d9494"/><rect width="37.494" height="1.096" transform="translate(242.599 21.467)" fill="#6d9494"/><rect width="37.494" height="2.08" transform="translate(242.599 -8.436)" fill="#6d9494"/><path d="M584.394,10.35l36.119,30.176-.967.688-36.9-29.623Z" transform="translate(-340.426 -18.858)" fill="#6d9494"/><path d="M621.2,11.591l-36.9,29.623-.967-.688L619.464,10.35Z" transform="translate(-340.73 -18.858)" fill="#6d9494"/><path d="M584.975,12.327h-4.506L580.19,8.19h5.065Z" transform="translate(-339.341 -17.906)" fill="#6d9494"/><path d="M649.325,12.327h-4.5L644.54,8.19h5.07Z" transform="translate(-367.718 -17.906)" fill="#6d9494"/><path d="M584.975,64.084h-4.506l-.279-3.164h5.065Z" transform="translate(-339.341 -41.158)" fill="#6d9494"/><path d="M649.325,64.084h-4.5l-.285-3.164h5.07Z" transform="translate(-367.718 -41.158)" fill="#6d9494"/><rect width="1.487" height="28.091" transform="translate(278.6 -7.647)" fill="#6d9494"/><rect width="1.487" height="29.466" transform="translate(260.801 -7.647)" fill="#6d9494"/><rect width="1.487" height="28.091" transform="translate(242.638 -7.647)" fill="#6d9494"/><rect width="37.494" height="1.096" transform="translate(278.578 21.467)" fill="#6d9494"/><rect width="37.494" height="2.08" transform="translate(278.578 -8.436)" fill="#6d9494"/><path d="M648.744,10.35l36.124,30.176-.973.688L647,11.591Z" transform="translate(-368.802 -18.858)" fill="#6d9494"/><path d="M685.563,11.591l-36.9,29.623-.967-.688L683.819,10.35Z" transform="translate(-369.111 -18.858)" fill="#6d9494"/><path d="M649.325,12.327h-4.5L644.54,8.19h5.07Z" transform="translate(-367.718 -17.906)" fill="#6d9494"/><path d="M713.685,12.327H709.18L708.9,8.19h5.065Z" transform="translate(-396.099 -17.906)" fill="#6d9494"/><path d="M649.325,64.084h-4.5l-.285-3.164h5.07Z" transform="translate(-367.718 -41.158)" fill="#6d9494"/><path d="M713.685,64.084H709.18l-.28-3.164h5.065Z" transform="translate(-396.099 -41.158)" fill="#6d9494"/><rect width="1.487" height="28.091" transform="translate(314.574 -7.647)" fill="#6d9494"/><rect width="1.487" height="29.466" transform="translate(296.774 -7.647)" fill="#6d9494"/><rect width="1.487" height="28.091" transform="translate(278.611 -7.647)" fill="#6d9494"/><rect width="37.494" height="1.096" transform="translate(314.551 21.467)" fill="#6d9494"/><rect width="37.494" height="2.08" transform="translate(314.551 -8.436)" fill="#6d9494"/><path d="M713.1,10.35l36.119,30.176-.967.688-36.9-29.623Z" transform="translate(-397.183 -18.858)" fill="#6d9494"/><path d="M749.913,11.591l-36.9,29.623-.967-.688L748.169,10.35Z" transform="translate(-397.488 -18.858)" fill="#6d9494"/><path d="M713.685,12.327H709.18L708.9,8.19h5.065Z" transform="translate(-396.099 -17.906)" fill="#6d9494"/><path d="M778.035,12.327h-4.506L773.25,8.19h5.07Z" transform="translate(-424.475 -17.906)" fill="#6d9494"/><path d="M713.685,64.084H709.18l-.28-3.164h5.065Z" transform="translate(-396.099 -41.158)" fill="#6d9494"/><path d="M778.035,64.084h-4.506l-.279-3.164h5.07Z" transform="translate(-424.475 -41.158)" fill="#6d9494"/><rect width="1.487" height="28.091" transform="translate(350.552 -7.647)" fill="#6d9494"/><rect width="1.487" height="29.466" transform="translate(332.753 -7.647)" fill="#6d9494"/><rect width="1.487" height="28.091" transform="translate(314.59 -7.647)" fill="#6d9494"/><rect width="37.494" height="1.096" transform="translate(350.53 21.467)" fill="#6d9494"/><rect width="37.494" height="2.08" transform="translate(350.53 -8.436)" fill="#6d9494"/><path d="M777.454,10.35l36.119,30.176-.967.688-36.9-29.623Z" transform="translate(-425.56 -18.858)" fill="#6d9494"/><path d="M814.268,11.591l-36.9,29.623-.967-.688L812.524,10.35Z" transform="translate(-425.864 -18.858)" fill="#6d9494"/><path d="M778.035,12.327h-4.506L773.25,8.19h5.07Z" transform="translate(-424.475 -17.906)" fill="#6d9494"/><path d="M842.385,12.327h-4.5L837.6,8.19h5.07Z" transform="translate(-452.852 -17.906)" fill="#6d9494"/><path d="M778.035,64.084h-4.506l-.279-3.164h5.07Z" transform="translate(-424.475 -41.158)" fill="#6d9494"/><path d="M842.385,64.084h-4.5L837.6,60.92h5.07Z" transform="translate(-452.852 -41.158)" fill="#6d9494"/><rect width="1.487" height="28.091" transform="translate(386.526 -7.647)" fill="#6d9494"/><rect width="1.487" height="29.466" transform="translate(368.726 -7.647)" fill="#6d9494"/><rect width="1.487" height="28.091" transform="translate(350.564 -7.647)" fill="#6d9494"/><rect width="37.494" height="1.096" transform="translate(386.504 21.467)" fill="#6d9494"/><rect width="37.494" height="2.08" transform="translate(386.504 -8.436)" fill="#6d9494"/><path d="M841.809,10.35l36.124,30.176-.967.688-36.9-29.623Z" transform="translate(-453.941 -18.858)" fill="#6d9494"/><path d="M878.623,11.591l-36.9,29.623-.967-.688L876.879,10.35Z" transform="translate(-454.245 -18.858)" fill="#6d9494"/><path d="M842.385,12.327h-4.5L837.6,8.19h5.07Z" transform="translate(-452.852 -17.906)" fill="#6d9494"/><path d="M906.745,12.327H902.24l-.28-4.137h5.065Z" transform="translate(-481.233 -17.906)" fill="#6d9494"/><path d="M842.385,64.084h-4.5L837.6,60.92h5.07Z" transform="translate(-452.852 -41.158)" fill="#6d9494"/><path d="M906.745,64.084H902.24l-.28-3.164h5.065Z" transform="translate(-481.233 -41.158)" fill="#6d9494"/><rect width="1.487" height="28.091" transform="translate(422.505 -7.647)" fill="#6d9494"/><rect width="1.487" height="29.466" transform="translate(404.705 -7.647)" fill="#6d9494"/><rect width="1.487" height="28.091" transform="translate(386.543 -7.647)" fill="#6d9494"/><rect width="37.494" height="1.096" transform="translate(422.482 21.467)" fill="#6d9494"/><rect width="37.494" height="2.08" transform="translate(422.482 -8.436)" fill="#6d9494"/><path d="M906.164,10.35l36.119,30.176-.967.688-36.9-29.623Z" transform="translate(-482.318 -18.858)" fill="#6d9494"/><path d="M942.978,11.591l-36.9,29.623-.967-.688L941.234,10.35Z" transform="translate(-482.622 -18.858)" fill="#6d9494"/><path d="M906.745,12.327H902.24l-.28-4.137h5.065Z" transform="translate(-481.233 -17.906)" fill="#6d9494"/><path d="M971.1,12.327h-4.5L966.31,8.19h5.07Z" transform="translate(-509.609 -17.906)" fill="#6d9494"/><path d="M906.745,64.084H902.24l-.28-3.164h5.065Z" transform="translate(-481.233 -41.158)" fill="#6d9494"/><path d="M971.1,64.084h-4.5l-.285-3.164h5.07Z" transform="translate(-509.609 -41.158)" fill="#6d9494"/><rect width="1.487" height="28.091" transform="translate(458.478 -7.647)" fill="#6d9494"/><rect width="1.487" height="29.466" transform="translate(440.679 -7.647)" fill="#6d9494"/><rect width="1.487" height="28.091" transform="translate(422.516 -7.647)" fill="#6d9494"/><path d="M246.8,61.957h-3.712L243.061,0h-.593l-.028,61.957H205.186L205.159,0h-.593l-.028,61.957h-3.712l-2.236,3.662h50.447Z" transform="translate(-171.065 -14.294)" fill="#6d9494"/><path d="M246.411,120.186H201.627l-2.817-2.806h50.419Z" transform="translate(-171.162 -66.056)" fill="#fffbe3"/><path d="M427.585,61.957h-3.712L423.845,0h-.587l-.034,61.957H385.971L385.943,0h-.593l-.028,61.957h-3.712l-2.23,3.662h50.441Z" transform="translate(-250.789 -14.294)" fill="#6d9494"/><path d="M427.2,120.186H382.412L379.6,117.38h50.413Z" transform="translate(-250.886 -66.056)" fill="#fffbe3"/><path d="M608.365,61.957h-3.712L604.625,0h-.587l-.028,61.957H566.751L566.723,0h-.593L566.1,61.957h-3.712l-2.231,3.662H610.6Z" transform="translate(-330.508 -14.294)" fill="#6d9494"/><path d="M607.976,120.186H563.192l-2.812-2.806h50.413Z" transform="translate(-330.605 -66.056)" fill="#fffbe3"/><path d="M789.145,61.957h-3.712L785.4,0h-.587l-.028,61.957H747.531L747.5,0h-.593l-.028,61.957H743.17l-2.231,3.662h50.441Z" transform="translate(-410.227 -14.294)" fill="#6d9494"/><path d="M788.755,120.186H743.972l-2.812-2.806h50.413Z" transform="translate(-410.324 -66.056)" fill="#fffbe3"/><ellipse cx="24.608" cy="12.76" rx="24.608" ry="12.76" transform="translate(142.077 125.117) rotate(22)" fill="#feffd8" opacity="0.54"/><ellipse cx="24.608" cy="12.76" rx="24.608" ry="12.76" transform="translate(68.252 125.117) rotate(22)" fill="#feffd8" opacity="0.54"/></g></g></g></svg>