<svg xmlns="http://www.w3.org/2000/svg" xmlns:xlink="http://www.w3.org/1999/xlink" width="312.713" height="194.126" viewBox="0 0 312.713 194.126"><defs><clipPath id="a"><path d="M1004.8,510.886c38.046-.97,93.473-24.884,102.255-78s-34.5-74.652-68.376-72.77-56.669,35.965-81.971,44.125-55.623,14.637-59.176,44.125S930.985,512.768,1004.8,510.886Z" transform="translate(-897.299 -360.005)" fill="#fcf1db"/></clipPath><clipPath id="b"><ellipse cx="156.356" cy="14.056" rx="156.356" ry="14.056" fill="#fcc6cb"/></clipPath><clipPath id="c"><path d="M947.19,1877.135s.122-50.944-12.378-54.086,1.961,33.747,4.412,40.731,5.637,15.441,5.637,15.441Z" transform="translate(-929.788 -1822.859)" fill="#ffa000"/></clipPath><clipPath id="d"><path d="M1136.82,2295.833a84.536,84.536,0,0,0,2.549-12.8c.827-7.031,4.641-4.825,4.228-1.426S1136.82,2295.833,1136.82,2295.833Z" transform="translate(-1136.82 -2278.405)" fill="#aa510e"/></clipPath><clipPath id="e"><path d="M831.347,2140.9c.951,1.421-5.331-18.643-10.11-27.106s-12.041-7.438-12.776-1.655S824.089,2130.058,831.347,2140.9Z" transform="translate(-808.438 -2107.626)" fill="#ffa000"/></clipPath><clipPath id="f"><path d="M904.207,2424.463s-6.985-10.416-13.143-9.375S895.843,2421.676,904.207,2424.463Z" transform="translate(-889.262 -2415.016)" fill="#aa510e"/></clipPath><clipPath id="g"><rect width="73.468" height="135.434" rx="36.734" fill="#065484"/></clipPath><clipPath id="h"><rect width="73.468" height="135.434" rx="36.734" fill="#fff7e9"/></clipPath><clipPath id="i"><rect width="24.57" height="7.319" rx="3.659" fill="#fff"/></clipPath><clipPath id="k"><path d="M1605.242,1895.08h-41.883a4.879,4.879,0,0,0-4.878,4.957l.538,33.487a4.879,4.879,0,0,1-4.879,4.958h-5.218a4.879,4.879,0,0,0-4.879,4.88v7.934a7.633,7.633,0,0,1-7.633,7.633H1590.6a4.88,4.88,0,0,0,4.88-4.88v-10.687a4.879,4.879,0,0,1,4.88-4.88,4.879,4.879,0,0,0,4.878-4.878v-30.892a7.632,7.632,0,0,1,7.633-7.632Z" transform="translate(-1536.41 -1895.08)" fill="#bbe2f9"/></clipPath><clipPath id="l"><rect width="40.359" height="30.112" rx="15.056" fill="#ffacb3"/></clipPath><clipPath id="m"><rect width="12.895" height="7.528" rx="3.764" fill="#f2680a"/></clipPath><clipPath id="n"><path d="M3247.36,1872.114l.906-.523,31.889-24.551v52.153l-32.76.482-.035-1.388Z" transform="translate(-3247.36 -1847.04)" fill="#d6313f"/></clipPath><clipPath id="o"><path d="M2828.084,1903.822H2775.7l11.449-18.872h52.385Z" transform="translate(-2775.7 -1884.95)" fill="#d6313f"/></clipPath><clipPath id="p"><path d="M2546.174,2189.427l-60.364-.1v-27.6l60.364.1Z" transform="translate(-2485.81 -2161.72)" fill="#ffacb3"/></clipPath><clipPath id="q"><circle cx="6.282" cy="6.282" r="6.282" fill="#f77f26"/></clipPath><clipPath id="r"><circle cx="5.495" cy="5.495" r="5.495" transform="translate(0 7.772) rotate(-45)" fill="#f77f26"/></clipPath><clipPath id="s"><path d="M1263.24,771.387l-.65-.187s-3.693,1.306-6.034-3.056-.19-7.54,1.856-8.042,3.181,1.679,3.181,1.679.627-2.4,2.535-2.63a2.259,2.259,0,0,1,2.388,1.762s.317-2.231,2.247-2.319a1.806,1.806,0,0,1,2.007,1.717s2.1-1.241,6.286.133,6.116,7.175,4.427,12.407-5.124,6.892-7.032,6.929Z" transform="translate(-1255.537 -758.591)" fill="#e03838"/></clipPath><clipPath id="t"><path d="M1344.57,898.138s2.274,7.712,3.01,9.585,3.683,3.2,6.1,2.117,2.959-2.757,2.981-5.48a2.551,2.551,0,0,0,1.226-3.429c-.963-2.468-3.406-1.505-3.078.36l-.7-2.1a4.019,4.019,0,0,0-5.078-2.539Z" transform="translate(-1344.57 -896.45)" fill="#fe964f"/></clipPath><clipPath id="u"><path d="M1085.881,2436.16l-1.133,2.271a2.979,2.979,0,0,1-2.726,1.649l-4.108-.084a5.634,5.634,0,0,0-5.532,4.086h0a1.5,1.5,0,0,0,1.16,1.882l13.269,2.528a2.228,2.228,0,0,0,2.561-1.584l2.427-8.655Z" transform="translate(-1072.325 -2436.16)" fill="#ca3c30"/></clipPath><clipPath id="v"><path d="M1225.656,1125.5h0a4.056,4.056,0,0,0-5.672.852l-9.652,13.071-10.853-10.2a2.581,2.581,0,0,0-3.644.113l-2.021,2.15a2.579,2.579,0,0,0,.113,3.644l14.046,13.207a4.034,4.034,0,0,0,.5.437h0a4.055,4.055,0,0,0,5.672-.853l12.367-16.744a4.055,4.055,0,0,0-.856-5.672Z" transform="translate(-1193.115 -1124.71)" fill="#0963b5"/></clipPath><clipPath id="w"><ellipse cx="4.6" cy="5.697" rx="4.6" ry="5.697" transform="translate(0 6.282) rotate(-43.06)" fill="#fe964f"/></clipPath><clipPath id="x"><path d="M1380.274,1131.372c1.465-9.156,2.915-22.847,2.569-32.113l-.119-3.186a11.1,11.1,0,0,0-11.566-10.606h0a11.1,11.1,0,0,0-10.6,11.566v.006c.427,9.849-1.273,24.092-2.891,33.817h0a11.1,11.1,0,0,0,9.125,12.768h0a11.167,11.167,0,0,0,12.907-9.031Z" transform="translate(-1357.51 -1085.457)" fill="#6cb4f4"/></clipPath><clipPath id="y"><path d="M1336.985,1600.75l27.811,5.095s-11.933,18.117-19.142,16.758-9.924-12.86-9.924-12.86Z" transform="translate(-1335.73 -1600.75)" fill="#123266"/></clipPath><clipPath id="z"><path d="M1178.977,1182.324h0a4.056,4.056,0,0,0-5.672.852l-9.651,13.071-10.853-10.2a2.581,2.581,0,0,0-3.644.113l-2.026,2.146a2.581,2.581,0,0,0,.113,3.644l14.048,13.21a4.084,4.084,0,0,0,.5.437h0a4.055,4.055,0,0,0,5.672-.853L1179.829,1188A4.055,4.055,0,0,0,1178.977,1182.324Z" transform="translate(-1146.433 -1181.531)" fill="#0d7fd3"/></clipPath><clipPath id="ab"><path d="M1527.31,2163.849l2.07,1.47a2.977,2.977,0,0,1,1.208,2.948l-.713,4.045a5.635,5.635,0,0,0,3.184,6.1h0a1.5,1.5,0,0,0,2.038-.855l4.545-12.72a2.226,2.226,0,0,0-1.172-2.773l-8.177-3.733Z" transform="translate(-1527.31 -2158.33)" fill="#ca3c30"/></clipPath><clipPath id="ac"><path d="M1189.61,1749.323l-17.576-9.384,11.291-14.062a5.577,5.577,0,0,0-.857-7.843h0a5.576,5.576,0,0,0-7.843.857l-15.289,19.044a5.907,5.907,0,0,0,1.6,8.72l22.99,12.274a3.939,3.939,0,0,0,5.329-1.619l1.771-3.317A3.453,3.453,0,0,0,1189.61,1749.323Z" transform="translate(-1158.071 -1716.805)" fill="#123266"/></clipPath><clipPath id="ad"><path d="M2533.715,2112.6h-7.843a2.114,2.114,0,0,1-2.113-2.114h0a2.113,2.113,0,0,1,2.113-2.113h7.843a2.113,2.113,0,0,1,2.113,2.109h0a2.114,2.114,0,0,1-2.113,2.117Z" transform="translate(-2523.76 -2108.37)" fill="#fff"/></clipPath><clipPath id="ae"><path d="M2707.39,2112.6h-7.847a2.114,2.114,0,0,1-2.113-2.114h0a2.113,2.113,0,0,1,2.113-2.113h7.847a2.113,2.113,0,0,1,2.113,2.113h0A2.114,2.114,0,0,1,2707.39,2112.6Z" transform="translate(-2697.43 -2108.37)" fill="#fff"/></clipPath><clipPath id="af"><path d="M2881.156,2112.6h-7.843a2.114,2.114,0,0,1-2.113-2.114h0a2.113,2.113,0,0,1,2.113-2.113h7.843a2.114,2.114,0,0,1,2.114,2.113h0A2.115,2.115,0,0,1,2881.156,2112.6Z" transform="translate(-2871.2 -2108.37)" fill="#fff"/></clipPath><clipPath id="ag"><path d="M3054.83,2112.6h-7.847a2.114,2.114,0,0,1-2.113-2.114h0a2.113,2.113,0,0,1,2.113-2.113h7.847a2.113,2.113,0,0,1,2.113,2.113h0A2.114,2.114,0,0,1,3054.83,2112.6Z" transform="translate(-3044.87 -2108.37)" fill="#fff"/></clipPath><clipPath id="ah"><path d="M2987.124,1191.711v-9.517a5.994,5.994,0,1,0-11.989,0v9.517a6,6,0,0,0-3.695,5.536h0a6,6,0,0,0,6,5.995h7.388a5.994,5.994,0,0,0,5.994-5.995h0a6,6,0,0,0-3.694-5.537Z" transform="translate(-2971.44 -1176.2)" fill="#562739"/></clipPath><clipPath id="ai"><circle cx="9.974" cy="9.974" r="9.974" fill="#764153"/></clipPath><clipPath id="aj"><path d="M3299.547,1484l-11.159,12.7-12.766-11.22-4.142,4.712,12.766,11.22-.023.026.936.822a5.029,5.029,0,0,0,7.1-.457l12-13.657Z" transform="translate(-3271.48 -1484)" fill="#d61e1e"/></clipPath><clipPath id="ak"><path d="M3320.658,2331.9l-6.349,6.456-1.78,2.687,17,11.259,1.865-2.815a4.284,4.284,0,0,0-1.2-5.941l-5.42-3.59,2.156-3.254Z" transform="translate(-3312.53 -2331.9)" fill="#ffaa71"/></clipPath><clipPath id="al"><path d="M3573.255,2450.73l-1.726,8.887v3.223h20.388v-3.375a4.284,4.284,0,0,0-4.284-4.284h-6.509v-3.9Z" transform="translate(-3571.53 -2450.73)" fill="#ffaa71"/></clipPath><clipPath id="am"><path d="M3054.856,1395.161v6.157l-8.829,2.794,6.575,24.833s-7,10.14-6.575,17.616,7.367,9.514,13.435,9.2,28.805-5.018,28.805-5.018V1479.1s1.115,1.426,5.4,1.359,4.912-1.672,4.912-1.672v-31.419a8.7,8.7,0,0,0-8.7-8.7h-22.163l-.052-11.605.593-5.158s.348-.428.833-1.129a11.514,11.514,0,0,0,1.355-10.443l-2.466-6.848-7.894-2.038v-3.242S3057.673,1394.052,3054.856,1395.161Z" transform="translate(-3046.009 -1394.973)" fill="#ff5155"/></clipPath><clipPath id="an"><path d="M3114.636,1471.683l.026.021.034.03a4.011,4.011,0,0,0,2.623.829,4.516,4.516,0,0,0,2.3-.512,1.049,1.049,0,0,1,.724-.118l2.376.468a1.054,1.054,0,0,1,.842.894l.507,3.756a1.058,1.058,0,0,1-.219.8l-2.3,2.894a1.054,1.054,0,0,1-1.228.317l-6.209-2.558a1.058,1.058,0,0,1-.53-.481l-2.478-4.668a1.055,1.055,0,0,1,.732-1.531l1.914-.368A1.056,1.056,0,0,1,3114.636,1471.683Z" transform="translate(-3110.982 -1471.433)" fill="#ffaa71"/></clipPath><clipPath id="ao"><path d="M2979.183,1800.259l2.419,1.15s9.535,2.684,17.69-1.359c5.262,3.555,41.09,14.443,41.09,14.443l-.09,44.947-26.726,2.652-22.689-21.213s-15.317-7.267-16.363-7.843S2966.706,1810.3,2979.183,1800.259Z" transform="translate(-2971.749 -1800.05)" fill="#3f76ae"/></clipPath><clipPath id="ap"><path d="M2863.392,1551.089l-6.379-2.083a.223.223,0,0,1-.143-.281l13.058-39.983a3.578,3.578,0,0,1,4.515-2.29h0a3.578,3.578,0,0,1,2.291,4.516l-13.058,39.983a.223.223,0,0,1-.284.139Z" transform="translate(-2856.859 -1506.273)" fill="#d61e1e"/></clipPath><clipPath id="aq"><path d="M3635.936,1441.966l-7.623.407h0c-.1-.01-.211-.015-.317-.015a3.658,3.658,0,1,0,1.655,6.92h0l.019-.01c.1-.05.192-.1.284-.163l6.711-3.848a1.714,1.714,0,0,0-.729-3.293Z" transform="translate(-3624.337 -1441.963)" fill="#ffaa71"/></clipPath><clipPath id="ar"><path d="M3160.511,1278.026v5.371c0,2.139-1.69,5.9-5.675,5.9-3.625,0-6.5-3.382-6.5-7.209,0,0-2.011-.022-2.121-1.79a1.792,1.792,0,0,1,2.541-1.812s6.94.4,8.135-4.067C3156.891,1274.423,3158.561,1278.136,3160.511,1278.026Z" transform="translate(-3146.213 -1274.42)" fill="#ffaa71"/></clipPath><clipPath id="as"><path d="M2783.3,2019.136a3.8,3.8,0,0,0-2.656.993h0l-6.3,4.319a1.339,1.339,0,0,0-.581,1.1h0a1.338,1.338,0,0,0,1.36,1.338l8.084-.135a3.81,3.81,0,1,0,.091-7.619Z" transform="translate(-2773.76 -2019.135)" fill="#ffaa71"/></clipPath></defs><g transform="translate(-82.374 -61.602)"><path d="M1083.595,373.682s-20.14-4.176-44.606,10.354-37.7,21.331-64.123,32.882-41.914,29.621-32.951,55.648" transform="translate(-816.866 -306.482)" fill="none" stroke="#fcbac0" stroke-linecap="round" stroke-linejoin="round" stroke-width="10"/><path d="M1004.8,510.886c38.046-.97,93.473-24.884,102.255-78s-34.5-74.652-68.376-72.77-56.669,35.965-81.971,44.125-55.623,14.637-59.176,44.125S930.985,512.768,1004.8,510.886Z" transform="translate(-778.137 -294.401)" fill="#ffdee1"/><g transform="translate(119.163 65.604)" clip-path="url(#a)"><g transform="translate(-14.841 -7.307)" opacity="0.56"><path d="M906.523,267.76c-.279,9.019,10.735,47.675-6.2,85.484S765.165,421.76,715.815,363.906l-5.855,35.886,92.566,60.725s86.463-.079,90.492-8.4,23.474-19.318,33.859-31.9,22.621-44.07,22.621-44.07,4.982-30.321,4.7-42.54,1.255-17.448-6.622-29.613S906.523,267.76,906.523,267.76Z" transform="translate(-709.96 -267.76)" fill="#fa9fa6"/></g></g><ellipse cx="135.287" cy="14.056" rx="135.287" ry="14.056" transform="translate(103.443 227.614)" fill="#fcc6cb"/><g transform="translate(82.374 227.614)" clip-path="url(#b)"><path d="M1151.389,2190.91s14.571,30.753-41.7,36.49-216.365,2.81-230.7-9.319l-2.18,13.242,229.271,18.959s99.666-15.335,102.677-16.729,8.264-11.989,7.513-13.522S1151.389,2190.91,1151.389,2190.91Z" transform="translate(-883.737 -2207.879)" fill="#fa9fa6"/><rect width="128.297" height="3.177" transform="translate(154.986 6.308)" fill="#fa9fa6"/><path d="M1651.4,2422.84l-5.071,21.343,65.457.14,21.882-19.39Z" transform="translate(-1571.124 -2421.436)" fill="#fa9fa6"/><ellipse cx="41.059" cy="3.696" rx="41.059" ry="3.696" transform="translate(8.865 9.779)" fill="#fa9fa6"/></g><path d="M947.19,1877.135s.122-50.944-12.378-54.086,1.961,33.747,4.412,40.731,5.637,15.441,5.637,15.441Z" transform="translate(-808.052 -1641.37)" fill="#ffa000"/><g transform="translate(121.736 181.489)" clip-path="url(#c)"><path d="M957.94,1766.76s11.747,47.852,14.7,62.476l9.719.871-12.19-61.156Z" transform="translate(-955.71 -1771.204)" fill="#ffc943"/></g><path d="M1136.82,2295.833a84.536,84.536,0,0,0,2.549-12.8c.827-7.031,4.641-4.825,4.228-1.426S1136.82,2295.833,1136.82,2295.833Z" transform="translate(-998.683 -2060.829)" fill="#aa510e"/><g transform="translate(138.137 217.576)" clip-path="url(#d)"><path d="M1144.985,2253.54a113.489,113.489,0,0,1-6.045,18.807h0l1.532.591,7.475-16.4Z" transform="translate(-1138.772 -2255.51)" fill="#e56a0e"/></g><path d="M1143.46,2381.979s2.682-10.324,6.281-10.585S1146.263,2379.865,1143.46,2381.979Z" transform="translate(-1004.797 -2146.446)" fill="#893f03"/><path d="M831.347,2140.9c.951,1.421-5.331-18.643-10.11-27.106s-12.041-7.438-12.776-1.655S824.089,2130.058,831.347,2140.9Z" transform="translate(-696.315 -1903.578)" fill="#ffa000"/><g transform="translate(112.123 204.047)" clip-path="url(#e)"><path d="M789.71,2062.683s8.151,4.5,14.982,17.21,10.074,16.7,10.074,16.7l-.569-8.046s-7.148-16.24-7.889-18.474-2.193-8.382-2.193-8.382-6.412-2.842-7.331-2.75S789.71,2062.683,789.71,2062.683Z" transform="translate(-791.194 -2062.799)" fill="#ffc943"/></g><path d="M904.207,2424.463s-6.985-10.416-13.143-9.375S895.843,2421.676,904.207,2424.463Z" transform="translate(-770.736 -2186.617)" fill="#aa510e"/><g transform="translate(118.526 228.398)" clip-path="url(#f)"><path d="M858.16,2394.3s3.707.368,9.189,3.523a62.094,62.094,0,0,1,8.217,5.453l1.659.2-6.353-7.367-7.9-4.1Z" transform="translate(-860.624 -2393.823)" fill="#e56a0e"/></g><rect width="83.226" height="145.75" rx="41.613" transform="translate(185.47 88.509)" fill="#065484"/><rect width="83.226" height="145.75" rx="40" transform="translate(178.5 88.509)" fill="#1075b2"/><rect width="73.468" height="135.434" rx="36.734" transform="translate(183.379 93.667)" fill="#065484"/><g transform="translate(183.379 93.667)" clip-path="url(#g)"><rect width="73.468" height="135.434" rx="36.734" transform="translate(2.443)" fill="#fff7e9"/><g transform="translate(2.443)" clip-path="url(#h)"><rect width="80.722" height="10.951" transform="translate(-4.818 -4.315)" fill="#fff"/><g transform="translate(6.929 10.131)" opacity="0.56"><rect width="56.948" height="46.035" rx="23.017" fill="#fcd6a9"/></g><g transform="translate(6.929 58.83)" opacity="0.56"><rect width="56.948" height="10.142" rx="5.071" fill="#fcd6a9"/></g><g transform="translate(6.929 71.619)" opacity="0.56"><rect width="56.948" height="3.702" rx="1.851" fill="#a0621f"/></g><g transform="translate(6.929 91.691)" opacity="0.56"><rect width="56.948" height="3.702" rx="1.851" fill="#a0621f"/></g></g></g><rect width="24.57" height="7.319" rx="3.659" transform="translate(196.912 154.066)" fill="#3f6ed8"/><rect width="24.57" height="7.319" rx="3.659" transform="translate(223.504 154.066)" fill="#3f6ed8"/><rect width="24.57" height="7.319" rx="3.659" transform="translate(195.739 153.255)" fill="#fff"/><g transform="translate(195.739 153.255)" clip-path="url(#i)"><path d="M1878.233,1460.07h0A4.933,4.933,0,0,1,1873.3,1465h-14.2v5.018h27.684v-9.951Z" transform="translate(-1859.484 -1460.576)" fill="#bbe2f9"/></g><rect width="24.57" height="7.319" rx="3.659" transform="translate(222.331 153.255)" fill="#fff"/><g transform="translate(222.331 153.255)" clip-path="url(#i)"><path d="M2213.9,1460.07h0a4.933,4.933,0,0,1-4.933,4.933h-14.2v5.018h27.685v-9.951Z" transform="translate(-2195.155 -1460.576)" fill="#bbe2f9"/></g><path d="M1633.424,1639.244l-1.324.36v2.219h54.926l14.6-12.268v-2.405Z" transform="translate(-1454.727 -1461.165)" fill="#f2680a"/><path d="M1687.043,1639.6H1632.1l18.071-12.454h51.459Z" transform="translate(-1454.727 -1461.165)" fill="#ffacb3"/><ellipse cx="5.158" cy="1.612" rx="5.158" ry="1.612" transform="translate(186.573 173.321)" fill="#fff"/><ellipse cx="5.158" cy="1.612" rx="5.158" ry="1.612" transform="translate(191.732 168.988)" fill="#fff" opacity="0.48"/><path d="M2199.231,1642.271l-9.1,8.079h-3.555l9.253-8.26Z" transform="translate(-1965.283 -1474.921)" fill="#fff" opacity="0.48"/><path d="M2280.771,1642.271l-9.1,8.079h-3.554l9.253-8.26Z" transform="translate(-2040.363 -1474.921)" fill="#fff" opacity="0.48"/><path d="M1605.242,1895.08h-41.883a4.879,4.879,0,0,0-4.878,4.957l.538,33.487a4.879,4.879,0,0,1-4.879,4.958h-5.218a4.879,4.879,0,0,0-4.879,4.88v7.934a7.633,7.633,0,0,1-7.633,7.633H1590.6a4.88,4.88,0,0,0,4.88-4.88v-10.687a4.879,4.879,0,0,1,4.88-4.88,4.879,4.879,0,0,0,4.878-4.878v-30.892a7.632,7.632,0,0,1,7.633-7.632Z" transform="translate(-1366.618 -1707.87)" fill="#bbe2f9"/><g transform="translate(169.792 187.21)" clip-path="url(#k)"><path d="M1556.492,1894.2h-41.883a4.879,4.879,0,0,0-4.878,4.957l.538,33.487a4.879,4.879,0,0,1-4.879,4.957h-5.218a4.879,4.879,0,0,0-4.879,4.88v7.934a7.633,7.633,0,0,1-7.633,7.633h54.194a4.88,4.88,0,0,0,4.88-4.88v-10.687a4.879,4.879,0,0,1,4.88-4.88,4.878,4.878,0,0,0,4.878-4.879v-30.891a7.632,7.632,0,0,1,7.633-7.632Z" transform="translate(-1491.521 -1894.27)" fill="#fff"/></g><path d="M1901.7,1983.122h-14.641a.941.941,0,0,1-.941-.941h0a.941.941,0,0,1,.941-.941H1901.7a.941.941,0,0,1,.941.941h0A.941.941,0,0,1,1901.7,1983.122Z" transform="translate(-1688.624 -1787.204)" fill="#096796"/><path d="M1920.522,2061.492h-33.461a.941.941,0,0,1-.941-.941h0a.941.941,0,0,1,.941-.941h33.458a.941.941,0,0,1,.941.941h0A.941.941,0,0,1,1920.522,2061.492Z" transform="translate(-1688.624 -1859.367)" fill="#329fd6"/><path d="M1920.522,2139.885h-33.461a.941.941,0,0,1-.941-.941h0a.94.94,0,0,1,.941-.943h33.458a.94.94,0,0,1,.941.94h0A.941.941,0,0,1,1920.522,2139.885Z" transform="translate(-1688.624 -1931.546)" fill="#329fd6"/><path d="M1920.522,2218.341h-33.461a.941.941,0,0,1-.941-.941h0a.94.94,0,0,1,.941-.94h33.458a.94.94,0,0,1,.941.94h0A.941.941,0,0,1,1920.522,2218.341Z" transform="translate(-1688.624 -2003.791)" fill="#329fd6"/><path d="M1904.489,2296.761h-17.428a.941.941,0,0,1-.941-.941h0a.94.94,0,0,1,.941-.94h17.428a.939.939,0,0,1,.94.94h0A.94.94,0,0,1,1904.489,2296.761Z" transform="translate(-1688.624 -2075.999)" fill="#096796"/><path d="M1920.522,2375.181h-33.461a.941.941,0,0,1-.941-.941h0a.94.94,0,0,1,.941-.94h33.458a.94.94,0,0,1,.941.94h0A.941.941,0,0,1,1920.522,2375.181Z" transform="translate(-1688.624 -2148.206)" fill="#329fd6"/><path d="M1720.609,2506.682h-17.428a.941.941,0,0,1-.941-.941h0a.941.941,0,0,1,.941-.941h17.428a.941.941,0,0,1,.941.941h0A.941.941,0,0,1,1720.609,2506.682Z" transform="translate(-1519.311 -2269.289)" fill="#096796"/><path d="M1736.668,2585.123h-33.457a.941.941,0,0,1-.941-.941h0a.941.941,0,0,1,.941-.941h33.457a.941.941,0,0,1,.941.941h0A.941.941,0,0,1,1736.668,2585.123Z" transform="translate(-1519.339 -2341.515)" fill="#329fd6"/><path d="M2052.07,959.4l22.863-6.692,2.231,7.249Z" transform="translate(-1841.428 -840.153)" fill="#4a9edd"/><rect width="22.027" height="14.987" transform="translate(208.691 105.447)" fill="#6cb4f4"/><rect width="40.359" height="30.112" rx="15.056" transform="translate(201.023 118.83)" fill="#ffacb3"/><g transform="translate(201.023 118.83)" clip-path="url(#l)"><path d="M1943.195,1000.76v22.746a4.674,4.674,0,0,1-4.674,4.674H1908.54v7.526h45.587V1000.76Z" transform="translate(-1910.292 -1003.227)" fill="#e28103"/></g><rect width="12.895" height="7.528" rx="3.764" transform="translate(229.984 130.261)" fill="#f2680a"/><g transform="translate(229.984 130.261)" clip-path="url(#m)"><path d="M2272.734,1168.39v3.768a2.59,2.59,0,0,0,2.59,2.591h5.692a2.59,2.59,0,0,0,2.59-2.591v-3.768h3.025v8.961H2271.2v-9.061Z" transform="translate(-2273.184 -1168.917)" fill="#c65509"/></g><circle cx="1.603" cy="1.603" r="1.603" transform="translate(230.716 132.423)" fill="#b24b06"/><circle cx="7.04" cy="7.04" r="7.04" transform="translate(211.561 133.468) rotate(-45)" fill="#ffdf5a"/><circle cx="4.844" cy="4.844" r="4.844" transform="translate(215.682 137.064) rotate(-76.72)" fill="#fff"/><path d="M1991.5,1070.62h-17.635a3.624,3.624,0,0,0-3.625,3.625v8.5" transform="translate(-1766.08 -948.722)" fill="none" stroke="#fff" stroke-linecap="round" stroke-linejoin="round" stroke-width="16" opacity="0.42"/><path d="M2167.42,1171.072c0,.046-.005.079-.005.109v1.412a.108.108,0,0,0,.1.127c.195.053.388.113.578.18a1.514,1.514,0,0,1,1.109,1.392,1.635,1.635,0,0,1-.888,1.634,2.1,2.1,0,0,1-.428.17c-.146.043-.3.063-.464.095v.467a2.421,2.421,0,0,1-.019.285c-.021.151-.084.206-.222.207a.205.205,0,0,1-.238-.2c-.016-.168-.013-.337-.017-.506v-.246c-.118-.023-.23-.04-.34-.066a1.946,1.946,0,0,1-1.227-.814,1.38,1.38,0,0,1-.246-.765.5.5,0,0,1,.411-.49.477.477,0,0,1,.569.317c.057.158.111.317.179.475a.891.891,0,0,0,.653.513v-1.7a.121.121,0,0,0-.1-.136c-.223-.073-.447-.146-.661-.238a1.427,1.427,0,0,1-.884-1.627,1.509,1.509,0,0,1,1.341-1.332c.1-.018.2-.031.3-.047v-.353a1.2,1.2,0,0,1,.018-.2.214.214,0,0,1,.225-.186.208.208,0,0,1,.238.184,2.681,2.681,0,0,1,.02.34v.192a5.1,5.1,0,0,1,.669.183,1.467,1.467,0,0,1,.927,1.134.468.468,0,0,1-.336.527.481.481,0,0,1-.589-.26c-.03-.066-.048-.139-.072-.208A.877.877,0,0,0,2167.42,1171.072Zm0,4.332a.89.89,0,0,0,.814-.792.859.859,0,0,0-.814-.89Zm-.509-4.341c-.491.119-.7.358-.686.775a.764.764,0,0,0,.686.693Z" transform="translate(-1945.513 -1039.815)" fill="#ffacb3"/><rect width="2.076" height="25.046" rx="1.038" transform="translate(264.111 107.377)" fill="#02174c"/><rect width="2.076" height="15.398" rx="1.038" transform="translate(264.111 142.135)" fill="#02174c"/><rect width="2.076" height="25.046" rx="1.038" transform="translate(265.025 107.377)" fill="#3794d3"/><rect width="2.076" height="15.398" rx="1.038" transform="translate(265.025 142.135)" fill="#3794d3"/><path d="M3247.36,1872.114l.906-.523,31.889-24.551v52.153l-32.76.482-.035-1.388Z" transform="translate(-2942.029 -1663.636)" fill="#d6313f"/><g transform="translate(305.331 183.404)" clip-path="url(#n)"><path d="M3210.73,1850.417h0a16.2,16.2,0,0,1,16.206,16.206v9.829l15.582,4.391,18.4-1.464-9.932-60.119s-16.855.292-17.106.564-22.419,22.34-22.419,22.34Z" transform="translate(-3213.632 -1821.46)" fill="#ac0b18"/></g><path d="M2759.13,1872.1h-61.27l15.161-25.065h61.269Z" transform="translate(-2436.06 -1663.636)" fill="#f29940"/><path d="M2828.084,1903.822H2775.7l11.449-18.872h52.385Z" transform="translate(-2507.733 -1698.542)" fill="#d6313f"/><g transform="translate(267.966 186.407)" clip-path="url(#o)"><path d="M2837.554,1915.912H2785.17l11.448-18.872H2849Z" transform="translate(-2784.42 -1896.082)" fill="#fcf1db"/></g><path d="M2546.174,2189.427l-60.364-.1v-27.6l60.364.1Z" transform="translate(-2240.808 -1953.387)" fill="#ffacb3"/><g transform="translate(245.002 208.333)" clip-path="url(#p)"><path d="M2453.7,2081.8v8.318a16.357,16.357,0,0,1-16.355,16.355H2396.51v14.707h74.544v-40.5Z" transform="translate(-2403.584 -2087.1)" fill="#f26571"/></g><circle cx="8.849" cy="8.849" r="8.849" transform="translate(279.621 101.519)" fill="#f77f26"/><circle cx="8.849" cy="8.849" r="8.849" transform="translate(279.088 101.232)" fill="#ffc44d"/><circle cx="6.282" cy="6.282" r="6.282" transform="translate(281.425 103.799)" fill="#f77f26"/><g transform="translate(281.425 103.799)" clip-path="url(#q)"><circle cx="6.282" cy="6.282" r="6.282" transform="translate(0.732)" fill="#ffe269"/></g><path d="M2994.165,864.362c0,.059-.007.1-.007.143v1.845a.141.141,0,0,0,.125.167q.383.1.757.238a1.977,1.977,0,0,1,1.448,1.822,2.141,2.141,0,0,1-1.161,2.139,2.739,2.739,0,0,1-.56.223c-.192.057-.4.079-.607.124v.61a3.125,3.125,0,0,1-.024.373c-.027.2-.11.269-.29.27a.273.273,0,0,1-.312-.265c-.021-.219-.019-.44-.023-.661v-.322c-.155-.029-.3-.052-.445-.086a2.546,2.546,0,0,1-1.6-1.066,1.793,1.793,0,0,1-.323-1,.66.66,0,0,1,.538-.64.623.623,0,0,1,.745.416c.074.208.144.417.234.619a1.163,1.163,0,0,0,.854.671v-2.22a.156.156,0,0,0-.133-.177,8.455,8.455,0,0,1-.865-.317,1.875,1.875,0,0,1-1.156-2.127,1.972,1.972,0,0,1,1.754-1.743c.128-.024.255-.04.4-.063v-.461a1.423,1.423,0,0,1,.024-.257.277.277,0,0,1,.293-.243.273.273,0,0,1,.308.238,3.558,3.558,0,0,1,.025.444v.25a6.677,6.677,0,0,1,.875.238,1.919,1.919,0,0,1,1.212,1.482.614.614,0,0,1-.44.69.627.627,0,0,1-.771-.341,2.863,2.863,0,0,1-.1-.271,1.145,1.145,0,0,0-.772-.742Zm0,5.664a1.164,1.164,0,0,0,1.065-1.03,1.124,1.124,0,0,0-1.065-1.164Zm-.666-5.677c-.643.158-.915.468-.9,1.013a1,1,0,0,0,.9.907Z" transform="translate(-2706.106 -756.972)" fill="#fff"/><circle cx="7.741" cy="7.741" r="7.741" transform="translate(257.312 69.449)" fill="#f77f26"/><circle cx="7.741" cy="7.741" r="7.741" transform="translate(256.846 69.198)" fill="#ffc44d"/><circle cx="5.495" cy="5.495" r="5.495" transform="translate(256.615 76.939) rotate(-45)" fill="#f77f26"/><g transform="translate(256.615 69.167)" clip-path="url(#r)"><circle cx="5.495" cy="5.495" r="5.495" transform="translate(1.791 11.854) rotate(-76.72)" fill="#ffe269"/></g><path d="M2703.608,453.1c0,.052-.006.088-.006.125v1.614a.122.122,0,0,0,.022.1.124.124,0,0,0,.087.049c.223.06.445.128.661.205a1.729,1.729,0,0,1,1.268,1.592,1.871,1.871,0,0,1-1.016,1.87,2.331,2.331,0,0,1-.49.195c-.167.05-.343.072-.531.109v.534a2.806,2.806,0,0,1-.021.326c-.024.172-.1.238-.254.238a.237.237,0,0,1-.273-.231c-.019-.192-.016-.386-.021-.579v-.282c-.135-.025-.263-.044-.389-.074a2.223,2.223,0,0,1-1.4-.932,1.573,1.573,0,0,1-.282-.871.577.577,0,0,1,.471-.56.541.541,0,0,1,.651.364c.066.181.127.365.205.542a1.018,1.018,0,0,0,.747.587v-1.947a.137.137,0,0,0-.116-.158c-.255-.083-.512-.166-.757-.274a1.638,1.638,0,0,1-1.012-1.861,1.721,1.721,0,0,1,1.535-1.523c.111-.021.224-.035.348-.055v-.4a1.287,1.287,0,0,1,.021-.225.244.244,0,0,1,.257-.213.239.239,0,0,1,.271.211,3.223,3.223,0,0,1,.022.388v.219a5.792,5.792,0,0,1,.766.209,1.68,1.68,0,0,1,1.061,1.3.538.538,0,0,1-.386.6.548.548,0,0,1-.674-.3c-.035-.075-.055-.158-.083-.238A1,1,0,0,0,2703.608,453.1Zm0,4.954a1.017,1.017,0,0,0,.931-.9.983.983,0,0,0-.931-1.019Zm-.585-4.965c-.562.136-.8.41-.785.886a.877.877,0,0,0,.785.792Z" transform="translate(-2438.914 -378.514)" fill="#fff"/><path d="M3257.2,877.725h0a.843.843,0,0,1-.843-.843v-7.229a.843.843,0,0,1,.843-.843h0a.843.843,0,0,1,.843.843v7.229A.843.843,0,0,1,3257.2,877.725Z" transform="translate(-2950.316 -762.899)" fill="#3d72b2"/><path d="M3226.75,915.283h0a.844.844,0,0,1,.843-.843h4.692a.843.843,0,0,1,.843.843h0a.843.843,0,0,1-.843.843h-4.692A.843.843,0,0,1,3226.75,915.283Z" transform="translate(-2923.052 -804.915)" fill="#3d72b2"/><path d="M3048.912,544.5h0a.843.843,0,0,1-.842-.843v-7.229a.842.842,0,0,1,.842-.843h0a.843.843,0,0,1,.843.843v7.229A.843.843,0,0,1,3048.912,544.5Z" transform="translate(-2758.527 -456.067)" fill="#3d72b2"/><path d="M3018.45,582.053h0a.843.843,0,0,1,.843-.843h4.692a.843.843,0,0,1,.846.843h0a.842.842,0,0,1-.843.842H3019.3a.842.842,0,0,1-.846-.842Z" transform="translate(-2731.253 -498.083)" fill="#3d72b2"/><rect width="1.149" height="6.077" rx="0.574" transform="translate(275.405 94.039)" fill="#275393"/><path d="M2849.42,750.634h0a.573.573,0,0,1,.574-.574h3.195a.574.574,0,0,1,.575.574h0a.575.575,0,0,1-.575.574h-3.2A.574.574,0,0,1,2849.42,750.634Z" transform="translate(-2575.614 -653.557)" fill="#275393"/><path d="M2430.895,474.6h0a.645.645,0,0,1-.645-.645v-5.531a.645.645,0,0,1,.645-.644h0a.644.644,0,0,1,.645.644v5.531a.644.644,0,0,1-.645.645Z" transform="translate(-2189.649 -393.638)" fill="#275393"/><path d="M2407.6,503.325h0a.645.645,0,0,1,.645-.645h3.589a.645.645,0,0,1,.645.645h0a.644.644,0,0,1-.645.645h-3.589a.644.644,0,0,1-.645-.645Z" transform="translate(-2168.794 -425.774)" fill="#275393"/><circle cx="2.13" cy="2.13" r="2.13" transform="matrix(0.85, -0.526, 0.526, 0.85, 160.577, 86.092)" fill="none" stroke="#ff8569" stroke-miterlimit="10" stroke-width="9"/><circle cx="1.373" cy="1.373" r="1.373" transform="translate(142.173 98.397) rotate(-83.97)" fill="#d61e1e" opacity="0.67"/><path d="M1394.646,692.939l-.89,1.4a.428.428,0,0,0,.412.655l2.033-.238a.429.429,0,0,0,.258-.726l-1.144-1.168a.428.428,0,0,0-.668.074Z" transform="translate(-1235.203 -600.775)" fill="#d61e1e" opacity="0.67"/><rect width="2.804" height="2.804" rx="1.402" transform="matrix(0.993, -0.115, 0.115, 0.993, 150.752, 88.119)" fill="none" stroke="#6cb4f4" stroke-miterlimit="10" stroke-width="9"/><rect width="3.044" height="3.044" rx="1.522" transform="translate(171.108 96.2) rotate(-64.32)" fill="#6cb4f4"/><path d="M1462.289,1010c-.005.07,1.286,5.1,1.286,5.1l-4.45,1.938-1.505-3.975Z" transform="translate(-1294.07 -892.905)" fill="#ce641d"/><path d="M1263.24,771.387l-.65-.187s-3.693,1.306-6.034-3.056-.19-7.54,1.856-8.042,3.181,1.679,3.181,1.679.627-2.4,2.535-2.63a2.259,2.259,0,0,1,2.388,1.762s.317-2.231,2.247-2.319a1.806,1.806,0,0,1,2.007,1.717s2.1-1.241,6.286.133,6.116,7.175,4.427,12.407-5.124,6.892-7.032,6.929Z" transform="translate(-1107.995 -661.411)" fill="#e03838"/><g transform="translate(147.542 97.179)" clip-path="url(#s)"><path d="M1284,738.9v1.394a9.441,9.441,0,0,1-7.3,9.194l-13.562,3.161,7.474,16.415,19.766-2.953s3.625-8.914,3.12-11.686-1.447-7.214-2.649-9.409S1284,738.9,1284,738.9Z" transform="translate(-1262.538 -740.46)" fill="#b51010"/><path d="M1273.075,789.5a2.06,2.06,0,0,1,2.274,2.535c-.226,1.254-2.5,3.8-3.278,2.838S1270.539,789.965,1273.075,789.5Z" transform="translate(-1270.078 -787.014)" fill="#ffd9c0" opacity="0.23"/><path d="M1348.551,777.38a1.263,1.263,0,0,1,1.4,1.553c-.139.767-1.534,2.332-2.011,1.743S1347,777.668,1348.551,777.38Z" transform="translate(-1340.197 -775.871)" fill="#ffd9c0" opacity="0.23"/><path d="M1408.948,765.153A1.133,1.133,0,0,1,1410,766.7c-.215.665-1.645,1.888-2,1.3S1407.53,765.219,1408.948,765.153Z" transform="translate(-1395.712 -764.632)" fill="#ffd9c0" opacity="0.23"/></g><path d="M1344.57,898.138s2.274,7.712,3.01,9.585,3.683,3.2,6.1,2.117,2.959-2.757,2.981-5.48a2.551,2.551,0,0,0,1.226-3.429c-.963-2.468-3.406-1.505-3.078.36l-.7-2.1a4.019,4.019,0,0,0-5.078-2.539Z" transform="translate(-1189.975 -788.35)" fill="#fe964f"/><g transform="translate(154.595 108.1)" clip-path="url(#t)"><g transform="translate(6.013 4.538)" opacity="0.54"><circle cx="2.008" cy="2.008" r="2.008" fill="#e54d1f"/></g><path d="M1331.633,865.469l4.951-1.4a3.311,3.311,0,0,1,3.575,1.238l2.351,3.225s1.21-2.869,3.079-1.626,0-.151,0-.151l-1.79-3.136-9.916-4.183-2.945,3.974Z" transform="translate(-1332.02 -862.372)" fill="#ce641d"/></g><path d="M1085.881,2436.16l-1.133,2.271a2.979,2.979,0,0,1-2.726,1.649l-4.108-.084a5.634,5.634,0,0,0-5.532,4.086h0a1.5,1.5,0,0,0,1.16,1.882l13.269,2.528a2.228,2.228,0,0,0,2.561-1.584l2.427-8.655Z" transform="translate(-939.297 -2206.086)" fill="#ca3c30"/><g transform="translate(133.028 230.073)" clip-path="url(#u)"><path d="M1077.177,2537.509l-18.985-3.549-.282,2.484,18.7,3.193Z" transform="translate(-1059.052 -2526.212)" fill="#e2524b"/><path d="M1209.776,2406.615a5.513,5.513,0,0,1-5.308,1.049c-3.457-.881-4.338-2.931-4.338-2.931l3.192-6.213,5.545,1.146,2.672,3.109Z" transform="translate(-1190.005 -2401.502)" fill="#fe964f"/><path d="M1181.438,2477l-.344,2.194a.354.354,0,0,1-.4.3h0a.354.354,0,0,1-.3-.391l.25-2.2a.355.355,0,0,1,.373-.317l.094.006a.354.354,0,0,1,.329.412Z" transform="translate(-1171.829 -2473.38)" fill="#fff"/><path d="M1157.459,2473.621l-.345,2.2a.354.354,0,0,1-.4.3h0a.354.354,0,0,1-.3-.391l.25-2.2a.355.355,0,0,1,.373-.317l.094.006a.355.355,0,0,1,.33.412Z" transform="translate(-1149.749 -2470.268)" fill="#fff"/></g><path d="M1217.515,1787.011l-3.057-1a4.076,4.076,0,0,1-2.609-5.139l16.114-49.36a5.577,5.577,0,0,1,7.031-3.57h0a5.576,5.576,0,0,1,3.57,7.031l-16.18,49.563A3.861,3.861,0,0,1,1217.515,1787.011Z" transform="translate(-1067.582 -1553.72)" fill="#082547"/><path d="M1225.656,1125.5h0a4.056,4.056,0,0,0-5.672.852l-9.652,13.071-10.853-10.2a2.581,2.581,0,0,0-3.644.113l-2.021,2.15a2.579,2.579,0,0,0,.113,3.644l14.046,13.207a4.034,4.034,0,0,0,.5.437h0a4.055,4.055,0,0,0,5.672-.853l12.367-16.744a4.055,4.055,0,0,0-.856-5.672Z" transform="translate(-1050.518 -998.528)" fill="#0963b5"/><g transform="translate(142.597 126.183)" clip-path="url(#v)"><path d="M1171.774,1144.688l14.084,13.692a4.774,4.774,0,0,0,7.087-.482l13.158-16.818,2.4,2.324-15.966,23.42h-5.224l-17.007-18.189Z" transform="translate(-1172.117 -1139.783)" fill="#06204f" opacity="0.31"/><path d="M1437.3,1171.3s.7,7.353,10.421,8.12l-1.778,2.472s-5.82,1.426-10.351-7.005Z" transform="translate(-1416.381 -1167.609)" fill="#fff"/><path d="M1407.828,1222.33s.7,7.354,10.42,8.121l-1.778,2.474s-5.82,1.426-10.351-7.005Z" transform="translate(-1389.246 -1214.597)" fill="#fff"/></g><ellipse cx="4.6" cy="5.697" rx="4.6" ry="5.697" transform="translate(133.817 127.265) rotate(-43.06)" fill="#fe964f"/><g transform="translate(133.817 120.983)" clip-path="url(#w)"><path d="M1134.055,1067.68s3.211,3.7,3.379,6.623-2.341,5.174-5.844,4.7l.261,2.931,7.843.659s3.377.608,3.241-4.371a25.382,25.382,0,0,0-1.2-7.737Z" transform="translate(-1127.684 -1066.999)" fill="#ce641d"/></g><path d="M1380.274,1131.372c1.465-9.156,2.915-22.847,2.569-32.113l-.119-3.186a11.1,11.1,0,0,0-11.566-10.606h0a11.1,11.1,0,0,0-10.6,11.566v.006c.427,9.849-1.273,24.092-2.891,33.817h0a11.1,11.1,0,0,0,9.125,12.768h0a11.167,11.167,0,0,0,12.907-9.031Z" transform="translate(-1201.891 -962.384)" fill="#6cb4f4"/><g transform="translate(155.62 123.073)" clip-path="url(#x)"><path d="M1501.759,1052.14l-.493,28.587a54.711,54.711,0,0,1-1.1,10l-4.966,24.289s16.851-.418,16.851-.976,4.461-58.636,4.461-59.5S1501.759,1052.14,1501.759,1052.14Z" transform="translate(-1484.292 -1054.779)" fill="#469bdb"/><path d="M1419.647,1501.815l3.16,1.584a1.01,1.01,0,0,1,.532,1.131l-.064.277a1.01,1.01,0,0,1-1.505.634l-3.1-1.858a1.009,1.009,0,0,1-.475-1.037h0a1.01,1.01,0,0,1,1.448-.732Z" transform="translate(-1413.377 -1468.733)" fill="#0d7fd3"/><path d="M1336.985,1600.75l27.811,5.095s-11.933,18.117-19.142,16.758-9.924-12.86-9.924-12.86Z" transform="translate(-1337.455 -1559.929)" fill="#123266"/><g transform="translate(-1.725 40.821)" clip-path="url(#y)"><path d="M1347.073,1625.21l-.406,2.182a9.755,9.755,0,0,1-11.189,7.835l-5.027-.837,4.461,7.526,12.932,3.941s6.273-1.534,6.831-3.834,2.126-15.892,2.126-15.892Z" transform="translate(-1330.868 -1623.272)" fill="#082547"/><path d="M1438.312,1607s-1.255,5.539,2.44,8.206l-6.622,8.8" transform="translate(-1426.335 -1606.505)" fill="none" stroke="#fff" stroke-linecap="round" stroke-linejoin="round" stroke-width="13" opacity="0.54"/></g></g><path d="M1355.081,960.112a.213.213,0,0,0-.413.029c-.238,1.347-.593,3.936,0,4.473a1.393,1.393,0,0,0,1.71,0,.212.212,0,0,0,.088-.246Z" transform="translate(-1198.975 -846.833)" fill="#f75726"/><path d="M1384.832,935.864h0a.856.856,0,0,1-.991-.7l-.092-.528a.856.856,0,0,1,.695-.991h0a.856.856,0,0,1,.991.7l.093.528A.857.857,0,0,1,1384.832,935.864Z" transform="translate(-1226.039 -822.59)" fill="#753205"/><path d="M1404.31,1014.686l2.857-.856a1.3,1.3,0,0,1-.86,1.832A1.453,1.453,0,0,1,1404.31,1014.686Z" transform="translate(-1244.983 -896.431)" fill="#fff"/><path d="M1178.977,1182.324h0a4.056,4.056,0,0,0-5.672.852l-9.651,13.071-10.853-10.2a2.581,2.581,0,0,0-3.644.113l-2.026,2.146a2.581,2.581,0,0,0,.113,3.644l14.048,13.21a4.084,4.084,0,0,0,.5.437h0a4.055,4.055,0,0,0,5.672-.853L1179.829,1188A4.055,4.055,0,0,0,1178.977,1182.324Z" transform="translate(-1007.534 -1050.847)" fill="#0d7fd3"/><g transform="translate(138.899 130.684)" clip-path="url(#z)"><path d="M1125.18,1201.517l14.089,13.692a4.773,4.773,0,0,0,7.086-.482l13.158-16.817,2.4,2.323-15.966,23.42h-5.224l-17.008-18.189Z" transform="translate(-1125.519 -1196.612)" fill="#083460" opacity="0.31"/><path d="M1390.668,1228.12s.7,7.354,10.421,8.121l-1.778,2.474s-5.82,1.426-10.351-7.005Z" transform="translate(-1369.748 -1224.429)" fill="#fff"/><path d="M1361.148,1279.15s.7,7.354,10.421,8.121l-1.778,2.475s-5.82,1.426-10.351-7.005Z" transform="translate(-1342.566 -1271.417)" fill="#fff"/></g><rect width="6.249" height="13.23" rx="3.124" transform="translate(133.495 123.861) rotate(-35.52)" fill="#065484"/><path d="M1105.167,1056.187l-3.844,2.744a.763.763,0,0,1-1.065-.178l-6.8-9.525a.764.764,0,0,1,.177-1.065l3.844-2.744a.764.764,0,0,1,1.065.177l6.8,9.526A.764.764,0,0,1,1105.167,1056.187Z" transform="translate(-958.626 -925.387)" fill="#1075b2"/><path d="M1116.855,1069.079l-2.652,1.893a.764.764,0,0,1-1.065-.178l-5.789-8.107a.764.764,0,0,1,.177-1.065l2.652-1.893a.764.764,0,0,1,1.065.177l5.789,8.11A.764.764,0,0,1,1116.855,1069.079Z" transform="translate(-971.416 -938.563)" fill="#fff"/><ellipse cx="4.6" cy="5.697" rx="4.6" ry="5.697" transform="translate(130.123 131.766) rotate(-43.06)" fill="#fe964f"/><g transform="translate(130.123 125.484)" clip-path="url(#w)"><path d="M1087.424,1124.5s3.211,3.7,3.379,6.623-2.342,5.174-5.844,4.7l.261,2.931,7.843.659s3.377.608,3.241-4.371a25.344,25.344,0,0,0-1.2-7.736Z" transform="translate(-1081.054 -1123.818)" fill="#ce641d"/></g><path d="M1527.31,2163.849l2.07,1.47a2.977,2.977,0,0,1,1.208,2.948l-.713,4.045a5.635,5.635,0,0,0,3.184,6.1h0a1.5,1.5,0,0,0,2.038-.855l4.545-12.72a2.226,2.226,0,0,0-1.172-2.773l-8.177-3.733Z" transform="translate(-1358.239 -1950.266)" fill="#ca3c30"/><g transform="translate(169.071 208.064)" clip-path="url(#ab)"><path d="M1602.287,2193.03l-6.437,18.21,2.412.662,6.04-17.984Z" transform="translate(-1590.42 -2190.281)" fill="#e2524b"/><path d="M1498.673,2133.325a5.508,5.508,0,0,1,.218,5.4c-1.4,3.276-3.565,3.833-3.565,3.833l-5.646-4.112,1.986-5.3,3.486-2.161Z" transform="translate(-1492.661 -2133.156)" fill="#fe964f"/><path d="M1559.131,2284.072l2.115.679a.354.354,0,0,1,.23.444h0a.353.353,0,0,1-.432.238l-2.139-.587a.354.354,0,0,1-.252-.417l.02-.092a.354.354,0,0,1,.458-.265Z" transform="translate(-1556.162 -2274.094)" fill="#fff"/><path d="M1552.082,2307.242l2.115.679a.354.354,0,0,1,.23.444h0a.353.353,0,0,1-.432.238l-2.139-.587a.354.354,0,0,1-.253-.418l.02-.092a.355.355,0,0,1,.458-.265Z" transform="translate(-1549.672 -2295.429)" fill="#fff"/></g><path d="M1189.61,1749.323l-17.576-9.384,11.291-14.062a5.577,5.577,0,0,0-.857-7.843h0a5.576,5.576,0,0,0-7.843.857l-15.289,19.044a5.907,5.907,0,0,0,1.6,8.72l22.99,12.274a3.939,3.939,0,0,0,5.329-1.619l1.771-3.317A3.453,3.453,0,0,0,1189.61,1749.323Z" transform="translate(-1018.25 -1543.717)" fill="#123266"/><g transform="translate(139.821 173.087)" clip-path="url(#ac)"><path d="M1304.044,1746.36l-15.289,19.023a3.53,3.53,0,0,0,1.183,5.374l22.841,11.328" transform="translate(-1277.686 -1744.019)" fill="none" stroke="#fff" stroke-linecap="round" stroke-linejoin="round" stroke-width="13" opacity="0.54"/></g><path d="M1461.237,1055.246l5.377-1.992a.378.378,0,0,1,.49.238l.666,2.026a.378.378,0,0,1-.238.475l-5.349,1.841a.377.377,0,0,1-.475-.225l-.695-1.876a.378.378,0,0,1,.223-.486Z" transform="translate(-1297.173 -932.71)" fill="#0d7fd3"/><path d="M2533.715,2112.6h-7.843a2.114,2.114,0,0,1-2.113-2.114h0a2.113,2.113,0,0,1,2.113-2.113h7.843a2.113,2.113,0,0,1,2.113,2.109h0a2.114,2.114,0,0,1-2.113,2.117Z" transform="translate(-2275.751 -1904.264)" fill="#fff"/><g transform="translate(248.008 204.106)" clip-path="url(#ad)"><rect width="14.377" height="4.091" transform="translate(-1.294 2.113)" fill="#bbe2f9"/></g><path d="M2707.39,2112.6h-7.847a2.114,2.114,0,0,1-2.113-2.114h0a2.113,2.113,0,0,1,2.113-2.113h7.847a2.113,2.113,0,0,1,2.113,2.113h0A2.114,2.114,0,0,1,2707.39,2112.6Z" transform="translate(-2435.664 -1904.264)" fill="#fff"/><g transform="translate(261.766 204.106)" clip-path="url(#ae)"><rect width="14.377" height="4.091" transform="translate(-1.128 1.947)" fill="#bbe2f9"/></g><path d="M2881.156,2112.6h-7.843a2.114,2.114,0,0,1-2.113-2.114h0a2.113,2.113,0,0,1,2.113-2.113h7.843a2.114,2.114,0,0,1,2.114,2.113h0A2.115,2.115,0,0,1,2881.156,2112.6Z" transform="translate(-2595.668 -1904.264)" fill="#fff"/><g transform="translate(275.532 204.106)" clip-path="url(#af)"><rect width="14.377" height="4.091" transform="translate(-1.176 2.181)" fill="#bbe2f9"/></g><path d="M3054.83,2112.6h-7.847a2.114,2.114,0,0,1-2.113-2.114h0a2.113,2.113,0,0,1,2.113-2.113h7.847a2.113,2.113,0,0,1,2.113,2.113h0A2.114,2.114,0,0,1,3054.83,2112.6Z" transform="translate(-2755.58 -1904.264)" fill="#fff"/><g transform="translate(289.29 204.106)" clip-path="url(#ag)"><rect width="14.377" height="4.091" transform="translate(-1.146 2.181)" fill="#bbe2f9"/></g><path d="M2987.124,1191.711v-9.517a5.994,5.994,0,1,0-11.989,0v9.517a6,6,0,0,0-3.695,5.536h0a6,6,0,0,0,6,5.995h7.388a5.994,5.994,0,0,0,5.994-5.995h0a6,6,0,0,0-3.694-5.537Z" transform="translate(-2687.967 -1045.938)" fill="#562739"/><g transform="translate(283.473 130.261)" clip-path="url(#ah)"><path d="M3043.482,1191.711v-9.517a5.994,5.994,0,1,0-11.989,0v9.517a6,6,0,0,0-3.694,5.536h0a5.994,5.994,0,0,0,5.995,5.995h7.388a5.994,5.994,0,0,0,5.994-5.995h0a6,6,0,0,0-3.695-5.537Z" transform="translate(-3023.335 -1176.2)" fill="#35111f"/><path d="M2993.354,1185s-4.984.837-4.984,5.3V1201s-4.357,1.179-3.555,5.158,3.974,4.252,3.974,4.252" transform="translate(-2983.665 -1184.303)" fill="none" stroke="#fff" stroke-linecap="round" stroke-linejoin="round" stroke-width="8" opacity="0.14"/></g><path d="M3090.659,1200.084h0a.927.927,0,0,0-.915.03,4.694,4.694,0,0,0-1.664,1.64,6.642,6.642,0,0,0-.688,2.228.921.921,0,0,0,.415.9l.04.025a.924.924,0,0,0,1.3-.31l1.884-3.229a.924.924,0,0,0-.371-1.283Z" transform="translate(-2794.726 -1067.833)" fill="#fff"/><circle cx="9.974" cy="9.974" r="9.974" transform="translate(293.35 129.887)" fill="#764153"/><g transform="translate(293.35 129.887)" clip-path="url(#ai)"><path d="M3105.053,1163a9.352,9.352,0,0,1,0,10.644c-3.734,5.857-10.978,3.924-10.978,3.924l-.326,6.049,7.5,3.089,10.949.668,4.757-13.521-.162-5.274-5.586-3.787Z" transform="translate(-3093.938 -1163.671)" fill="#562739"/><path d="M3119.39,1209.655c1.644-2.948,4.636-2.614,5.367-1.638s-.383,3.939-3.067,5.332S3118.379,1211.467,3119.39,1209.655Z" transform="translate(-3117.127 -1204.482)" fill="#fff" opacity="0.08"/></g><path d="M3299.547,1484l-11.159,12.7-12.766-11.22-4.142,4.712,12.766,11.22-.023.026.936.822a5.029,5.029,0,0,0,7.1-.457l12-13.657Z" transform="translate(-2964.239 -1329.355)" fill="#d61e1e"/><g transform="translate(307.241 154.645)" clip-path="url(#aj)"><path d="M3276.229,1502.949l14.152,11.681a3.131,3.131,0,0,0,4.313-.317l13.363-14.753,2.3,1.813L3295.9,1519.6l-9.9-.767-6.38-8.5-3.388-7.381" transform="translate(-3275.853 -1498.327)" fill="#af1212"/></g><path d="M3320.658,2331.9l-6.349,6.456-1.78,2.687,17,11.259,1.865-2.815a4.284,4.284,0,0,0-1.2-5.941l-5.42-3.59,2.156-3.254Z" transform="translate(-3002.036 -2110.086)" fill="#ffaa71"/><g transform="translate(310.493 221.814)" clip-path="url(#ak)"><path d="M3283.441,2380.32l9.465,6.27a2.709,2.709,0,0,0,3.755-.763h0l7.589,6.337-5.075,5.483-12.279-4.561-9.167-10.964Z" transform="translate(-3280.487 -2376.484)" fill="#fc3a3a"/><rect width="24.708" height="3.085" transform="translate(0.002 7.457) rotate(33.52)" fill="#3a4157"/><path d="M3373.819,2314.971c-3.237.657,8.092,6.907,8.092,6.907l2.442-4.444-8.443-4.674Z" transform="translate(-3368.428 -2314.276)" fill="#ef7929"/></g><path d="M3293.193,1908.27h26.918a8.671,8.671,0,0,1,7,13.8l-18.491,25.831s-5.42-.281-8.2-6.764l16.616-22.93h-25.3Z" transform="translate(-2982.885 -1720.015)" fill="#0a4b77"/><path d="M3573.255,2450.73l-1.726,8.887v3.223h20.388v-3.375a4.284,4.284,0,0,0-4.284-4.284h-6.509v-3.9Z" transform="translate(-3240.519 -2219.502)" fill="#ffaa71"/><g transform="translate(331.011 231.228)" clip-path="url(#al)"><path d="M3521.844,2495.669H3533.2a2.709,2.709,0,0,0,2.709-2.709h0l9.828,1.095-1.2,7.375-12.754,2.979-13.7-4.078Z" transform="translate(-3522.314 -2489.615)" fill="#fc3a3a"/><rect width="24.708" height="3.085" transform="translate(-0.94 10.717)" fill="#3a4157"/><path d="M3566.043,2433.374c-2.335,2.335,10.56,1.29,10.56,1.29l-.418-5.053-9.619.767Z" transform="translate(-3566.217 -2431.283)" fill="#ef7929"/></g><path d="M3054.856,1395.161v6.157l-8.829,2.794,6.575,24.833s-7,10.14-6.575,17.616,7.367,9.514,13.435,9.2,28.805-5.018,28.805-5.018V1479.1s1.115,1.426,5.4,1.359,4.912-1.672,4.912-1.672v-31.419a8.7,8.7,0,0,0-8.7-8.7h-22.163l-.052-11.605.593-5.158s.348-.428.833-1.129a11.514,11.514,0,0,0,1.355-10.443l-2.466-6.848-7.894-2.038v-3.242S3057.673,1394.052,3054.856,1395.161Z" transform="translate(-2756.629 -1247.381)" fill="#ff5155"/><g transform="translate(289.38 147.592)" clip-path="url(#am)"><path d="M3196.879,1487.07l2.289,9.737a3.8,3.8,0,0,1-.086,2.049l-.59,1.805a3.565,3.565,0,0,1-3.248,2.456l-6.965.274a.285.285,0,0,0-.041.565l6.849,1.292a1.076,1.076,0,0,1,.821,1.4l-1.767,5.308a1.076,1.076,0,0,0,.9,1.409l8.818.957a1.074,1.074,0,0,0,1.16-.81c.7-2.811,2.762-11.211,2.806-12.211.045-1.05-4.219-11.834-5.3-14.541a1.075,1.075,0,0,0-.9-.672l-3.608-.327a1.074,1.074,0,0,0-1.144,1.312Z" transform="translate(-3176.758 -1478.563)" fill="#e5232d"/><path d="M3138.408,1438.7l8.277.883-.6,3.253H3138.6l-.86-1.812Z" transform="translate(-3130.473 -1435.236)" fill="#145991"/><path d="M3141.245,1381.865s4.06,1.179,7.255.2l.04-3.531-7.72-2.59Z" transform="translate(-3133.309 -1377.448)" fill="#ef7929"/><path d="M3114.636,1471.683l.026.021.034.03a4.011,4.011,0,0,0,2.623.829,4.516,4.516,0,0,0,2.3-.512,1.049,1.049,0,0,1,.724-.118l2.376.468a1.054,1.054,0,0,1,.842.894l.507,3.756a1.058,1.058,0,0,1-.219.8l-2.3,2.894a1.054,1.054,0,0,1-1.228.317l-6.209-2.558a1.058,1.058,0,0,1-.53-.481l-2.478-4.668a1.055,1.055,0,0,1,.732-1.531l1.914-.368A1.056,1.056,0,0,1,3114.636,1471.683Z" transform="translate(-3105.835 -1465.376)" fill="#ffaa71"/><g transform="translate(5.147 6.057)" clip-path="url(#an)"><path d="M3152.555,1473.61l.655,4.508a2.392,2.392,0,0,1-.4,1.7l-1.017,1.475a2.391,2.391,0,0,1-2.642.936l-5.545-1.627.767,1.719s5.971,1.766,6.041,1.766,3.445-.836,3.445-.836l1.968-3.323-1.968-6.227Z" transform="translate(-3141.025 -1473.438)" fill="#ef7929"/></g><path d="M2979.183,1800.259l2.419,1.15s9.535,2.684,17.69-1.359c5.262,3.555,41.09,14.443,41.09,14.443l-.09,44.947-26.726,2.652-22.689-21.213s-15.317-7.267-16.363-7.843S2966.706,1810.3,2979.183,1800.259Z" transform="translate(-2977.632 -1767.96)" fill="#3f76ae"/><g transform="translate(-5.883 32.089)" clip-path="url(#ao)"><path d="M3083.433,1857.72s-8.545,14.149-3.334,18.883c4.59,4.17,28.746,0,36.625-1.492a2.08,2.08,0,0,1,2.468,2.06l-.244,31.45" transform="translate(-3069.965 -1853.151)" fill="none" stroke="#194f7c" stroke-linecap="round" stroke-linejoin="round" stroke-width="13" opacity="0.54"/><path d="M3178.469,1834.84s-4.856,13.268-2.25,15.635c2.3,2.085,27.568-.277,31.551-.746a4.468,4.468,0,0,1,4.776,4.572l-.122,32.227" transform="translate(-3159.314 -1832.084)" fill="none" stroke="#194f7c" stroke-linecap="round" stroke-linejoin="round" stroke-width="13" opacity="0.54"/><path d="M3271.8,1812l-1.167,12.387h26.477a7.084,7.084,0,0,1,7.083,7.084v33" transform="translate(-3246.953 -1811.053)" fill="none" stroke="#194f7c" stroke-linecap="round" stroke-linejoin="round" stroke-width="13" opacity="0.54"/><path d="M3024.333,1772.477s4.5,5.324,14.541,4.72,13.456-5.936,13.456-5.936l-2.376-2.931-23.682.471-1.942,3.673" transform="translate(-3020.165 -1770.843)" fill="#092f49"/></g><path d="M2991.169,1987.46s-.887,10.9,15.961,10.386a168.079,168.079,0,0,0,30.252-3.695v35.314l-5.932-3.457,1.786-28.169-33.7,8.7-10.6-13.366Z" transform="translate(-2993.451 -1940.524)" fill="#0a4b77" opacity="0.51"/></g><path d="M2863.392,1551.089l-6.379-2.083a.223.223,0,0,1-.143-.281l13.058-39.983a3.578,3.578,0,0,1,4.515-2.29h0a3.578,3.578,0,0,1,2.291,4.516l-13.058,39.983a.223.223,0,0,1-.284.139Z" transform="translate(-2582.463 -1349.864)" fill="#d61e1e"/><g transform="translate(274.396 156.409)" clip-path="url(#ap)"><path d="M2923.8,1494.55l-7.4,22.9-3.1-.271,2.578,1.952-6.9,20.178h5.019l12.525-42.018Z" transform="translate(-2904.842 -1495.479)" fill="#af1212"/></g><path d="M3635.936,1441.966l-7.623.407h0c-.1-.01-.211-.015-.317-.015a3.658,3.658,0,1,0,1.655,6.92h0l.019-.01c.1-.05.192-.1.284-.163l6.711-3.848a1.714,1.714,0,0,0-.729-3.293Z" transform="translate(-3289.143 -1290.648)" fill="#ffaa71"/><g transform="translate(335.194 151.315)" clip-path="url(#aq)"><path d="M3612.785,1452.05l-8.367,3.4a4.515,4.515,0,0,1-5.553-1.828l-.683-1.116-2.892,3.9,2.3,4.706s8.363-.349,8.537-.453,7.6-4.078,7.493-4.148S3612.785,1452.05,3612.785,1452.05Z" transform="translate(-3597.591 -1451.251)" fill="#ef7929"/></g><rect width="18.256" height="11.79" transform="translate(330.764 135.797)" fill="#135c91"/><rect width="18.256" height="11.79" transform="translate(330.315 135.461)" fill="#6cb4f4"/><path d="M3592.747,1330.368h-7.514a.5.5,0,0,1-.5-.5h0a.5.5,0,0,1,.5-.5h7.514a.5.5,0,0,1,.5.5h0a.5.5,0,0,1-.5.5Z" transform="translate(-3252.673 -1186.965)" fill="#e59b25"/><path d="M3590.243,1354.658h-5.01a.5.5,0,0,1-.5-.5h0a.5.5,0,0,1,.5-.5h5.01a.5.5,0,0,1,.5.5h0A.5.5,0,0,1,3590.243,1354.658Z" transform="translate(-3252.673 -1209.331)" fill="#fff"/><circle cx="0.886" cy="0.886" r="0.886" transform="translate(332.209 136.958)" fill="#fff"/><circle cx="0.886" cy="0.886" r="0.886" transform="translate(334.617 136.958)" fill="#fff"/><circle cx="0.886" cy="0.886" r="0.886" transform="translate(337.024 136.958)" fill="#fff"/><path d="M3160.511,1278.026v5.371c0,2.139-1.69,5.9-5.675,5.9-3.625,0-6.5-3.382-6.5-7.209,0,0-2.011-.022-2.121-1.79a1.792,1.792,0,0,1,2.541-1.812s6.94.4,8.135-4.067C3156.891,1274.423,3158.561,1278.136,3160.511,1278.026Z" transform="translate(-2848.896 -1136.378)" fill="#ffaa71"/><g transform="translate(297.318 138.042)" clip-path="url(#ar)"><path d="M3103.5,1265.657s-3.439-.064-4.485-3.157c0,0-1,3.089-8.388,3.041l-7.389-.047,14.916-5.994,5.647,3.95Z" transform="translate(-3088.228 -1260.682)" fill="#ef7929"/><g transform="translate(2.518 7.441)" opacity="0.56"><circle cx="1.778" cy="1.778" r="1.778" fill="#ef643a"/></g><g transform="translate(12.782 7.441)" opacity="0.56"><circle cx="1.778" cy="1.778" r="1.778" fill="#ef643a"/></g></g><path d="M3219.983,1344.749h0a.713.713,0,0,1-.713-.713v-.8a.713.713,0,0,1,.713-.713h0a.713.713,0,0,1,.713.713v.8A.713.713,0,0,1,3219.983,1344.749Z" transform="translate(-2916.164 -1199.083)" fill="#7f3705"/><path d="M3293.363,1344.749h0a.713.713,0,0,1-.713-.713v-.8a.713.713,0,0,1,.713-.713h0a.713.713,0,0,1,.713.713v.8A.713.713,0,0,1,3293.363,1344.749Z" transform="translate(-2983.732 -1199.083)" fill="#7f3705"/><path d="M3260.788,1357.24h0a.669.669,0,0,1-.668-.669v-2.184a.669.669,0,0,1,.668-.668h0a.669.669,0,0,1,.669.668v2.184A.669.669,0,0,1,3260.788,1357.24Z" transform="translate(-2953.779 -1209.396)" fill="#ef643a"/><path d="M3228.27,1408.64a1.773,1.773,0,1,0,3.547,0Z" transform="translate(-2924.452 -1259.965)" fill="#fff"/><path d="M3214.88,1325.832h-1.394a.3.3,0,0,1-.3-.3h0a.3.3,0,0,1,.3-.3h1.394a.3.3,0,0,1,.3.3h0a.3.3,0,0,1-.3.3Z" transform="translate(-2910.566 -1183.172)" fill="#7f3705"/><path d="M3290.8,1325.832h-1.394a.3.3,0,0,1-.3-.3h0a.3.3,0,0,1,.3-.3h1.394a.3.3,0,0,1,.3.3h0A.3.3,0,0,1,3290.8,1325.832Z" transform="translate(-2980.471 -1183.172)" fill="#7f3705"/><circle cx="0.825" cy="0.825" r="0.825" transform="translate(297.701 148.513) rotate(-45)" fill="#fff"/><path d="M3164.405,1369.675h0a.116.116,0,0,1-.115-.116v-3.032a.115.115,0,0,1,.115-.116h0a.116.116,0,0,1,.117.116v3.032A.117.117,0,0,1,3164.405,1369.675Z" transform="translate(-2865.54 -1221.08)" fill="#fff"/><path d="M2783.3,2019.136a3.8,3.8,0,0,0-2.656.993h0l-6.3,4.319a1.339,1.339,0,0,0-.581,1.1h0a1.338,1.338,0,0,0,1.36,1.338l8.084-.135a3.81,3.81,0,1,0,.091-7.619Z" transform="translate(-2505.947 -1822.098)" fill="#ffaa71"/><g transform="translate(267.813 197.037)" clip-path="url(#as)"><path d="M2764.412,2019.135v.265a6.357,6.357,0,0,1-6.357,6.357h-7.165v3.089h19.2c-.2,0,0-9.737,0-9.737Z" transform="translate(-2752.702 -2019.112)" fill="#ef7929"/></g><path d="M2954.5,2457.23a5.249,5.249,0,0,1,.936,4.595" transform="translate(-2672.369 -2225.488)" fill="none" stroke="#fff" stroke-linecap="round" stroke-linejoin="round" stroke-width="9"/><path d="M2994.413,2465.82a9.163,9.163,0,0,0-.4,3.913" transform="translate(-2708.71 -2233.397)" fill="none" stroke="#fff" stroke-linecap="round" stroke-linejoin="round" stroke-width="9"/><path d="M2931.83,2476.56a6.9,6.9,0,0,1,.662,3.345" transform="translate(-2651.495 -2243.286)" fill="none" stroke="#fff" stroke-linecap="round" stroke-linejoin="round" stroke-width="9"/><path d="M2398,2505.13a3.781,3.781,0,0,1,.675,3.311" transform="translate(-2159.954 -2269.593)" fill="none" stroke="#fff" stroke-linecap="round" stroke-linejoin="round" stroke-width="7"/><path d="M2426.718,2511.32a6.618,6.618,0,0,0-.286,2.82" transform="translate(-2186.101 -2275.293)" fill="none" stroke="#fff" stroke-linecap="round" stroke-linejoin="round" stroke-width="7"/><path d="M2381.61,2519.06a4.981,4.981,0,0,1,.475,2.411" transform="translate(-2144.863 -2282.419)" fill="none" stroke="#fff" stroke-linecap="round" stroke-linejoin="round" stroke-width="7"/><path d="M1413.61,2548a3.781,3.781,0,0,1,.675,3.31" transform="translate(-1253.546 -2309.067)" fill="none" stroke="#fff" stroke-linecap="round" stroke-linejoin="round" stroke-width="7"/><path d="M1442.381,2554.16a6.633,6.633,0,0,0-.286,2.82" transform="translate(-1279.741 -2314.739)" fill="none" stroke="#fff" stroke-linecap="round" stroke-linejoin="round" stroke-width="7"/><path d="M1397.27,2561.9a4.98,4.98,0,0,1,.475,2.411" transform="translate(-1238.5 -2321.866)" fill="none" stroke="#fff" stroke-linecap="round" stroke-linejoin="round" stroke-width="7"/><path d="M2661.2,2644.63a6.183,6.183,0,0,0-.475,3.2" transform="translate(-2401.801 -2398.042)" fill="none" stroke="#fff" stroke-linecap="round" stroke-linejoin="round" stroke-width="8"/><path d="M2622.75,2649.1a4.79,4.79,0,0,1,.955,2.852" transform="translate(-2366.9 -2402.158)" fill="none" stroke="#fff" stroke-linecap="round" stroke-linejoin="round" stroke-width="8"/><path d="M3328.628,2586.76a6.176,6.176,0,0,0-.476,3.2" transform="translate(-3016.354 -2344.756)" fill="none" stroke="#fff" stroke-linecap="round" stroke-linejoin="round" stroke-width="8"/><path d="M3290.15,2591.22a4.794,4.794,0,0,1,.955,2.852" transform="translate(-2981.43 -2348.863)" fill="none" stroke="#fff" stroke-linecap="round" stroke-linejoin="round" stroke-width="8"/></g></svg>