<svg xmlns="http://www.w3.org/2000/svg" xmlns:xlink="http://www.w3.org/1999/xlink" width="329.105" height="185.083" viewBox="0 0 329.105 185.083"><defs><clipPath id="a"><ellipse cx="161.012" cy="8.502" rx="161.012" ry="8.502" fill="none"/></clipPath><clipPath id="b"><path d="M378.139,135.8c-16.181,23.849-37.388,35.341-45.09,39.4-18.6,9.8-35.435,12.846-51.363,14.821-15.5,1.917-140.633,16.49-151.378-18.332-4.715-15.284,16.526-27.376,9.874-43.7-7.7-18.879-40.025-12.051-48.1-29.865-7.411-16.354,8.325-46.252,31.541-59.139,29.481-16.38,47.834,7.51,102.527,1.748C267.8,36.344,269.9,21.147,309.258,19.987c17.17-.511,67.807-2,85.861,29.144C414.392,82.359,382.787,128.948,378.139,135.8Z" transform="translate(-90.232 -19.804)" fill="none"/></clipPath></defs><g transform="translate(-13.87 -19.804)" style="isolation:isolate"><g transform="translate(13.87 187.883)"><g clip-path="url(#a)"><rect width="339.13" height="21.501" transform="translate(-3.544 0.151)" fill="#faa3aa"/><rect width="339.13" height="10.766" transform="translate(-3.544 0.151)" fill="#fcc6cb"/><g transform="translate(132.32 0.151)" opacity="0.26"><rect width="2.072" height="21.501" fill="#560a17"/></g><g transform="translate(18.45 0.141)" opacity="0.26"><rect width="2.072" height="21.509" fill="#f26571"/><rect width="2.072" height="21.509" transform="translate(230.544)" fill="#f26571"/></g><rect width="33.509" height="21.483" transform="translate(204.5 0.169)" fill="#fa9fa6" opacity="0.54" style="mix-blend-mode:lighten;isolation:isolate"/><rect width="47.418" height="21.509" transform="translate(259.473 0.141)" fill="#fa9fa6" opacity="0.54" style="mix-blend-mode:lighten;isolation:isolate"/><rect width="18.153" height="21.486" transform="translate(76.684 0.164)" fill="#fa9fa6" opacity="0.54" style="mix-blend-mode:lighten;isolation:isolate"/><rect width="10.245" height="21.496" transform="translate(-3.544 0.153)" fill="#fa9fa6" opacity="0.54" style="mix-blend-mode:lighten;isolation:isolate"/><rect width="34.375" height="21.496" transform="translate(28.165 0.153)" fill="#fa9fa6" opacity="0.54" style="mix-blend-mode:lighten;isolation:isolate"/><rect width="11.205" height="21.483" transform="translate(185.541 0.169)" fill="#fa9fa6" opacity="0.54" style="mix-blend-mode:lighten;isolation:isolate"/></g></g><g transform="translate(31.917 19.804)"><g clip-path="url(#b)"><rect width="339.13" height="175.263" transform="translate(-9.31 -5.061)" fill="#ac0b18"/><rect width="339.13" height="6.493" transform="translate(-9.31 -5.061)" fill="#838f96"/><rect width="339.13" height="6.493" transform="translate(-9.31 -5.061)" fill="#77838b"/><rect width="339.13" height="69.432" transform="translate(-9.31 100.771)" fill="#660812"/><rect width="339.13" height="26.062" transform="translate(-9.31 -5.061)" fill="#123551" opacity="0.27"/><rect width="339.13" height="10.876" transform="translate(-9.31 -5.061)" fill="#123551" opacity="0.27"/><rect width="12.202" height="175.281" transform="translate(22.385 -5.061)" fill="#123551" opacity="0.2"/><rect width="12.202" height="175.299" transform="translate(253.708 -5.061)" fill="#123551" opacity="0.2"/><path d="M58.3,82.6,48.06,72.36v4.073L58.3,86.678Z" transform="translate(-57.37 -58.93)" fill="#c8c4c3"/><rect width="21.465" height="175.263" transform="translate(0.935 -5.061)" fill="#a85667"/><rect width="14.75" height="175.263" transform="translate(4.293 -5.061)" fill="#ac0b18"/><rect width="21.465" height="175.281" transform="translate(232.245 -5.061)" fill="#6b1c30"/><rect width="14.75" height="175.281" transform="translate(235.603 -5.061)" fill="#ac0b18"/><rect width="339.13" transform="translate(-9.31 -5.061)" fill="#838f96"/><path d="M1077.33,28.805v4.073L1110.138.07h-4.073Z" transform="translate(-823.622 -5.113)" fill="#c8c4c3"/><rect width="21.46" height="8.607" transform="translate(0.937 -5.061)" fill="#123551" opacity="0.27"/><rect width="21.46" height="8.607" transform="translate(232.248 -5.061)" fill="#123551" opacity="0.27"/><g transform="translate(-9.31 25.374)" opacity="0.15"><path d="M377.416,187H358.348v25.978h-3.4V171.613h2.259v-4.62h-16.9a.342.342,0,0,0,.35-.33h0a.34.34,0,0,0-.35-.33h-.342v-8h.417a.342.342,0,0,0,.35-.33h0a.342.342,0,0,0-.35-.33h-.417v-9.764h.417a.342.342,0,0,0,.35-.33v-.013a.342.342,0,0,0-.35-.33h-.417v-7.193h.417a.342.342,0,0,0,.35-.33h0a.34.34,0,0,0-.35-.33H338.05v-.322a.307.307,0,0,0-.314-.3h-2.3a.307.307,0,0,0-.317.3v.322H322.072a.337.337,0,0,0-.348.33h0a.34.34,0,0,0,.348.33h.255v7.193h-.256a.34.34,0,0,0-.348.33v.013a.34.34,0,0,0,.348.33h.255v9.751h-.256a.34.34,0,0,0-.348.33h0a.34.34,0,0,0,.348.33h.255v8h-.34a.337.337,0,0,0-.35.33h0a.34.34,0,0,0,.35.33h-1.061a.34.34,0,0,0,.35-.33h0a.337.337,0,0,0-.35-.33h-.342v-7.991H321a.34.34,0,0,0,.35-.33h0a.34.34,0,0,0-.35-.33h-.417v-9.764H321a.34.34,0,0,0,.35-.33v-.013a.34.34,0,0,0-.35-.33h-.417v-7.193H321a.34.34,0,0,0,.35-.33h0a.337.337,0,0,0-.35-.33h-2.333v-.322a.307.307,0,0,0-.314-.3h-2.3a.309.309,0,0,0-.317.3v.322H302.7a.337.337,0,0,0-.35.33h0a.34.34,0,0,0,.35.33h.256v7.193H302.7a.34.34,0,0,0-.35.33v.013a.34.34,0,0,0,.35.33h.256v9.751H302.7a.34.34,0,0,0-.35.33h0a.34.34,0,0,0,.35.33h.256v8h-.342a.337.337,0,0,0-.35.33h0a.34.34,0,0,0,.35.33H297.3v-3.3h0v-1.513h0V143.049H275.208v20.637h0V143.049h-8.89V139.74h0v-1.5h0V119.1h-55.85V139.74h0V119.1H181.045v19.165h0v1.48h0v3.309h29.423v20.637h0V143.046H181.045v3.475H145.932V129.95H120.8v4.357h-67v37.309H95.075V182.78H88.293v13.842H75.061v18.841H72.094v-3.5h0v-1.6H63.186V177.672H53.8v42.419H95.075v12.777H53.8v25.963h0v5.111H98.7v-.215l5.249-3.066v3.3H238.764v-3.529h0v-1.6H223.687v-3.411l17.2-10.078v18.593H308.8v-.118h2.3v.1h81.826V187ZM98.348,174.94l13.375,7.837H98.348Zm24.514,68.229h-18.91v14.152L98.7,260.387v-1.569h.378V232.853h-.731V223.4l24.514,14.364Zm7.229-17.024h-7.229v8.3L98.356,220.084h31.735Zm0-43.367h-12.68L98.356,171.613h31.735Zm0-15.785Zm69.785,93.443h0v-1.6h0Zm5.992-34.291H133.362v-6.061h72.506Zm0-43.367H133.362V171.613h72.506ZM189.836,166.993Zm32.671,15.785H209.142V174.94Zm-9.342,43.367h-4.022v-2.734l4.676,2.734Zm10.518,25.942V231.93l17.2,10.078Zm17.2-13.421-17.2-10.068v-2.453h-4.188l-10.344-6.061h31.735Zm0-23.213h-5.553V200.121l5.553-3.253Zm-5.553-18.672v-6.5l5.553,3.253Zm5.553-6.585-5.553-3.253v-4.165H228.2l-19.055-11.164h31.735Zm29.024,68.635H244.155v-.041a3.553,3.553,0,0,0,.44.041Zm46.763-31.577h-16.4v16.1a3.2,3.2,0,0,0-1.735-.511H250.751a3.011,3.011,0,0,0-3.092,2.918,2.8,2.8,0,0,0,.256,1.175,2.906,2.906,0,0,0,.657.9c.033.031.072.054.107.084h-1.022a3.008,3.008,0,0,0-3.092,2.916,2.788,2.788,0,0,0,.256,1.175,2.916,2.916,0,0,0,.644.889c.036.033.079.059.118.092h-.989a3.121,3.121,0,0,0-.44.041V220.073h72.506Zm0-16.61H306.491v1.51h0v-1.51Zm-15.624-2.435V193.017h0Zm15.624-32.819H301.048v15.192h0V175.39h-21.67v21.976H270v-9.808h-18.79v9.8h-3.3v18.054h29.131v.049H244.155V171.613h72.506Zm3.273-.45.767.45h-.767Zm0,35.7Zm19.6,49.779h0v-1.6h0Zm-7.607-25.375h-6.526v-7.794h-5.466v-3.833L339.8,235.048Zm14.931,0h-1.375L319.94,220.084h26.916Zm-19.881-42.031V208h0Zm0-2.435V179.067h0Zm24.7,22.4h-4.819v2.486h-.095v-4.819h-3.506V201.8l8.433-4.932Zm-8.433-14.507v-9.864l8.433,4.932Zm8.433-8.264-8.433-4.932V175.39h-16.28v.345h0v-.345h-.59l-6.442-3.777h31.735Z" transform="translate(-53.8 -119.1)" fill="#021938"/></g><rect width="25.843" height="39.867" transform="translate(262.22 130.216)" fill="#6f605b"/><rect width="25.843" height="39.867" transform="translate(77.734 24.165)" fill="#6f605b"/><rect width="26.742" height="22.656" transform="translate(30.733 96.83)" fill="#6f605b"/><rect width="26.742" height="22.656" transform="translate(60.419 147.56)" fill="#6f605b"/><rect width="8.484" height="26.944" transform="translate(-9.31 37.594)" fill="#6f605b"/><rect width="35.096" height="3.825" transform="translate(-9.31 113.55)" fill="#53414b"/><rect width="36.981" height="1.75" transform="translate(-9.31 111.8)" fill="#fbd5a2"/><rect width="4.155" height="3.825" transform="translate(6.247 113.55)" fill="#fbd5a2"/><rect width="4.155" height="3.825" transform="translate(23.519 113.55)" fill="#fbd5a2"/><rect width="4.155" height="3.825" transform="translate(2.092 113.55)" fill="#e79361"/><rect width="4.155" height="3.825" transform="translate(19.364 113.55)" fill="#e79361"/><rect width="27.823" height="35.625" transform="translate(-9.31 76.178)" fill="#b37475"/><rect width="27.823" height="35.625" transform="translate(-9.31 76.178)" fill="#f9b589"/><rect width="6.023" height="6.503" transform="translate(1.681 76.178)" fill="#eadcbd"/><rect width="14.387" height="11.302" transform="translate(315.433 79.39)" fill="#b37475"/><rect width="14.387" height="11.302" transform="translate(315.433 91.372)" fill="#b37475"/><rect width="14.387" height="11.302" transform="translate(315.433 103.354)" fill="#b37475"/><rect width="14.387" height="0.68" transform="translate(315.433 90.692)" fill="#835353"/><rect width="14.387" height="0.68" transform="translate(315.433 102.674)" fill="#835353"/><rect width="0.611" height="35.269" transform="translate(327.321 79.39)" fill="#835353"/><rect width="0.611" height="35.269" transform="translate(320.917 79.39)" fill="#835353"/><rect width="19.702" height="55.536" transform="translate(310.118 114.656)" fill="#f9b589"/><rect width="15.151" height="46.314" transform="translate(314.669 119.269)" fill="#cb9392"/><rect width="0.961" height="46.311" transform="translate(314.672 119.269)" fill="#fbd5a2"/><path d="M1319.65,591h4.306l9.884-18.36v-8Z" transform="translate(-1004.02 -425.414)" fill="#fbd5a2"/><path d="M1320.2,585.8l10.845-20.147V557.66L1315.9,585.8Z" transform="translate(-1001.228 -420.217)" fill="#f9b589"/><rect width="3.363" height="105.655" transform="translate(51.296 64.54)" fill="#123551"/><rect width="3.363" height="105.655" transform="translate(165.187 64.54)" fill="#123551"/><rect width="3.363" height="105.655" transform="translate(279.078 64.54)" fill="#123551"/><rect width="291.441" height="5.037" transform="translate(-9.31 64.54)" fill="#9d5a3c"/><rect width="291.441" height="5.037" transform="translate(-9.31 117.365)" fill="#9d5a3c"/><rect width="3.363" height="105.655" transform="translate(87.291 64.54)" fill="#53414b"/><rect width="3.363" height="105.655" transform="translate(201.182 64.54)" fill="#53414b"/><rect width="3.363" height="105.655" transform="translate(315.073 64.54)" fill="#53414b"/><rect width="330.071" height="5.037" transform="translate(-9.31 64.54)" fill="#feedc5"/><rect width="330.071" height="5.037" transform="translate(-9.31 117.365)" fill="#feedc5"/><path d="M298.39,295.681l32.632,20.269v-3.631L298.39,292.05Z" transform="translate(-243.731 -222.481)" fill="#53414b"/><path d="M298.39,409.48l32.632-20.269V385.58L298.39,405.849Z" transform="translate(-243.731 -292.11)" fill="#53414b"/><path d="M298.39,502.411l32.632,20.269v-3.631L298.39,498.78Z" transform="translate(-243.731 -376.383)" fill="#53414b"/><path d="M298.39,616.21l32.632-20.269V592.31L298.39,612.579Z" transform="translate(-243.731 -446.013)" fill="#53414b"/><path d="M744.08,295.681l32.632,20.269v-3.631L744.08,292.05Z" transform="translate(-575.53 -222.481)" fill="#53414b"/><path d="M744.08,409.48l32.632-20.269V385.58L744.08,405.849Z" transform="translate(-575.53 -292.11)" fill="#53414b"/><path d="M744.08,502.411l32.632,20.269v-3.631L744.08,498.78Z" transform="translate(-575.53 -376.383)" fill="#53414b"/><path d="M744.08,616.21l32.632-20.269V592.31L744.08,612.579Z" transform="translate(-575.53 -446.013)" fill="#53414b"/><path d="M1189.78,295.681l32.63,20.269v-3.631l-32.63-20.269Z" transform="translate(-907.337 -222.481)" fill="#123551"/><path d="M1189.78,409.48l32.63-20.269V385.58l-32.63,20.269Z" transform="translate(-907.337 -292.11)" fill="#123551"/><path d="M1189.78,502.411l32.63,20.269v-3.631l-32.63-20.269Z" transform="translate(-907.337 -376.383)" fill="#123551"/><path d="M1189.78,616.21l32.63-20.269V592.31l-32.63,20.269Z" transform="translate(-907.337 -446.013)" fill="#123551"/><rect width="59.004" height="35.625" transform="translate(79.86 129.007)" fill="#b37475"/><rect width="29.97" height="35.625" transform="translate(108.895 129.007)" fill="#f9b589"/><rect width="6.023" height="6.503" transform="translate(122.029 129.007)" fill="#eadcbd"/><rect width="21.984" height="13.273" transform="translate(78.301 75.955)" fill="#b37475"/><rect width="11.164" height="13.273" transform="translate(89.118 75.955)" fill="#f9b589"/><rect width="2.244" height="2.423" transform="translate(94.012 75.955)" fill="#eadcbd"/><rect width="21.984" height="13.273" transform="translate(66.174 75.955)" fill="#b37475"/><rect width="11.164" height="13.273" transform="translate(76.991 75.955)" fill="#f9b589"/><rect width="2.244" height="2.423" transform="translate(81.884 75.955)" fill="#eadcbd"/><rect width="21.984" height="13.273" transform="translate(54.048 75.955)" fill="#b37475"/><rect width="11.164" height="13.273" transform="translate(64.865 75.955)" fill="#f9b589"/><rect width="2.244" height="2.423" transform="translate(69.759 75.955)" fill="#eadcbd"/><rect width="36.657" height="13.273" transform="translate(27.245 75.955)" fill="#b37475"/><rect width="11.164" height="13.273" transform="translate(52.737 75.955)" fill="#f9b589"/><rect width="2.244" height="2.423" transform="translate(57.631 75.955)" fill="#eadcbd"/><rect width="21.984" height="13.273" transform="translate(78.301 90.028)" fill="#b37475"/><rect width="11.164" height="13.273" transform="translate(89.118 90.028)" fill="#f9b589"/><rect width="2.244" height="2.423" transform="translate(94.012 90.028)" fill="#eadcbd"/><rect width="21.984" height="13.273" transform="translate(66.174 90.028)" fill="#b37475"/><rect width="11.164" height="13.273" transform="translate(76.991 90.028)" fill="#f9b589"/><rect width="2.244" height="2.423" transform="translate(81.884 90.028)" fill="#eadcbd"/><rect width="21.984" height="13.273" transform="translate(54.048 90.028)" fill="#b37475"/><rect width="11.164" height="13.273" transform="translate(64.865 90.028)" fill="#f9b589"/><rect width="2.244" height="2.423" transform="translate(69.759 90.028)" fill="#eadcbd"/><rect width="36.657" height="13.273" transform="translate(27.245 90.028)" fill="#b37475"/><rect width="11.164" height="13.273" transform="translate(52.737 90.028)" fill="#f9b589"/><rect width="2.244" height="2.423" transform="translate(57.631 90.028)" fill="#eadcbd"/><rect width="21.984" height="13.273" transform="translate(78.301 104.098)" fill="#b37475"/><rect width="11.164" height="13.273" transform="translate(89.118 104.098)" fill="#f9b589"/><rect width="2.244" height="2.423" transform="translate(94.012 104.098)" fill="#eadcbd"/><rect width="21.984" height="13.273" transform="translate(66.174 104.098)" fill="#b37475"/><rect width="11.164" height="13.273" transform="translate(76.991 104.098)" fill="#f9b589"/><rect width="2.244" height="2.423" transform="translate(81.884 104.098)" fill="#eadcbd"/><rect width="21.984" height="13.273" transform="translate(54.048 104.098)" fill="#b37475"/><rect width="11.164" height="13.273" transform="translate(64.865 104.098)" fill="#f9b589"/><rect width="2.244" height="2.423" transform="translate(69.759 104.098)" fill="#eadcbd"/><rect width="36.657" height="13.273" transform="translate(27.245 104.098)" fill="#b37475"/><rect width="11.164" height="13.273" transform="translate(52.737 104.098)" fill="#f9b589"/><rect width="2.244" height="2.423" transform="translate(57.631 104.098)" fill="#eadcbd"/><rect width="72.956" height="0.8" transform="translate(27.245 89.228)" fill="#835353"/><rect width="72.956" height="0.8" transform="translate(27.245 103.3)" fill="#835353"/><rect width="0.716" height="41.415" transform="translate(41.205 75.955)" fill="#835353"/><rect width="0.716" height="41.415" transform="translate(33.682 75.955)" fill="#835353"/><rect width="21.984" height="13.273" transform="translate(116.213 23.123)" fill="#b37475"/><rect width="11.164" height="13.273" transform="translate(127.03 23.123)" fill="#f9b589"/><rect width="2.244" height="2.423" transform="translate(131.924 23.123)" fill="#eadcbd"/><rect width="21.984" height="13.273" transform="translate(104.085 23.123)" fill="#b37475"/><rect width="11.164" height="13.273" transform="translate(114.902 23.123)" fill="#f9b589"/><rect width="2.244" height="2.423" transform="translate(119.796 23.123)" fill="#eadcbd"/><rect width="21.984" height="13.273" transform="translate(91.957 23.123)" fill="#b37475"/><rect width="11.164" height="13.273" transform="translate(102.774 23.123)" fill="#f9b589"/><rect width="2.244" height="2.423" transform="translate(107.668 23.123)" fill="#eadcbd"/><rect width="36.657" height="13.273" transform="translate(65.157 23.123)" fill="#b37475"/><rect width="11.164" height="13.273" transform="translate(90.649 23.123)" fill="#f9b589"/><rect width="2.244" height="2.423" transform="translate(95.543 23.123)" fill="#eadcbd"/><rect width="21.984" height="13.273" transform="translate(116.213 37.193)" fill="#b37475"/><rect width="11.164" height="13.273" transform="translate(127.03 37.193)" fill="#f9b589"/><rect width="2.244" height="2.423" transform="translate(131.924 37.193)" fill="#eadcbd"/><rect width="21.984" height="13.273" transform="translate(104.085 37.193)" fill="#b37475"/><rect width="11.164" height="13.273" transform="translate(114.902 37.193)" fill="#f9b589"/><rect width="2.244" height="2.423" transform="translate(119.796 37.193)" fill="#eadcbd"/><rect width="21.984" height="13.273" transform="translate(91.957 37.193)" fill="#b37475"/><rect width="11.164" height="13.273" transform="translate(102.774 37.193)" fill="#f9b589"/><rect width="2.244" height="2.423" transform="translate(107.668 37.193)" fill="#eadcbd"/><rect width="36.657" height="13.273" transform="translate(65.157 37.193)" fill="#b37475"/><rect width="11.164" height="13.273" transform="translate(90.649 37.193)" fill="#f9b589"/><rect width="2.244" height="2.423" transform="translate(95.543 37.193)" fill="#eadcbd"/><rect width="21.984" height="13.273" transform="translate(116.213 51.265)" fill="#b37475"/><rect width="11.164" height="13.273" transform="translate(127.03 51.265)" fill="#f9b589"/><rect width="2.244" height="2.423" transform="translate(131.924 51.265)" fill="#eadcbd"/><rect width="21.984" height="13.273" transform="translate(104.085 51.265)" fill="#b37475"/><rect width="11.164" height="13.273" transform="translate(114.902 51.265)" fill="#f9b589"/><rect width="2.244" height="2.423" transform="translate(119.796 51.265)" fill="#eadcbd"/><rect width="21.984" height="13.273" transform="translate(91.957 51.265)" fill="#b37475"/><rect width="11.164" height="13.273" transform="translate(102.774 51.265)" fill="#f9b589"/><rect width="2.244" height="2.423" transform="translate(107.668 51.265)" fill="#eadcbd"/><rect width="36.657" height="13.273" transform="translate(65.157 51.265)" fill="#b37475"/><rect width="11.164" height="13.273" transform="translate(90.649 51.265)" fill="#f9b589"/><rect width="2.244" height="2.423" transform="translate(95.543 51.265)" fill="#eadcbd"/><rect width="72.956" height="0.8" transform="translate(65.157 36.395)" fill="#835353"/><rect width="72.956" height="0.8" transform="translate(65.157 50.465)" fill="#835353"/><rect width="0.716" height="41.415" transform="translate(79.114 23.123)" fill="#835353"/><rect width="0.716" height="41.415" transform="translate(71.594 23.123)" fill="#835353"/><rect width="18.721" height="11.302" transform="translate(248.183 129.363)" fill="#b37475"/><rect width="9.509" height="11.302" transform="translate(257.393 129.363)" fill="#f9b589"/><rect width="1.911" height="2.062" transform="translate(261.561 129.363)" fill="#eadcbd"/><rect width="18.721" height="11.302" transform="translate(237.854 129.363)" fill="#b37475"/><rect width="9.509" height="11.302" transform="translate(247.067 129.363)" fill="#f9b589"/><rect width="1.911" height="2.062" transform="translate(251.234 129.363)" fill="#eadcbd"/><rect width="18.721" height="11.302" transform="translate(227.528 129.363)" fill="#b37475"/><rect width="9.509" height="11.302" transform="translate(236.74 129.363)" fill="#f9b589"/><rect width="1.911" height="2.062" transform="translate(240.908 129.363)" fill="#eadcbd"/><rect width="31.217" height="11.302" transform="translate(204.703 129.363)" fill="#b37475"/><rect width="9.509" height="11.302" transform="translate(226.414 129.363)" fill="#f9b589"/><rect width="1.911" height="2.062" transform="translate(230.579 129.363)" fill="#eadcbd"/><rect width="18.721" height="11.302" transform="translate(248.183 141.347)" fill="#b37475"/><rect width="9.509" height="11.302" transform="translate(257.393 141.347)" fill="#f9b589"/><rect width="1.911" height="2.062" transform="translate(261.561 141.347)" fill="#eadcbd"/><rect width="18.721" height="11.302" transform="translate(237.854 141.347)" fill="#b37475"/><rect width="9.509" height="11.302" transform="translate(247.067 141.347)" fill="#f9b589"/><rect width="1.911" height="2.062" transform="translate(251.234 141.347)" fill="#eadcbd"/><rect width="18.721" height="11.302" transform="translate(227.528 141.347)" fill="#b37475"/><rect width="9.509" height="11.302" transform="translate(236.74 141.347)" fill="#f9b589"/><rect width="1.911" height="2.062" transform="translate(240.908 141.347)" fill="#eadcbd"/><rect width="31.217" height="11.302" transform="translate(204.703 141.347)" fill="#b37475"/><rect width="9.509" height="11.302" transform="translate(226.414 141.347)" fill="#f9b589"/><rect width="1.911" height="2.062" transform="translate(230.579 141.347)" fill="#eadcbd"/><rect width="18.721" height="11.302" transform="translate(248.183 153.33)" fill="#b37475"/><rect width="9.509" height="11.302" transform="translate(257.393 153.33)" fill="#f9b589"/><rect width="1.911" height="2.062" transform="translate(261.561 153.33)" fill="#eadcbd"/><rect width="18.721" height="11.302" transform="translate(237.854 153.33)" fill="#b37475"/><rect width="9.509" height="11.302" transform="translate(247.067 153.33)" fill="#f9b589"/><rect width="1.911" height="2.062" transform="translate(251.234 153.33)" fill="#eadcbd"/><rect width="18.721" height="11.302" transform="translate(227.528 153.33)" fill="#b37475"/><rect width="9.509" height="11.302" transform="translate(236.74 153.33)" fill="#f9b589"/><rect width="1.911" height="2.062" transform="translate(240.908 153.33)" fill="#eadcbd"/><rect width="31.217" height="11.302" transform="translate(204.703 153.33)" fill="#b37475"/><rect width="9.509" height="11.302" transform="translate(226.414 153.33)" fill="#f9b589"/><rect width="1.911" height="2.062" transform="translate(230.579 153.33)" fill="#eadcbd"/><rect width="62.126" height="0.68" transform="translate(204.703 140.665)" fill="#835353"/><rect width="62.126" height="0.68" transform="translate(204.703 152.65)" fill="#835353"/><rect width="0.611" height="35.269" transform="translate(216.591 129.363)" fill="#835353"/><rect width="0.611" height="35.269" transform="translate(210.185 129.363)" fill="#835353"/><rect width="20.808" height="12.562" transform="translate(294.975 25.338)" fill="#b37475"/><rect width="10.569" height="12.562" transform="translate(305.214 25.338)" fill="#f9b589"/><rect width="2.124" height="2.292" transform="translate(309.845 25.338)" fill="#eadcbd"/><rect width="20.808" height="12.562" transform="translate(283.496 25.338)" fill="#b37475"/><rect width="10.569" height="12.562" transform="translate(293.735 25.338)" fill="#f9b589"/><rect width="2.124" height="2.292" transform="translate(298.366 25.338)" fill="#eadcbd"/><rect width="20.808" height="12.562" transform="translate(272.017 25.338)" fill="#b37475"/><rect width="10.569" height="12.562" transform="translate(282.257 25.338)" fill="#f9b589"/><rect width="2.124" height="2.292" transform="translate(286.89 25.338)" fill="#eadcbd"/><rect width="34.697" height="12.562" transform="translate(246.65 25.338)" fill="#b37475"/><rect width="10.569" height="12.562" transform="translate(270.778 25.338)" fill="#f9b589"/><rect width="2.124" height="2.292" transform="translate(275.411 25.338)" fill="#eadcbd"/><rect width="20.808" height="12.562" transform="translate(294.975 38.657)" fill="#b37475"/><rect width="10.569" height="12.562" transform="translate(305.214 38.657)" fill="#f9b589"/><rect width="2.124" height="2.292" transform="translate(309.845 38.657)" fill="#eadcbd"/><rect width="20.808" height="12.562" transform="translate(283.496 38.657)" fill="#b37475"/><rect width="10.569" height="12.562" transform="translate(293.735 38.657)" fill="#f9b589"/><rect width="2.124" height="2.292" transform="translate(298.366 38.657)" fill="#eadcbd"/><rect width="20.808" height="12.562" transform="translate(272.017 38.657)" fill="#b37475"/><rect width="10.569" height="12.562" transform="translate(282.257 38.657)" fill="#f9b589"/><rect width="2.124" height="2.292" transform="translate(286.89 38.657)" fill="#eadcbd"/><rect width="34.697" height="12.562" transform="translate(246.65 38.657)" fill="#b37475"/><rect width="10.569" height="12.562" transform="translate(270.778 38.657)" fill="#f9b589"/><rect width="2.124" height="2.292" transform="translate(275.411 38.657)" fill="#eadcbd"/><rect width="20.808" height="12.562" transform="translate(294.975 51.975)" fill="#b37475"/><rect width="10.569" height="12.562" transform="translate(305.214 51.975)" fill="#f9b589"/><rect width="2.124" height="2.292" transform="translate(309.845 51.975)" fill="#eadcbd"/><rect width="20.808" height="12.562" transform="translate(283.496 51.975)" fill="#b37475"/><rect width="10.569" height="12.562" transform="translate(293.735 51.975)" fill="#f9b589"/><rect width="2.124" height="2.292" transform="translate(298.366 51.975)" fill="#eadcbd"/><rect width="20.808" height="12.562" transform="translate(272.017 51.975)" fill="#b37475"/><rect width="10.569" height="12.562" transform="translate(282.257 51.975)" fill="#f9b589"/><rect width="2.124" height="2.292" transform="translate(286.89 51.975)" fill="#eadcbd"/><rect width="34.697" height="12.562" transform="translate(246.65 51.975)" fill="#b37475"/><rect width="10.569" height="12.562" transform="translate(270.778 51.975)" fill="#f9b589"/><rect width="2.124" height="2.292" transform="translate(275.411 51.975)" fill="#eadcbd"/><rect width="69.054" height="0.756" transform="translate(246.65 37.9)" fill="#835353"/><rect width="69.054" height="0.756" transform="translate(246.65 51.219)" fill="#835353"/><rect width="0.677" height="39.2" transform="translate(259.861 25.338)" fill="#835353"/><rect width="0.677" height="39.2" transform="translate(252.742 25.338)" fill="#835353"/><rect width="20.808" height="12.562" transform="translate(2.304 25.338)" fill="#b37475"/><rect width="10.569" height="12.562" transform="translate(12.544 25.338)" fill="#f9b589"/><rect width="2.124" height="2.292" transform="translate(17.177 25.338)" fill="#eadcbd"/><rect width="20.808" height="12.562" transform="translate(-9.174 25.338)" fill="#b37475"/><rect width="10.569" height="12.562" transform="translate(1.065 25.338)" fill="#f9b589"/><rect width="2.124" height="2.292" transform="translate(5.698 25.338)" fill="#eadcbd"/><rect width="9.465" height="12.562" transform="translate(-9.31 25.338)" fill="#b37475"/><rect width="9.465" height="12.562" transform="translate(-9.31 25.338)" fill="#f9b589"/><rect width="2.124" height="2.292" transform="translate(-5.781 25.338)" fill="#eadcbd"/><rect width="20.808" height="12.562" transform="translate(2.304 38.657)" fill="#b37475"/><rect width="10.569" height="12.562" transform="translate(12.544 38.657)" fill="#f9b589"/><rect width="2.124" height="2.292" transform="translate(17.177 38.657)" fill="#eadcbd"/><rect width="20.808" height="12.562" transform="translate(-9.174 38.657)" fill="#b37475"/><rect width="10.569" height="12.562" transform="translate(1.065 38.657)" fill="#f9b589"/><rect width="2.124" height="2.292" transform="translate(5.698 38.657)" fill="#eadcbd"/><rect width="9.465" height="12.562" transform="translate(-9.31 38.657)" fill="#b37475"/><rect width="9.465" height="12.562" transform="translate(-9.31 38.657)" fill="#f9b589"/><rect width="2.124" height="2.292" transform="translate(-5.781 38.657)" fill="#eadcbd"/><rect width="20.808" height="12.562" transform="translate(2.304 51.975)" fill="#b37475"/><rect width="10.569" height="12.562" transform="translate(12.544 51.975)" fill="#f9b589"/><rect width="2.124" height="2.292" transform="translate(17.177 51.975)" fill="#eadcbd"/><rect width="20.808" height="12.562" transform="translate(-9.174 51.975)" fill="#b37475"/><rect width="10.569" height="12.562" transform="translate(1.065 51.975)" fill="#f9b589"/><rect width="2.124" height="2.292" transform="translate(5.698 51.975)" fill="#eadcbd"/><rect width="9.465" height="12.562" transform="translate(-9.31 51.975)" fill="#b37475"/><rect width="9.465" height="12.562" transform="translate(-9.31 51.975)" fill="#f9b589"/><rect width="2.124" height="2.292" transform="translate(-5.781 51.975)" fill="#eadcbd"/><rect width="32.343" height="0.756" transform="translate(-9.31 37.9)" fill="#835353"/><rect width="32.343" height="0.756" transform="translate(-9.31 51.219)" fill="#835353"/><rect width="17.558" height="3.606" transform="translate(240.024 60.935)" fill="#53414b"/><rect width="29.757" height="3.606" transform="translate(207.335 60.935)" fill="#53414b"/><rect width="3.56" height="3.606" transform="translate(232.905 60.935)" fill="#e79361"/><rect width="22.738" height="1.648" transform="translate(236.464 59.286)" fill="#fbd5a2"/><rect width="3.56" height="3.606" transform="translate(236.464 60.935)" fill="#fbd5a2"/><rect width="3.56" height="3.606" transform="translate(255.642 60.935)" fill="#fbd5a2"/><rect width="3.56" height="3.606" transform="translate(252.08 60.935)" fill="#e79361"/><rect width="30.245" height="1.648" transform="translate(206.219 59.286)" fill="#e79361"/><rect width="3.56" height="3.606" transform="translate(206.219 60.935)" fill="#e79361"/><rect width="2.811" height="3.606" transform="translate(221.625 60.935)" fill="#9d5a3c"/><rect width="3.56" height="3.606" transform="translate(218.063 60.935)" fill="#e79361"/><rect width="2.811" height="3.606" transform="translate(209.778 60.935)" fill="#9d5a3c"/><rect width="30.245" height="20.877" transform="translate(206.219 38.442)" fill="#945561"/><rect width="22.738" height="20.844" transform="translate(236.464 38.442)" fill="#c57778"/><rect width="4.321" height="5.083" transform="translate(229.945 40.249)" fill="#e79361"/><rect width="17.558" height="3.606" transform="translate(208.151 60.935)" fill="#53414b"/><rect width="29.757" height="3.606" transform="translate(175.462 60.935)" fill="#53414b"/><rect width="3.56" height="3.606" transform="translate(201.031 60.935)" fill="#e79361"/><rect width="22.738" height="1.648" transform="translate(204.591 59.286)" fill="#fbd5a2"/><rect width="3.56" height="3.606" transform="translate(204.591 60.935)" fill="#fbd5a2"/><rect width="3.56" height="3.606" transform="translate(223.769 60.935)" fill="#fbd5a2"/><rect width="3.56" height="3.606" transform="translate(220.207 60.935)" fill="#e79361"/><rect width="30.245" height="1.648" transform="translate(174.346 59.286)" fill="#e79361"/><rect width="3.56" height="3.606" transform="translate(174.346 60.935)" fill="#e79361"/><rect width="2.811" height="3.606" transform="translate(189.752 60.935)" fill="#9d5a3c"/><rect width="3.56" height="3.606" transform="translate(186.19 60.935)" fill="#e79361"/><rect width="2.811" height="3.606" transform="translate(177.905 60.935)" fill="#9d5a3c"/><rect width="30.245" height="20.877" transform="translate(174.346 38.442)" fill="#945561"/><rect width="22.738" height="20.844" transform="translate(204.591 38.442)" fill="#c57778"/><rect width="4.321" height="5.083" transform="translate(198.072 40.249)" fill="#e79361"/><rect width="17.561" height="3.606" transform="translate(173.477 60.932)" fill="#53414b"/><rect width="29.757" height="3.606" transform="translate(140.788 60.932)" fill="#53414b"/><rect width="3.56" height="3.606" transform="translate(166.357 60.932)" fill="#e79361"/><rect width="22.738" height="1.648" transform="translate(169.917 59.284)" fill="#fbd5a2"/><rect width="3.56" height="3.606" transform="translate(169.917 60.932)" fill="#fbd5a2"/><rect width="3.56" height="3.606" transform="translate(189.093 60.932)" fill="#fbd5a2"/><rect width="3.56" height="3.606" transform="translate(185.533 60.932)" fill="#e79361"/><rect width="30.245" height="1.648" transform="translate(139.672 59.284)" fill="#e79361"/><rect width="3.56" height="3.606" transform="translate(139.672 60.932)" fill="#e79361"/><rect width="2.811" height="3.606" transform="translate(155.075 60.932)" fill="#9d5a3c"/><rect width="3.56" height="3.606" transform="translate(151.516 60.932)" fill="#e79361"/><rect width="2.811" height="3.606" transform="translate(143.231 60.932)" fill="#9d5a3c"/><rect width="30.245" height="20.877" transform="translate(139.672 38.44)" fill="#945561"/><rect width="22.738" height="20.844" transform="translate(169.917 38.44)" fill="#c57778"/><rect width="4.321" height="5.083" transform="translate(163.396 40.246)" fill="#e79361"/><rect width="17.558" height="3.606" transform="translate(208.151 34.837)" fill="#53414b"/><rect width="29.757" height="3.606" transform="translate(175.462 34.837)" fill="#53414b"/><rect width="3.56" height="3.606" transform="translate(201.031 34.837)" fill="#e79361"/><rect width="22.738" height="1.648" transform="translate(204.591 33.188)" fill="#fbd5a2"/><rect width="3.56" height="3.606" transform="translate(204.591 34.837)" fill="#fbd5a2"/><rect width="3.56" height="3.606" transform="translate(223.769 34.837)" fill="#fbd5a2"/><rect width="3.56" height="3.606" transform="translate(220.207 34.837)" fill="#e79361"/><rect width="30.245" height="1.648" transform="translate(174.346 33.188)" fill="#e79361"/><rect width="3.56" height="3.606" transform="translate(174.346 34.837)" fill="#e79361"/><rect width="2.811" height="3.606" transform="translate(189.752 34.837)" fill="#9d5a3c"/><rect width="3.56" height="3.606" transform="translate(186.19 34.837)" fill="#e79361"/><rect width="2.811" height="3.606" transform="translate(177.905 34.837)" fill="#9d5a3c"/><rect width="30.245" height="20.877" transform="translate(174.346 12.344)" fill="#945561"/><rect width="22.738" height="20.844" transform="translate(204.591 12.344)" fill="#c57778"/><rect width="4.321" height="5.083" transform="translate(198.072 14.151)" fill="#e79361"/><rect width="17.561" height="3.606" transform="translate(173.477 34.834)" fill="#53414b"/><rect width="29.757" height="3.606" transform="translate(140.788 34.834)" fill="#53414b"/><rect width="3.56" height="3.606" transform="translate(166.357 34.834)" fill="#e79361"/><rect width="22.738" height="1.648" transform="translate(169.917 33.186)" fill="#fbd5a2"/><rect width="3.56" height="3.606" transform="translate(169.917 34.834)" fill="#fbd5a2"/><rect width="3.56" height="3.606" transform="translate(189.093 34.834)" fill="#fbd5a2"/><rect width="3.56" height="3.606" transform="translate(185.533 34.834)" fill="#e79361"/><rect width="30.245" height="1.648" transform="translate(139.672 33.186)" fill="#e79361"/><rect width="3.56" height="3.606" transform="translate(139.672 34.834)" fill="#e79361"/><rect width="2.811" height="3.606" transform="translate(155.075 34.834)" fill="#9d5a3c"/><rect width="3.56" height="3.606" transform="translate(151.516 34.834)" fill="#e79361"/><rect width="2.811" height="3.606" transform="translate(143.231 34.834)" fill="#9d5a3c"/><rect width="30.245" height="20.877" transform="translate(139.672 12.342)" fill="#945561"/><rect width="22.738" height="20.844" transform="translate(169.917 12.342)" fill="#c57778"/><rect width="4.321" height="5.083" transform="translate(163.396 14.148)" fill="#e79361"/><rect width="34.477" height="3.825" transform="translate(18.828 166.38)" fill="#53414b"/><rect width="25.027" height="3.825" transform="translate(-9.31 166.38)" fill="#53414b"/><rect width="3.779" height="3.825" transform="translate(11.269 166.38)" fill="#e79361"/><rect width="39.974" height="1.75" transform="translate(15.048 164.632)" fill="#fbd5a2"/><rect width="3.779" height="3.825" transform="translate(15.048 166.38)" fill="#fbd5a2"/><rect width="3.779" height="3.825" transform="translate(35.535 166.38)" fill="#fbd5a2"/><rect width="3.779" height="3.825" transform="translate(51.243 166.38)" fill="#fbd5a2"/><rect width="3.779" height="3.825" transform="translate(31.755 166.38)" fill="#e79361"/><rect width="3.779" height="3.825" transform="translate(47.463 166.38)" fill="#e79361"/><rect width="24.358" height="1.75" transform="translate(-9.31 164.632)" fill="#e79361"/><rect width="2.982" height="3.825" transform="translate(0.735 166.38)" fill="#9d5a3c"/><rect width="3.779" height="3.825" transform="translate(-3.044 166.38)" fill="#e79361"/><rect width="1.891" height="3.825" transform="translate(-9.31 166.38)" fill="#9d5a3c"/><rect width="34.477" height="3.825" transform="translate(162.805 166.38)" fill="#53414b"/><rect width="28.71" height="3.825" transform="translate(130.986 166.38)" fill="#53414b"/><rect width="3.779" height="3.825" transform="translate(155.249 166.38)" fill="#e79361"/><rect width="39.974" height="1.75" transform="translate(159.026 164.632)" fill="#fbd5a2"/><rect width="3.779" height="3.825" transform="translate(159.026 166.38)" fill="#fbd5a2"/><rect width="3.779" height="3.825" transform="translate(179.512 166.38)" fill="#fbd5a2"/><rect width="3.779" height="3.825" transform="translate(195.223 166.38)" fill="#fbd5a2"/><rect width="3.779" height="3.825" transform="translate(175.733 166.38)" fill="#e79361"/><rect width="3.779" height="3.825" transform="translate(191.444 166.38)" fill="#e79361"/><rect width="29.228" height="1.75" transform="translate(129.8 164.632)" fill="#e79361"/><rect width="3.779" height="3.825" transform="translate(129.8 166.38)" fill="#e79361"/><rect width="2.982" height="3.825" transform="translate(144.713 166.38)" fill="#9d5a3c"/><rect width="3.779" height="3.825" transform="translate(140.934 166.38)" fill="#e79361"/><rect width="2.982" height="3.825" transform="translate(133.579 166.38)" fill="#9d5a3c"/><rect width="34.477" height="3.825" transform="translate(106.653 166.38)" fill="#53414b"/><rect width="28.71" height="3.825" transform="translate(74.834 166.38)" fill="#53414b"/><rect width="3.779" height="3.825" transform="translate(99.097 166.38)" fill="#e79361"/><rect width="39.974" height="1.75" transform="translate(102.877 164.632)" fill="#fbd5a2"/><rect width="3.779" height="3.825" transform="translate(102.877 166.38)" fill="#fbd5a2"/><rect width="3.779" height="3.825" transform="translate(123.361 166.38)" fill="#fbd5a2"/><rect width="3.779" height="3.825" transform="translate(139.071 166.38)" fill="#fbd5a2"/><rect width="3.779" height="3.825" transform="translate(119.581 166.38)" fill="#e79361"/><rect width="3.779" height="3.825" transform="translate(135.292 166.38)" fill="#e79361"/><rect width="29.228" height="1.75" transform="translate(73.648 164.632)" fill="#e79361"/><rect width="3.779" height="3.825" transform="translate(73.648 166.38)" fill="#e79361"/><rect width="2.982" height="3.825" transform="translate(88.561 166.38)" fill="#9d5a3c"/><rect width="3.779" height="3.825" transform="translate(84.782 166.38)" fill="#e79361"/><rect width="2.982" height="3.825" transform="translate(77.428 166.38)" fill="#9d5a3c"/><rect width="34.477" height="3.825" transform="translate(234.796 166.38)" fill="#53414b"/><rect width="28.71" height="3.825" transform="translate(202.976 166.38)" fill="#53414b"/><rect width="3.779" height="3.825" transform="translate(227.237 166.38)" fill="#e79361"/><rect width="39.974" height="1.75" transform="translate(231.016 164.632)" fill="#fbd5a2"/><rect width="3.779" height="3.825" transform="translate(231.016 166.38)" fill="#fbd5a2"/><rect width="3.779" height="3.825" transform="translate(251.503 166.38)" fill="#fbd5a2"/><rect width="3.779" height="3.825" transform="translate(267.211 166.38)" fill="#fbd5a2"/><rect width="3.779" height="3.825" transform="translate(247.723 166.38)" fill="#e79361"/><rect width="3.779" height="3.825" transform="translate(263.434 166.38)" fill="#e79361"/><rect width="29.228" height="1.75" transform="translate(201.79 164.632)" fill="#e79361"/><rect width="3.779" height="3.825" transform="translate(201.79 166.38)" fill="#e79361"/><rect width="2.982" height="3.825" transform="translate(216.703 166.38)" fill="#9d5a3c"/><rect width="3.779" height="3.825" transform="translate(212.924 166.38)" fill="#e79361"/><rect width="2.982" height="3.825" transform="translate(205.567 166.38)" fill="#9d5a3c"/><rect width="59.004" height="35.625" transform="translate(26.121 28.916)" fill="#b37475"/><rect width="29.97" height="35.625" transform="translate(55.155 28.916)" fill="#f9b589"/><rect width="6.023" height="6.503" transform="translate(68.289 28.916)" fill="#eadcbd"/><rect width="35.717" height="3.606" transform="translate(272.528 113.76)" fill="#53414b"/><rect width="29.742" height="3.606" transform="translate(239.566 113.76)" fill="#53414b"/><rect width="3.915" height="3.606" transform="translate(264.699 113.76)" fill="#e79361"/><rect width="41.407" height="1.648" transform="translate(268.614 112.111)" fill="#fbd5a2"/><rect width="3.915" height="3.606" transform="translate(268.614 113.76)" fill="#fbd5a2"/><rect width="3.915" height="3.606" transform="translate(289.833 113.76)" fill="#fbd5a2"/><rect width="3.915" height="3.606" transform="translate(306.109 113.76)" fill="#fbd5a2"/><rect width="3.915" height="3.606" transform="translate(285.921 113.76)" fill="#e79361"/><rect width="3.915" height="3.606" transform="translate(302.194 113.76)" fill="#e79361"/><rect width="30.276" height="1.648" transform="translate(238.337 112.111)" fill="#e79361"/><rect width="3.915" height="3.606" transform="translate(238.337 113.76)" fill="#e79361"/><rect width="3.089" height="3.606" transform="translate(253.785 113.76)" fill="#9d5a3c"/><rect width="3.915" height="3.606" transform="translate(249.872 113.76)" fill="#e79361"/><rect width="3.089" height="3.606" transform="translate(242.252 113.76)" fill="#9d5a3c"/><rect width="12.925" height="2.652" transform="translate(292.302 109.459)" fill="#801723"/><rect width="21.907" height="2.652" transform="translate(268.24 109.459)" fill="#5e1e22"/><rect width="2.619" height="2.652" transform="translate(287.061 109.459)" fill="#dd6843"/><rect width="16.738" height="1.214" transform="translate(289.683 108.245)" fill="#e79361"/><rect width="2.619" height="2.652" transform="translate(289.683 109.459)" fill="#e79361"/><rect width="2.619" height="2.652" transform="translate(303.799 109.459)" fill="#e79361"/><rect width="2.622" height="2.652" transform="translate(301.177 109.459)" fill="#c1452a"/><rect width="22.265" height="1.214" transform="translate(267.418 108.245)" fill="#dd6843"/><rect width="2.619" height="2.652" transform="translate(267.418 109.459)" fill="#dd6843"/><rect width="2.067" height="2.652" transform="translate(278.756 109.459)" fill="#993c40"/><rect width="2.619" height="2.652" transform="translate(276.137 109.459)" fill="#dd6843"/><rect width="2.067" height="2.652" transform="translate(270.037 109.459)" fill="#993c40"/><rect width="22.265" height="15.951" transform="translate(267.418 92.9)" fill="#dd6843"/><rect width="16.738" height="15.345" transform="translate(289.683 92.9)" fill="#e79361"/><rect width="3.181" height="3.741" transform="translate(284.881 94.231)" fill="#e79361"/><rect width="12.925" height="2.652" transform="translate(265.639 109.459)" fill="#021938"/><rect width="21.907" height="2.652" transform="translate(241.575 109.459)" fill="#021938"/><rect width="2.619" height="2.652" transform="translate(260.398 109.459)" fill="#45627b"/><rect width="16.738" height="1.214" transform="translate(263.017 108.245)" fill="#77838b"/><rect width="2.619" height="2.652" transform="translate(263.017 109.459)" fill="#77838b"/><rect width="2.619" height="2.652" transform="translate(277.133 109.459)" fill="#77838b"/><rect width="2.619" height="2.652" transform="translate(274.514 109.459)" fill="#324a73"/><rect width="22.265" height="1.214" transform="translate(240.752 108.245)" fill="#45627b"/><rect width="2.619" height="2.652" transform="translate(240.752 109.459)" fill="#45627b"/><rect width="2.067" height="2.652" transform="translate(252.093 109.459)" fill="#123551"/><rect width="2.619" height="2.652" transform="translate(249.474 109.459)" fill="#45627b"/><rect width="2.067" height="2.652" transform="translate(243.374 109.459)" fill="#123551"/><rect width="22.265" height="15.951" transform="translate(240.752 92.9)" fill="#45627b"/><rect width="16.738" height="15.345" transform="translate(263.017 92.9)" fill="#77838b"/><rect width="3.181" height="3.741" transform="translate(258.218 94.231)" fill="#77838b"/><rect width="12.925" height="2.652" transform="translate(292.302 90.247)" fill="#5e1e22"/><rect width="21.907" height="2.652" transform="translate(268.24 90.247)" fill="#5e1e22"/><rect width="2.619" height="2.652" transform="translate(287.061 90.247)" fill="#9d5a3c"/><rect width="16.738" height="1.214" transform="translate(289.683 89.034)" fill="#c57778"/><rect width="2.619" height="2.652" transform="translate(289.683 90.247)" fill="#c57778"/><rect width="2.619" height="2.652" transform="translate(303.799 90.247)" fill="#c57778"/><rect width="2.622" height="2.652" transform="translate(301.177 90.247)" fill="#993c40"/><rect width="22.265" height="1.214" transform="translate(267.418 89.034)" fill="#9d5a3c"/><rect width="2.619" height="2.652" transform="translate(267.418 90.247)" fill="#9d5a3c"/><rect width="2.067" height="2.652" transform="translate(278.756 90.247)" fill="#6e2e2f"/><rect width="2.619" height="2.652" transform="translate(276.137 90.247)" fill="#9d5a3c"/><rect width="2.067" height="2.652" transform="translate(270.037 90.247)" fill="#6e2e2f"/><rect width="22.265" height="15.951" transform="translate(267.418 73.691)" fill="#9d5a3c"/><rect width="16.738" height="15.345" transform="translate(289.683 73.691)" fill="#c57778"/><rect width="3.181" height="3.741" transform="translate(284.881 75.02)" fill="#c57778"/><rect width="12.925" height="2.652" transform="translate(265.639 90.247)" fill="#021938"/><rect width="21.907" height="2.652" transform="translate(241.575 90.247)" fill="#021938"/><rect width="2.619" height="2.652" transform="translate(260.398 90.247)" fill="#53414b"/><rect width="16.738" height="1.214" transform="translate(263.017 89.034)" fill="#45627b"/><rect width="2.619" height="2.652" transform="translate(263.017 90.247)" fill="#45627b"/><rect width="2.619" height="2.652" transform="translate(277.133 90.247)" fill="#45627b"/><rect width="2.619" height="2.652" transform="translate(274.514 90.247)" fill="#123551"/><rect width="22.265" height="1.214" transform="translate(240.752 89.034)" fill="#53414b"/><rect width="2.619" height="2.652" transform="translate(240.752 90.247)" fill="#53414b"/><rect width="2.067" height="2.652" transform="translate(252.093 90.247)" fill="#021938"/><rect width="2.619" height="2.652" transform="translate(249.474 90.247)" fill="#53414b"/><rect width="2.067" height="2.652" transform="translate(243.374 90.247)" fill="#021938"/><rect width="22.265" height="15.951" transform="translate(240.752 73.691)" fill="#53414b"/><rect width="16.738" height="15.345" transform="translate(263.017 73.691)" fill="#45627b"/><rect width="3.181" height="3.741" transform="translate(258.218 75.02)" fill="#45627b"/><rect width="32.384" height="19.676" transform="translate(208.404 97.638)" fill="#b37475"/><rect width="15.274" height="19.676" transform="translate(225.514 97.638)" fill="#f9b589"/><rect width="19.316" height="10.681" transform="translate(211.797 86.956)" fill="#9d5a3c"/><rect width="9.11" height="10.681" transform="translate(222.003 86.956)" fill="#cb9392"/><rect width="24.56" height="14.354" transform="translate(230.137 102.96)" fill="#b37475"/><rect width="11.584" height="14.354" transform="translate(243.113 102.96)" fill="#f9b589"/><rect width="2.172" height="1.605" transform="translate(226.02 86.956)" fill="#eadcbd"/><rect width="2.328" height="2.514" transform="translate(234.072 97.638)" fill="#eadcbd"/><rect width="2.328" height="2.514" transform="translate(248.188 102.96)" fill="#eadcbd"/><rect width="23.451" height="3.825" transform="translate(306.369 166.367)" fill="#53414b"/><rect width="28.71" height="3.825" transform="translate(274.55 166.367)" fill="#53414b"/><rect width="3.779" height="3.825" transform="translate(298.813 166.367)" fill="#e79361"/><rect width="27.23" height="1.75" transform="translate(302.59 164.617)" fill="#fbd5a2"/><rect width="3.779" height="3.825" transform="translate(302.59 166.367)" fill="#fbd5a2"/><rect width="3.779" height="3.825" transform="translate(323.076 166.367)" fill="#fbd5a2"/><rect width="3.779" height="3.825" transform="translate(319.297 166.367)" fill="#e79361"/><rect width="29.228" height="1.75" transform="translate(273.364 164.617)" fill="#e79361"/><rect width="3.779" height="3.825" transform="translate(273.364 166.367)" fill="#e79361"/><rect width="2.982" height="3.825" transform="translate(288.277 166.367)" fill="#9d5a3c"/><rect width="3.779" height="3.825" transform="translate(284.498 166.367)" fill="#e79361"/><rect width="2.982" height="3.825" transform="translate(277.143 166.367)" fill="#9d5a3c"/><rect width="10.112" height="8.635" transform="translate(319.708 155.982)" fill="#f9b589"/><rect width="20.131" height="8.635" transform="translate(299.577 155.982)" fill="#b37475"/><rect width="2.014" height="3.539" transform="translate(327.579 157.053)" fill="#9d5a3c"/><rect width="21.585" height="8.635" transform="translate(294.77 155.982)" fill="#f9b589"/><rect width="20.131" height="8.635" transform="translate(274.639 155.982)" fill="#b37475"/><rect width="6.736" height="3.57" transform="translate(308.46 157.02)" fill="#eadcbd"/><rect width="2.016" height="3.539" transform="translate(305.554 157.053)" fill="#9d5a3c"/><rect width="2.016" height="3.539" transform="translate(302.638 157.053)" fill="#9d5a3c"/><rect width="10.112" height="8.635" transform="translate(319.708 147.347)" fill="#f9b589"/><rect width="20.131" height="8.635" transform="translate(299.577 147.347)" fill="#b37475"/><rect width="2.014" height="3.539" transform="translate(327.579 148.418)" fill="#b37475"/><rect width="21.585" height="8.635" transform="translate(294.77 147.347)" fill="#f9b589"/><rect width="20.131" height="8.635" transform="translate(274.639 147.347)" fill="#b37475"/><rect width="6.736" height="3.57" transform="translate(308.46 148.385)" fill="#f5eac6"/><rect width="2.016" height="3.539" transform="translate(305.554 148.418)" fill="#b37475"/><rect width="2.016" height="3.539" transform="translate(302.638 148.418)" fill="#b37475"/><rect width="21.585" height="8.635" transform="translate(294.77 138.71)" fill="#f9b589"/><rect width="20.131" height="8.635" transform="translate(274.639 138.71)" fill="#b37475"/><rect width="6.736" height="3.57" transform="translate(308.46 139.75)" fill="#eadcbd"/><rect width="2.016" height="3.539" transform="translate(305.554 139.781)" fill="#9d5a3c"/><rect width="2.016" height="3.539" transform="translate(302.638 139.781)" fill="#9d5a3c"/><rect width="19.6" height="28.314" transform="translate(35.09 136.318)" fill="#fbd5a2"/><rect width="14.959" height="23.612" transform="translate(37.413 138.669)" fill="#f9b589"/><path d="M230.9,584.975v1.1h1.6l12.71-23.612h-2.193Z" transform="translate(-193.487 -423.791)" fill="#cb9392"/><rect width="0.483" height="23.612" transform="translate(51.889 138.669)" fill="#cb9392"/><rect width="19.6" height="28.314" transform="translate(15.49 136.318)" fill="#f9b589"/><rect width="14.959" height="23.612" transform="translate(17.81 138.669)" fill="#cb9392"/><rect width="0.491" height="23.612" transform="translate(17.81 138.669)" fill="#fbd5a2"/><path d="M156.11,586.072H158.3l12.276-22.8v-.813H168.82Z" transform="translate(-137.809 -423.791)" fill="#fbd5a2"/><path d="M154.19,586.072h2.2L169.1,562.46H166.9Z" transform="translate(-136.38 -423.791)" fill="#f9b589"/><path d="M231,586.072h2.193l12.713-23.612h-2.2Z" transform="translate(-193.562 -423.791)" fill="#fbd5a2"/><rect width="19.6" height="28.314" transform="translate(7.482 136.318)" fill="#fbd5a2"/><rect width="14.959" height="23.612" transform="translate(9.802 138.669)" fill="#f9b589"/><path d="M122.86,584.975v1.1h1.6l12.713-23.612h-2.2Z" transform="translate(-113.056 -423.791)" fill="#cb9392"/><rect width="0.483" height="23.612" transform="translate(24.278 138.669)" fill="#cb9392"/><rect width="16.791" height="28.314" transform="translate(-9.31 136.318)" fill="#f9b589"/><rect width="14.469" height="23.612" transform="translate(-9.31 138.669)" fill="#cb9392"/><path d="M62.529,563.273v-.813H60.773L48.06,586.072h2.2Z" transform="translate(-57.37 -423.791)" fill="#fbd5a2"/><path d="M62.477,562.46h-2.2l-12.222,22.7v.91h1.7Z" transform="translate(-57.37 -423.791)" fill="#f9b589"/><path d="M122.95,586.072h2.2l12.713-23.612h-2.2Z" transform="translate(-113.123 -423.791)" fill="#fbd5a2"/><rect width="1.556" height="28.314" transform="translate(-9.31 141.907)" fill="#fbd5a2"/><path d="M1101.66,489.43" transform="translate(-843.202 -369.423)" fill="#f9b589"/><path d="M511.64,570.708l4.49,2.555a90.284,90.284,0,0,0,14.129-32.9l-8.862-.8A83.784,83.784,0,0,1,511.64,570.708Z" transform="translate(-403.954 -406.742)" fill="#1d1d29"/><path d="M508.057,667.39,505.732,666c-.44.741-.662,1.106-1.122,1.837l5.164,3.273S510.983,669.12,508.057,667.39Z" transform="translate(-398.721 -500.872)" fill="#fff"/><path d="M509,662.583l2.484,1.469c.289-.483.429-.728.708-1.216l-2.512-1.426C509.406,661.89,509.271,662.125,509,662.583Z" transform="translate(-401.989 -497.455)" fill="#f7836c"/><path d="M573.75,577.446h5.164l3.736-32.6h-8.9Z" transform="translate(-448.726 -410.681)" fill="#1d1d29"/><path d="M582.2,677.65H579.49v2.134h6.11S585.6,677.65,582.2,677.65Z" transform="translate(-454.466 -509.545)" fill="#fff"/><rect width="2.888" height="1.342" transform="translate(125.024 166.766)" fill="#f7836c"/><path d="M594.611,442.158l6.5,2.532,1.339-4.5-9.6-6.123Z" transform="translate(-462.945 -328.209)" fill="#fff"/><path d="M561.817,430.809a5.622,5.622,0,0,0-3.008-.879h-5.055a6.234,6.234,0,0,0-5.995,6.46v24.734h17.029V436.39A6.56,6.56,0,0,0,561.817,430.809Z" transform="translate(-430.844 -325.127)" fill="#fff"/><path d="M553.755,429.93a6.234,6.234,0,0,0-5.995,6.46v24.734h8.665V436.868a18,18,0,0,0-1.957-6.938Z" transform="translate(-430.844 -325.127)" fill="#b9d5fd"/><path d="M602.77,433.37v30.314h2.972V438.951A6.56,6.56,0,0,0,602.77,433.37Z" transform="translate(-471.797 -327.688)" fill="#b9d5fd"/><path d="M637.96,433.08l1.973,1.873-9.67,8.885a2.21,2.21,0,1,1-2.724-3.463Z" transform="translate(-489.498 -327.472)" fill="#fff"/><path d="M676.529,428.2l.511,1.112-2.668,1.252a2.021,2.021,0,0,1-2.686-.971l-.437-.935,2.844-1.334a1.822,1.822,0,0,1,2.435.877Z" transform="translate(-522.778 -323.056)" fill="#fc9079"/><rect width="23.142" height="20.665" transform="translate(137.528 93.715)" fill="#b37475"/><rect width="14.727" height="20.665" transform="translate(146.916 93.715)" fill="#f9b589"/><rect width="2.959" height="3.772" transform="translate(153.371 93.715)" fill="#eadcbd"/><path d="M630.047,467.886l.511,1.112-2.655,1.25a2.014,2.014,0,0,1-2.683-.969l-.44-.935,2.844-1.334A1.824,1.824,0,0,1,630.047,467.886Z" transform="translate(-488.183 -352.604)" fill="#fc9079"/><ellipse cx="5.147" cy="5.021" rx="5.147" ry="5.021" transform="translate(120.935 90.408)" fill="#1d1d29"/><path d="M590.47,421.9a1.388,1.388,0,0,1,1.388-1.385H590.47Z" transform="translate(-462.64 -318.114)" fill="#fc9079"/><path d="M572.582,377.83h-.767a4.385,4.385,0,0,0-4.385,4.388v.3a6.266,6.266,0,0,0,6.279,6.263h1.421a1.848,1.848,0,0,0,1.847-1.848v-4.717a4.385,4.385,0,0,0-4.4-4.388Z" transform="translate(-445.488 -286.341)" fill="#fc9079"/><path d="M567.54,416.738l4.4,2V412.21h-4.4Z" transform="translate(-444.103 -311.935)" fill="#fc9079"/><path d="M604.75,402.77v1.9h.575a.322.322,0,0,0,.276-.491Z" transform="translate(-473.271 -304.907)" fill="#fc9079"/><path d="M566.4,386.12l-2.872,2.157s-.192,2.1,2.489,5.957c0,0,3.961.555,3.388-5.494l.572-.082C569.981,386.664,568.4,386.12,566.4,386.12Z" transform="translate(-442.583 -292.512)" fill="#1d1d29"/><path d="M579.163,398.69a1.073,1.073,0,0,0-1.073,1.073v.838a1.073,1.073,0,0,0,1.073,1.073h1.071v-1.911a1.073,1.073,0,0,0-1.071-1.073Z" transform="translate(-453.424 -301.87)" fill="#fc9079"/><rect width="0.956" height="4.727" transform="translate(126.798 95.629)" fill="#1d1d29"/><path d="M589.185,410.668a.488.488,0,0,1-.488.488h-.833a.488.488,0,0,1-.485-.488v-.488h-.958v1.083a2.555,2.555,0,0,0,2.555,2.555h1.372a.856.856,0,0,0,.856-.856V410.18H589.67a.486.486,0,0,0-.485.488Z" transform="translate(-459.625 -310.424)" fill="#1d1d29"/><path d="M567.619,377.736l-.189,4.495,5.808-1.3v-.848a1.692,1.692,0,0,1,1.687-1.72h1.045C572.789,374.391,567.619,377.736,567.619,377.736Z" transform="translate(-445.488 -285.291)" fill="#1d1d29"/><path d="M576.823,480.894a2.908,2.908,0,0,0,3.991.994l9.887-5.946-1.993-3.322-12.378,7.446Z" transform="translate(-452.113 -356.908)" fill="#fff"/><path d="M548.081,440.005a2.611,2.611,0,0,0-.892,3.578l7.541,12.537,4.477-2.693-7.538-12.537a2.617,2.617,0,0,0-3.588-.884Z" transform="translate(-430.143 -332.348)" fill="#fff"/><path d="M593.555,435.381c.365,3.47.434,5.826.445,6.879V430.809a5.621,5.621,0,0,0-3-.879S593.1,431.024,593.555,435.381Z" transform="translate(-463.035 -325.127)" fill="#b9d5fd"/><path d="M602.77,478.8v0Z" transform="translate(-471.797 -361.047)" fill="#f18d4f"/><path d="M595.741,393.771c.3.969,2.085,1.342,2.085,1.342v-1.487l-2.387-.815Z" transform="translate(-466.34 -297.493)" fill="#282b30"/><path d="M593.376,392.286h3.2a2.016,2.016,0,0,0,2.016-2.016H591.36a2.016,2.016,0,0,0,2.016,2.016Z" transform="translate(-463.303 -295.602)" fill="#b9d5fd"/><path d="M567.062,372.565a5.065,5.065,0,0,0-3.8,6.831l10.781-2.4a5.8,5.8,0,0,0-6.976-4.428Z" transform="translate(-442.13 -282.309)" fill="#b9d5fd"/><path d="M585.735,371.9c-1.04-.422-4.385.046-4.385.046l2.75,5.366,3.659-.828S586.778,372.316,585.735,371.9Z" transform="translate(-455.851 -281.792)" fill="#fff"/><rect width="14.417" height="8.604" transform="translate(158.87 142.083)" fill="#996364"/><rect width="6.8" height="8.604" transform="translate(166.488 142.083)" fill="#dea179"/><rect width="21.593" height="13.942" transform="translate(154.033 150.687)" fill="#b37475"/><rect width="10.183" height="13.942" transform="translate(165.44 150.687)" fill="#f9b589"/><rect width="17.921" height="11.752" transform="translate(168.146 152.88)" fill="#b37475"/><rect width="8.451" height="11.752" transform="translate(177.614 152.88)" fill="#f9b589"/><rect width="10.689" height="6.378" transform="translate(170.024 146.502)" fill="#996364"/><rect width="5.042" height="6.378" transform="translate(175.669 146.502)" fill="#dea179"/><rect width="13.59" height="8.573" transform="translate(180.172 156.059)" fill="#b37475"/><rect width="6.409" height="8.573" transform="translate(187.352 156.059)" fill="#f9b589"/><rect width="13.59" height="8.573" transform="translate(142.817 156.059)" fill="#b37475"/><rect width="6.409" height="8.573" transform="translate(149.998 156.059)" fill="#f9b589"/><rect width="1.201" height="1.702" transform="translate(169.562 142.083)" fill="#ede0d3"/><rect width="1.201" height="0.958" transform="translate(177.895 146.502)" fill="#ede0d3"/><rect width="1.288" height="1.5" transform="translate(182.349 152.88)" fill="#ede0d3"/><rect width="1.288" height="1.5" transform="translate(190.161 156.059)" fill="#ede0d3"/><rect width="1.288" height="1.5" transform="translate(152.883 156.049)" fill="#ede0d3"/></g></g></g></svg>