<svg xmlns="http://www.w3.org/2000/svg" width="271.328" height="190.534" viewBox="0 0 271.328 190.534"><g transform="translate(-245.859 -16.614)" style="isolation:isolate"><g transform="translate(245.859 16.614)"><path d="M447.2,26.083c43.356,26.6,29.731,71.807,48.287,85.337C519.544,128.959,532.8,201.4,484.9,202.846c-95.268,2.871-218.379,0-218.379,0s-34.608-31.146-14.24-82.956,73.049-38.3,92.607-61.61S403.848-.515,447.2,26.083Z" transform="translate(-245.859 -16.614)" fill="#fcbac0"/><path d="M710.485,1021.156v-16.411h-7.2v3.282h-2.524v-6.565h-9.216v6.565h-2.019v-5.05h-2.02v-30.3h-2.525V953.49H672.738l.127,23.13-8.17.095V958.2h-12.66V977.88l-3.79.126V958.161h-4.418V949.7h-2.653v-5.685H630.826V949.7h-2.653v8.459h-4.419v10.752l-2.039.127-.612-31.855H607.472v16.946l-4.8.126V927.771h-1.641V922.18H586.641v5.591H585v41.693h-3.032V952.335h-2.525v-5.44h-3.661V931.007h-5.306v15.888h-3.661v5.442H564.3v18.829H562.53l-1.388-.018V949.33l-37.367.357v49.124h-3.159v-6.433H509.254v12.371h-3.282V1000.2h-7.2v9.215h-7.2v11.74Z" transform="translate(-468.296 -836.371)" fill="#ac0b18" opacity="0.9"/><path d="M1927.2,169.15a9.4,9.4,0,0,0-8.836,6.191,6.452,6.452,0,0,0-9.592,5.639c0,.211.011.42.031.626h41.99a5.187,5.187,0,0,0-6.358-3.852,7.635,7.635,0,0,0-9.181-4.056,9.4,9.4,0,0,0-8.054-4.548Z" transform="translate(-1751.198 -154.696)" fill="#fff"/><path d="M717.84,840.133A2.748,2.748,0,0,1,721.2,838.1a4.038,4.038,0,0,1,4.855-2.144,4.974,4.974,0,0,1,8.935.869,3.411,3.411,0,0,1,5.071,2.982c0,.111-.006.222-.016.331Z" transform="translate(-673.116 -756.135)" fill="#fff"/><path d="M1522.58,479.219a3.323,3.323,0,0,1,4.074-2.468,4.894,4.894,0,0,1,5.883-2.6,6.026,6.026,0,0,1,10.825,1.054,4.133,4.133,0,0,1,6.144,3.612c0,.136-.007.269-.02.4Z" transform="translate(-1401.602 -428.162)" fill="#fff"/><path d="M2321.72,646.821a3.323,3.323,0,0,1,4.074-2.464,4.89,4.89,0,0,1,5.883-2.6,6.027,6.027,0,0,1,10.821,1.05,4.134,4.134,0,0,1,6.144,3.613,4,4,0,0,1-.02.4Z" transform="translate(-2125.018 -579.886)" fill="#fff"/><path d="M434,1019.365a3.323,3.323,0,0,1,4.075-2.464,4.894,4.894,0,0,1,5.883-2.6,6.027,6.027,0,0,1,10.825,1.053,4.135,4.135,0,0,1,6.145,3.613c0,.135-.008.269-.02.4Z" transform="translate(-416.172 -917.125)" fill="#fff"/><path d="M948.168,925.536l-.918-.74c.023-.029.582-.719,1.658-1.906l.876.793C948.732,924.84,948.174,925.529,948.168,925.536Z" transform="translate(-880.788 -837.014)" fill="#fff"/><path d="M1132.231,610.537c-1.223-1.174-2.464-2.331-3.7-3.439l.791-.876c1.238,1.115,2.489,2.281,3.721,3.463Zm-129.371-2.274-.83-.84c1.188-1.174,2.437-2.351,3.711-3.5l.79.878c-1.26,1.129-2.495,2.293-3.671,3.455Zm121.877-4.482c-1.3-1.091-2.614-2.16-3.915-3.178l.727-.931c1.314,1.027,2.643,2.106,3.95,3.207Zm-114.379-2.274-.75-.912c1.31-1.078,2.653-2.138,4.005-3.151l.71.948c-1.34,1-2.673,2.047-3.969,3.114Zm106.427-3.932c-1.375-.989-2.771-1.952-4.15-2.86l.649-.986c1.394.916,2.8,1.889,4.191,2.888Zm-98.365-2.121-.663-.976c1.407-.959,2.843-1.9,4.278-2.771l.618,1.007C1021.233,593.583,1019.809,594.505,1018.42,595.454Zm89.947-3.411c-1.453-.864-2.93-1.694-4.389-2.464l.554-1.042c1.476.783,2.97,1.623,4.439,2.5Zm-81.358-1.855-.568-1.036c1.5-.82,3.023-1.6,4.534-2.332l.512,1.065c-1.493.715-3,1.49-4.48,2.3Zm72.463-2.857c-1.53-.712-3.084-1.383-4.62-2l.438-1.1c1.555.621,3.127,1.3,4.68,2.022Zm-63.392-1.5-.452-1.091c1.577-.655,3.18-1.266,4.766-1.818l.389,1.115c-1.563.541-3.146,1.146-4.7,1.791Zm54.045-2.219c-1.6-.531-3.222-1.015-4.818-1.438l.3-1.142c1.624.43,3.268.921,4.888,1.459Zm-44.544-1.085-.319-1.137c1.64-.461,3.307-.875,4.953-1.232l.247,1.155c-1.623.349-3.262.756-4.88,1.211Zm34.828-1.482c-1.645-.323-3.316-.594-4.961-.8l.15-1.172c1.674.214,3.369.489,5.039.818Zm-25-.619-.172-1.168c1.683-.246,3.389-.438,5.073-.568l.095,1.177c-1.659.127-3.339.316-5,.557Zm15.035-.654c-1.666-.095-3.359-.141-5.022-.125l-.01-1.182c1.689-.015,3.411.027,5.1.127Z" transform="translate(-930.378 -525.219)" fill="#fff"/><path d="M2415.779,948.4c-.569-.6-1.152-1.2-1.729-1.785l.842-.827c.581.591,1.167,1.2,1.741,1.8Z" transform="translate(-2208.598 -857.744)" fill="#fff"/><path d="M1767.08,126.408c-2.369.752-4.61,1.887-7,2.585a20.292,20.292,0,0,1-14.248-1.137c-4.949-2.351-8.915-6.707-14.2-8.138-3.855-1.042-7.951-.4-11.924-.8s-8.339-2.425-9.294-6.3a3.284,3.284,0,0,1,.106-2.206c.687-1.421,2.558-1.68,4.14-1.753a68.677,68.677,0,0,1,12.066.156c5.083.663,10.219,2.468,15.215,1.319,1.527-.352,2.98-.97,4.5-1.362,3.594-.926,7.354-.535,11.034.136a70.8,70.8,0,0,0-19.906-17.814q-2.369-1.455-4.726-2.663c-3.222,2.036-6.241,4.484-9.745,5.993-5.059,2.179-10.759,2.244-16.257,1.932-3.287-.19-6.906-.4-9.522,1.6-1.916,1.464-2.9,3.858-4.686,5.481-2.155,1.963-5.176,2.567-8,3.283-3.587.91-7.215,2.189-9.914,4.72s-4.264,6.58-2.953,10.044c1.659,4.4,6.953,6.129,11.635,6.527,5.99.511,12.153-.215,17.928,1.456,3.924,1.137,7.445,3.317,11.107,5.127a105.071,105.071,0,0,0,19.987,6.943c5.069,1.327,10.242,2.548,15.479,2.4,3.885-.112,7.715-.978,11.6-1.185,4.12-.22,8.419.274,12.248-1.22A122.745,122.745,0,0,0,1767.08,126.408Z" transform="translate(-1536.222 -81.625)" fill="#fff" opacity="0.3"/><path d="M572.2,356.787a3.741,3.741,0,0,0-2.179-.122,16.393,16.393,0,0,1-7.944-1.021,33.245,33.245,0,0,1-3.713-1.834c-3.244,3.336-6.177,6.633-8.763,9.714q-.685.818-1.421,1.575c.474.208.948.427,1.414.663,1.333.678,2.757,1.706,2.843,3.2.081,1.455-1.162,2.628-2.4,3.394-3.393,2.1-7.67,2.98-10.24,6.033-2.274,2.695-2.905,6.782-5.906,8.63a9.9,9.9,0,0,1-4.521,1.17c-5.218.379-10.677-.266-15.508,1.741-1.059.441-2.069,1-3.157,1.367a17.253,17.253,0,0,1-4.437.691,110.211,110.211,0,0,1-20.526-.693A63.639,63.639,0,0,0,472,401.633l.885.409a27.16,27.16,0,0,0,18.589,3.208,55.04,55.04,0,0,0,11.059-1.86c3.94-1.232,7.587-3.341,11.607-4.277,4.422-1.031,9.032-.584,13.571-.431,6.028.2,12.172-.145,17.854-2.168s10.9-5.89,13.536-11.313c1.4-2.866,2.1-6.167,4.276-8.5,2.251-2.414,5.692-3.36,8.149-5.56a10.589,10.589,0,0,0,1.667-13.353A2.9,2.9,0,0,0,572.2,356.787Z" transform="translate(-450.572 -321.858)" fill="#fff" opacity="0.3"/><rect width="11.02" height="1.473" transform="translate(140.345 104.651)" fill="#4188e4" opacity="0.3"/><g transform="translate(58.559 94.158)" opacity="0.2" style="mix-blend-mode:multiply;isolation:isolate"><rect width="4.421" height="5.727" transform="translate(0 22.718)" fill="#4188e4" style="mix-blend-mode:multiply;isolation:isolate"/><rect width="4.421" height="5.727" transform="translate(0 41.14)" fill="#4188e4" style="mix-blend-mode:multiply;isolation:isolate"/><rect width="4.421" height="5.727" transform="translate(6.795 22.718)" fill="#4188e4" style="mix-blend-mode:multiply;isolation:isolate"/><rect width="4.421" height="5.727" transform="translate(13.589 22.718)" fill="#4188e4" style="mix-blend-mode:multiply;isolation:isolate"/><rect width="4.421" height="5.727" transform="translate(13.589 53.606)" fill="#4188e4" style="mix-blend-mode:multiply;isolation:isolate"/><rect width="4.421" height="5.727" transform="translate(6.795 31.856)" fill="#4188e4" style="mix-blend-mode:multiply;isolation:isolate"/><rect width="4.421" height="5.727" transform="translate(6.795 63.389)" fill="#4188e4" style="mix-blend-mode:multiply;isolation:isolate"/><rect width="4.421" height="5.727" transform="translate(6.795 41.14)" fill="#4188e4" style="mix-blend-mode:multiply;isolation:isolate"/><rect width="4.421" height="5.727" transform="translate(19.429 41.14)" fill="#4188e4" style="mix-blend-mode:multiply;isolation:isolate"/><rect width="4.421" height="5.727" transform="translate(19.429 63.389)" fill="#4188e4" style="mix-blend-mode:multiply;isolation:isolate"/><rect width="4.421" height="5.727" transform="translate(24.988 22.718)" fill="#4188e4" style="mix-blend-mode:multiply;isolation:isolate"/><rect width="2.456" height="3.182" transform="translate(60.842)" fill="#4188e4" style="mix-blend-mode:multiply;isolation:isolate"/><rect width="2.456" height="3.182" transform="translate(65.951)" fill="#4188e4" style="mix-blend-mode:multiply;isolation:isolate"/><rect width="2.456" height="3.182" transform="translate(60.842 5.614)" fill="#4188e4" style="mix-blend-mode:multiply;isolation:isolate"/><rect width="2.456" height="3.182" transform="translate(71.061 5.614)" fill="#4188e4" style="mix-blend-mode:multiply;isolation:isolate"/><rect width="2.456" height="3.182" transform="translate(65.951 11.23)" fill="#4188e4" style="mix-blend-mode:multiply;isolation:isolate"/><rect width="2.456" height="3.182" transform="translate(71.061 11.23)" fill="#4188e4" style="mix-blend-mode:multiply;isolation:isolate"/><rect width="2.456" height="3.182" transform="translate(60.842 16.845)" fill="#4188e4" style="mix-blend-mode:multiply;isolation:isolate"/><rect width="2.456" height="3.182" transform="translate(71.061 16.845)" fill="#4188e4" style="mix-blend-mode:multiply;isolation:isolate"/><rect width="2.456" height="3.182" transform="translate(60.842 22.46)" fill="#4188e4" style="mix-blend-mode:multiply;isolation:isolate"/><rect width="2.456" height="3.182" transform="translate(65.951 22.46)" fill="#4188e4" style="mix-blend-mode:multiply;isolation:isolate"/><rect width="2.456" height="3.182" transform="translate(71.061 28.076)" fill="#4188e4" style="mix-blend-mode:multiply;isolation:isolate"/><rect width="2.456" height="3.182" transform="translate(60.842 39.306)" fill="#4188e4" style="mix-blend-mode:multiply;isolation:isolate"/><rect width="2.456" height="3.182" transform="translate(100.64 29.92)" fill="#4188e4" style="mix-blend-mode:multiply;isolation:isolate"/><rect width="2.456" height="3.182" transform="translate(114.285 29.92)" fill="#4188e4" style="mix-blend-mode:multiply;isolation:isolate"/><rect width="2.456" height="3.182" transform="translate(107.28 21.277)" fill="#4188e4" style="mix-blend-mode:multiply;isolation:isolate"/><rect width="2.456" height="3.182" transform="translate(146.761 26.078)" fill="#4188e4" style="mix-blend-mode:multiply;isolation:isolate"/><rect width="2.456" height="3.182" transform="translate(154.975 26.078)" fill="#4188e4" style="mix-blend-mode:multiply;isolation:isolate"/><rect width="2.456" height="3.182" transform="translate(154.975 31.749)" fill="#4188e4" style="mix-blend-mode:multiply;isolation:isolate"/><rect width="2.456" height="3.182" transform="translate(146.761 37.42)" fill="#4188e4" style="mix-blend-mode:multiply;isolation:isolate"/><rect width="2.456" height="3.182" transform="translate(154.975 37.42)" fill="#4188e4" style="mix-blend-mode:multiply;isolation:isolate"/><rect width="2.456" height="3.182" transform="translate(146.761 43.092)" fill="#4188e4" style="mix-blend-mode:multiply;isolation:isolate"/><rect width="2.456" height="3.182" transform="translate(150.867 48.764)" fill="#4188e4" style="mix-blend-mode:multiply;isolation:isolate"/><rect width="2.456" height="3.182" transform="translate(154.975 48.764)" fill="#4188e4" style="mix-blend-mode:multiply;isolation:isolate"/><rect width="2.456" height="3.182" transform="translate(154.975 54.435)" fill="#4188e4" style="mix-blend-mode:multiply;isolation:isolate"/><rect width="2.456" height="3.182" transform="translate(146.761 60.106)" fill="#4188e4" style="mix-blend-mode:multiply;isolation:isolate"/><rect width="2.456" height="3.182" transform="translate(150.867 60.106)" fill="#4188e4" style="mix-blend-mode:multiply;isolation:isolate"/><rect width="2.456" height="3.182" transform="translate(112.557 21.277)" fill="#4188e4" style="mix-blend-mode:multiply;isolation:isolate"/><rect width="2.456" height="3.182" transform="translate(100.64 36.32)" fill="#4188e4" style="mix-blend-mode:multiply;isolation:isolate"/><rect width="2.456" height="3.182" transform="translate(105.188 36.32)" fill="#4188e4" style="mix-blend-mode:multiply;isolation:isolate"/><rect width="2.456" height="3.182" transform="translate(100.64 42.722)" fill="#4188e4" style="mix-blend-mode:multiply;isolation:isolate"/><rect width="2.456" height="3.182" transform="translate(109.736 42.722)" fill="#4188e4" style="mix-blend-mode:multiply;isolation:isolate"/><rect width="2.456" height="3.182" transform="translate(114.285 42.722)" fill="#4188e4" style="mix-blend-mode:multiply;isolation:isolate"/><rect width="2.456" height="3.182" transform="translate(105.188 49.123)" fill="#4188e4" style="mix-blend-mode:multiply;isolation:isolate"/><rect width="2.456" height="3.182" transform="translate(100.64 55.525)" fill="#4188e4" style="mix-blend-mode:multiply;isolation:isolate"/><rect width="2.456" height="3.182" transform="translate(109.736 55.525)" fill="#4188e4" style="mix-blend-mode:multiply;isolation:isolate"/><rect width="2.456" height="3.182" transform="translate(114.285 55.525)" fill="#4188e4" style="mix-blend-mode:multiply;isolation:isolate"/><rect width="2.456" height="3.182" transform="translate(100.64 68.327)" fill="#4188e4" style="mix-blend-mode:multiply;isolation:isolate"/><rect width="2.456" height="3.182" transform="translate(109.736 68.327)" fill="#4188e4" style="mix-blend-mode:multiply;isolation:isolate"/><rect width="4.421" height="5.727" transform="translate(24.988 53.606)" fill="#4188e4" style="mix-blend-mode:multiply;isolation:isolate"/><rect width="13.561" height="1.474" transform="translate(39.209 24.212)" fill="#4188e4"/><rect width="11.02" height="1.474" transform="translate(81.786 20.037)" fill="#4188e4"/><rect width="11.02" height="1.474" transform="translate(81.786 23.219)" fill="#4188e4"/><rect width="11.02" height="1.474" transform="translate(81.786 32.764)" fill="#4188e4"/><rect width="11.02" height="1.474" transform="translate(125.942 29.92)" fill="#4188e4"/><rect width="11.02" height="1.473" transform="translate(125.942 33.101)" fill="#4188e4"/><rect width="11.02" height="1.474" transform="translate(125.942 39.463)" fill="#4188e4"/><rect width="11.02" height="1.474" transform="translate(125.942 49.008)" fill="#4188e4"/><rect width="11.02" height="1.474" transform="translate(125.942 55.371)" fill="#4188e4"/><rect width="11.02" height="1.473" transform="translate(125.942 61.734)" fill="#4188e4"/><rect width="11.02" height="1.474" transform="translate(125.942 68.098)" fill="#4188e4"/><rect width="11.02" height="1.474" transform="translate(81.786 42.308)" fill="#4188e4"/><rect width="11.02" height="1.474" transform="translate(81.786 48.672)" fill="#4188e4"/><rect width="13.561" height="1.474" transform="translate(39.209 28.445)" fill="#4188e4"/><rect width="13.561" height="1.474" transform="translate(39.209 32.678)" fill="#4188e4"/><rect width="13.561" height="1.474" transform="translate(39.209 41.143)" fill="#4188e4"/><rect width="13.561" height="1.474" transform="translate(39.209 49.607)" fill="#4188e4"/><rect width="13.561" height="1.474" transform="translate(39.209 53.84)" fill="#4188e4"/><rect width="13.561" height="1.474" transform="translate(39.209 62.305)" fill="#4188e4"/><rect width="13.561" height="1.474" transform="translate(39.209 70.77)" fill="#4188e4"/></g><rect width="11.02" height="1.474" transform="translate(140.345 107.832)" fill="#4188e4" opacity="0.3"/><path d="M895.711,995.508l3.183,6.317,3.341-6.235a3.574,3.574,0,0,0-3.089-5h-.222A3.571,3.571,0,0,0,895.711,995.508Zm1.629-1.31a1.651,1.651,0,1,1,1.629,1.671A1.651,1.651,0,0,1,897.34,994.2Z" transform="translate(-833.895 -898.299)" fill="#ff5b7e"/><path d="M373.164,1552.718a3.34,3.34,0,0,0,2.614-2.695c.7-3.835,2.92-10.585,9.855-10.707,8.165-.146,9.622,5.976,9.428,10.436a1.9,1.9,0,0,0,1.971,1.99c2.415-.1,5.938.46,5.938,4.58,0,0,2.184,7.759-4.027,9.629s-9.215-.589-11.878,1.9c-2.458,2.3-10.478,4.7-14.351-.547a8.467,8.467,0,0,0-2.21-2.068c-1.455-.942-3.369-3.227-1.769-8.469a5.843,5.843,0,0,1,4.325-4.032Z" transform="translate(-356.545 -1395.027)" fill="#f26571"/><path d="M447.348,1603.314a10.68,10.68,0,0,0-1.578,1.487c-.122.141-.242.284-.356.438a6.243,6.243,0,0,1,.251-1.59c.148-.407.574-1.1,1.1-2.074a15,15,0,0,1,2.017-2.085,8.018,8.018,0,0,1,2.693-1.577,7.871,7.871,0,0,0-2.917,1.172q-.426.266-.853.582a23.529,23.529,0,0,0,1.889-11.917,40.875,40.875,0,0,1-.9,6.763,9.95,9.95,0,0,0-.5-1.507,12.593,12.593,0,0,0-1.54-2.66,12.962,12.962,0,0,1,1.232,2.8c.74,2.541.26,3.4-.14,4.264-1.187,2.571-2.625,4.421-3.236,5.928q-.344-.735-.7-1.458-.758-1.546-1.571-3.057-.132-.244-.266-.489a8.323,8.323,0,0,1-.271-1.222c-.059-.357-.107-.718-.141-1.082a17.283,17.283,0,0,1-.074-2.2,17.469,17.469,0,0,0-.127,2.212q0,.557.044,1.115c0,.061.009.122.014.184l-.009-.016c-.284-.494-.569-.984-.871-1.466s-.605-.957-.927-1.421a14.894,14.894,0,0,0-1.024-1.327,15.072,15.072,0,0,1,.94,1.4c.293.483.569.978.837,1.479s.525,1.009.777,1.516.5,1.029.735,1.548c.03.066.061.134.095.2-.161-.049-.314-.095-.583-.162a17.308,17.308,0,0,0-3.17-.461,17.3,17.3,0,0,1,3.092.795,9.843,9.843,0,0,1,.912.379q.533,1.19,1.035,2.4.33.8.646,1.6c.1.266.208.534.309.8v.007c0,.068,0,.135.006.2.037.474.127,1.62.225,3.08a9.476,9.476,0,0,0-2.558-.885,21.043,21.043,0,0,0-3.384-.224,2.975,2.975,0,0,1-.535-.485,4.182,4.182,0,0,1-.979-2.179,4.436,4.436,0,0,0,.812,2.351c.072.1.15.2.23.291-.45-.023-.9-.056-1.346-.111a8.424,8.424,0,0,1-1.447-.3,3.978,3.978,0,0,1-1.355-.668,4.136,4.136,0,0,0,1.311.795,8.538,8.538,0,0,0,1.331.393l-.274.043c-.332.06-.663.127-.991.208s-.654.173-.975.284a6.516,6.516,0,0,0-.938.409,6.392,6.392,0,0,1,.957-.325c.325-.083.653-.146.983-.2s.663-.095.991-.12,1.279-.063,1.611-.07h0a30.132,30.132,0,0,1,3.874.556,8.952,8.952,0,0,1,2.647,1.218l.095.068c.244,3.961.465,9.381-.053,10.756-.773,2.045,3.919,1.31,3.919,1.31s-1.579-.879-2.2-5.48a77.431,77.431,0,0,1-.792-8.743l.065-.146c.073-.158.154-.315.238-.468a9.814,9.814,0,0,1,.554-.893,10.553,10.553,0,0,1,1.363-1.584,11.288,11.288,0,0,1,3.421-2.22A11.04,11.04,0,0,0,447.348,1603.314Z" transform="translate(-415.584 -1438.874)" fill="#07085b"/><path d="M743.506,1379.183a15.806,15.806,0,0,0,8.93-2.536,9.137,9.137,0,0,0,4.5-6.321c.843-6.6-2.957-6.379-3.885-9.069s1.833-3.894.639-8.8c-.641-2.632-2.669-3.772-5.832-8s-7-6.4-9.792-4.821-2.685,4.97-4.763,6.1-5.274,5.073-4.056,12.572-7.027,4.7-3.8,13.377C727.8,1378.049,738.151,1379.083,743.506,1379.183Z" transform="translate(-679.314 -1213.806)" fill="#f26571"/><path d="M811.1,1489.023c.294,4.169.724,20.759.1,22.2-.932,2.151,3.957-.529,3.957-.529s-1.3-9.907-2.052-14.745c-.335-2.154-.948-8.633-.955-9.2.025-.051.052-.1.08-.154.087-.167.185-.331.284-.493a10.314,10.314,0,0,1,.669-.94,11.718,11.718,0,0,1,1.64-1.663,14.081,14.081,0,0,1,4.124-2.335,14.192,14.192,0,0,0-4.425,1.93,12.308,12.308,0,0,0-1.9,1.564c-.147.149-.29.3-.429.459a5.779,5.779,0,0,1,.3-1.671c.178-.429.693-1.155,1.327-2.179a17.091,17.091,0,0,1,2.432-2.194,10.066,10.066,0,0,1,3.246-1.659,10.325,10.325,0,0,0-3.516,1.232c-.349.19-.69.392-1.033.612a21.918,21.918,0,0,0,2.274-12.534,37.831,37.831,0,0,1-1.081,7.113,9.582,9.582,0,0,0-.6-1.585,12.933,12.933,0,0,0-1.856-2.8,12.726,12.726,0,0,1,1.483,2.951c.863,2.585.35,3.506-.169,4.482-1.432,2.7-3.164,4.651-3.9,6.235q-.414-.771-.843-1.534-.916-1.626-1.9-3.215-.159-.257-.32-.514a5.614,5.614,0,0,1-.21-.726c-.043-.19-.083-.372-.118-.561-.07-.379-.129-.758-.17-1.137s-.074-.766-.086-1.152c-.021-.406-.009-.853,0-1.16-.037.293-.095.749-.117,1.159-.028.388-.036.777-.035,1.167s.02.782.051,1.172c0,.065.011.13.018.189a.133.133,0,0,1-.01-.017c-.342-.519-.689-1.036-1.049-1.542s-.731-1.007-1.118-1.492a16.133,16.133,0,0,0-1.232-1.394,16.019,16.019,0,0,1,1.137,1.469c.353.509.686,1.029,1.009,1.556s.632,1.062.936,1.6.6,1.081.886,1.628l.111.21a18.66,18.66,0,0,0-1.97-.4,25.135,25.135,0,0,0-2.558-.251,24.645,24.645,0,0,1,2.505.489,15.93,15.93,0,0,1,2.322.75q.643,1.251,1.247,2.52.4.836.779,1.679a3.478,3.478,0,0,1,.3.68C810.853,1485.186,811.1,1489.023,811.1,1489.023Z" transform="translate(-750.669 -1329.321)" fill="#07085b"/><path d="M2426.278,1036.893l3.156,6.332L2432.8,1037a3.573,3.573,0,0,0-3.066-5.014h-.222A3.569,3.569,0,0,0,2426.278,1036.893Zm1.636-1.3a1.651,1.651,0,1,1,1.622,1.678A1.65,1.65,0,0,1,2427.914,1035.592Z" transform="translate(-2219.435 -935.776)" fill="#07085b"/><path d="M652.52,1837.07s.274-4.548,4.233-4.127c0,0,5.391-8.592,11.033,3.537,0,0,5.1-2.754,6.97,3.235,0,0,3.137-5.846,7.6-3.909s5.987,7.256,5.987,7.256l-32.948.7Z" transform="translate(-613.986 -1658.161)" fill="#f26571"/><path d="M1623.974,954.68c-.165.109-3.066,5.323-3.066,5.323L1617,956.575l3.79-6.325,3.184,1.777Z" transform="translate(-1487.075 -861.782)" fill="#ffd8d5"/><path d="M1633.9,953.851a6.853,6.853,0,0,0,3.444,4.075c.833-1.477,1.834-3.231,1.929-3.294v-2.66l-3.177-1.782Z" transform="translate(-1502.373 -861.727)" fill="#f99893"/><path d="M1235.478,1551.729s-1.1-.779-2.16,1.714.363,3.485.363,3.485,1.814-1.343,1.8-1.6-.082-3.476-.082-3.476Z" transform="translate(-1139.396 -1406.162)" fill="#fff"/><path d="M1244.512,1542.449s-.894-.551-1.9,1.024a10.25,10.25,0,0,0-1.118,2.74c-1.343,4.8,0,4.8,0,4.8l2.254-.959s2.158-5.5,2.03-5.947A8.2,8.2,0,0,0,1244.512,1542.449Z" transform="translate(-1146.615 -1397.781)" fill="#ff5b7e"/><rect width="38.556" height="1.471" rx="0.735" transform="translate(78.833 132.32)" fill="#283f56"/><rect width="2.59" height="6.858" transform="translate(107.558 133.056)" fill="#283f56"/><path d="M1167.881,1406.62H1171v5.205a1.126,1.126,0,0,1-1.126,1.126h-.866a1.126,1.126,0,0,1-1.126-1.126v-5.205Z" transform="translate(-1080.512 -1274.907)" fill="#283f56"/><path d="M1187.521,1457c.372.425,9.447,8.968,9.447,8.968l-.768,1.056-9.591-9.46Z" transform="translate(-1097.467 -1320.514)" fill="#283f56"/><path d="M2052.289,1623.21h.508a1.919,1.919,0,0,1,1.919,1.919v2.464h-2.369s-1.055-1.822-1.438-1.438S2052.289,1623.21,2052.289,1623.21Z" transform="translate(-1879.818 -1470.974)" fill="#ffe5b6"/><circle cx="13.901" cy="13.901" r="13.901" transform="translate(90.971 170.875) rotate(-45)" fill="#1a1a1a"/><path d="M1359.763,1760.055a6.266,6.266,0,1,1-6.266-6.265,6.266,6.266,0,0,1,6.266,6.265Z" transform="translate(-1242.867 -1589.181)" fill="#9e9da2"/><circle cx="13.901" cy="13.901" r="13.901" transform="translate(162.285 184.422) rotate(-88.57)" fill="#1a1a1a"/><path d="M2055.272,1760.055a6.266,6.266,0,1,1-6.266-6.265,6.266,6.266,0,0,1,6.266,6.265Z" transform="translate(-1872.473 -1589.181)" fill="#9e9da2"/><path d="M1214.322,1705.88h32.842v8.758h-32.842a2.892,2.892,0,0,1-2.892-2.892v-2.974A2.892,2.892,0,0,1,1214.322,1705.88Z" transform="translate(-1119.935 -1545.81)" fill="#283f56"/><rect width="31.12" height="5.221" rx="2.611" transform="translate(104.281 138.459)" fill="#ff9fa7"/><path d="M1283.716,1391.519s-2.489,1.375-4.5,7.129-1.582,14.433,10.933,15.105h19.23l1.918-3.372s-1.63-22.955-5.371-33.121h6.33s1.911,19.54,8.623,22.173a1.691,1.691,0,0,1,1.063,1.579v3.867l-10.166,13.139H1278.3s-7.865.694-9.782-12.66l-22.694-.348a1.871,1.871,0,0,1-1.76-2.415c.709-2.3,2.15-5.556,4.766-6.27C1252.981,1395.2,1283.716,1391.519,1283.716,1391.519Z" transform="translate(-1149.404 -1248.329)" fill="#333"/><path d="M1271.474,1533.3c.03.052.063.1.095.156h32.6l.333-.767c1.795-3.931,3.63-4.944,3.63-4.944H1274.7A3.7,3.7,0,0,0,1271.474,1533.3Z" transform="translate(-1173.826 -1384.55)" fill="#283f56"/><path d="M1239.64,1576.35H1264a3.806,3.806,0,0,0,3.6-5.054c-1.3-3.733-4.314-7.749-11.74-8.433-9.591-.888-15.391,6.776-17.686,11.031a1.67,1.67,0,0,0,1.465,2.457Z" transform="translate(-1143.967 -1416.28)" fill="#ff9fa7"/><path d="M1893.425,1674.038l7.481-12.084s3.837-2.973,11.413-1.438a13.887,13.887,0,0,1,8.92,6.335,1.56,1.56,0,0,1-1.31,2.4h-11.52a11.675,11.675,0,0,0-9.09,4.349l-.3.366a8.427,8.427,0,0,1-6.561,3.138h0a6.768,6.768,0,0,1-4.636-1.838l-1.307-1.232Z" transform="translate(-1731.056 -1504.346)" fill="#ff9fa7"/><path d="M1868.451,1234.867a1.611,1.611,0,0,0-1.925-1.583c-4.242.835-8.7,4.234-8.7,8.3s4.454,7.466,8.7,8.3a1.611,1.611,0,0,0,1.925-1.583Z" transform="translate(-1705.084 -1117.968)" fill="#ff9fa7"/><path d="M1969.92,1250.67v13.361a7.012,7.012,0,0,0,0-13.361Z" transform="translate(-1806.553 -1133.735)" fill="#fff"/><rect width="33.057" height="19.933" transform="translate(81.582 112.387)" fill="#ff5b7e"/><rect width="34.463" height="2.509" transform="translate(80.879 109.877)" fill="#d12a56"/><path d="M1178.478,1449.183a.684.684,0,1,1-.683-.683A.684.684,0,0,1,1178.478,1449.183Z" transform="translate(-1088.868 -1312.819)" fill="#282828"/><rect width="16.401" height="0.912" rx="0.456" transform="translate(102.1 151.725)" fill="#333"/><rect width="16.401" height="0.912" rx="0.456" transform="translate(102.1 154.03)" fill="#333"/><path d="M1754.851,1631.85l-1.2,12.907-1.033,1.86-1.856-1.343.038-13.754Z" transform="translate(-1608.16 -1478.496)" fill="#ffc0bb"/><path d="M1834.23,1622.23l-.592,14.117-1.032,1.86-1.856-1.343.037-13.754Z" transform="translate(-1680.57 -1470.087)" fill="#ffc0bb"/><path d="M1833.5,1792.179l-8.013.028a.114.114,0,0,1-.114-.113v-.6a.113.113,0,0,1,.113-.115l8.013-.027a.113.113,0,0,1,.114.113v.6A.114.114,0,0,1,1833.5,1792.179Z" transform="translate(-1675.7 -1623.181)" fill="#daeef7"/><path d="M1826.664,1760.619l-.265,2.307c-.033.284.127.542.336.541l7.26-.024a.53.53,0,0,0,.474-.341,1.006,1.006,0,0,0-.207-1.027c-.653-.917-2.79-1.137-3.837-1.915l-3.382.011A.455.455,0,0,0,1826.664,1760.619Z" transform="translate(-1676.627 -1594.947)" fill="#ff5b7e"/><path d="M1863.007,1763.439h0a.155.155,0,0,1-.042-.189,1.4,1.4,0,0,1,1.492-.932.131.131,0,0,1,.08.151h0c-.008.07-.055.115-.106.107a1.209,1.209,0,0,0-1.3.808C1863.1,1763.443,1863.049,1763.465,1863.007,1763.439Z" transform="translate(-1709.718 -1596.881)" fill="#daeef7"/><path d="M1870.974,1766.547h0a.156.156,0,0,1-.043-.189,1.4,1.4,0,0,1,1.492-.932c.052.009.088.079.079.15h0c-.008.069-.055.115-.106.107a1.209,1.209,0,0,0-1.3.808C1871.068,1766.551,1871.019,1766.573,1870.974,1766.547Z" transform="translate(-1716.931 -1599.694)" fill="#daeef7"/><path d="M1878.386,1769.447h0a.155.155,0,0,1-.042-.19,1.4,1.4,0,0,1,1.491-.932c.052.009.088.079.08.15h0c-.008.069-.055.115-.106.106a1.21,1.21,0,0,0-1.3.809C1878.48,1769.45,1878.43,1769.473,1878.386,1769.447Z" transform="translate(-1723.641 -1602.319)" fill="#daeef7"/><path d="M1828.673,1775.659c-.578-1.862-1.565-2.064-2.1-2.019l-.171,1.484c-.033.284.127.542.336.541Z" transform="translate(-1676.627 -1607.144)" fill="#e87b50" opacity="0.3" style="mix-blend-mode:multiply;isolation:isolate"/><rect width="16.401" height="0.912" rx="0.456" transform="translate(102.1 156.335)" fill="#333"/><path d="M1790.084,1434.52c.948.073,4.893,1.68,5.4,4.528s0,24.978,0,24.978h-4.379s-3.506-17.53-3.506-18.04S1790.084,1434.52,1790.084,1434.52Z" transform="translate(-1641.51 -1300.163)" fill="#282828"/><path d="M1496.248,1367.47c.073.219-.963,10.005,9.013,10.809a122.727,122.727,0,0,1,15.745,2.118s-1.387,22.13-1.314,23.225a23.42,23.42,0,0,0,4.893.365s7.814-24.542,5.551-29.578-20.3-6.938-20.3-6.938Z" transform="translate(-1377.763 -1239.467)" fill="#333"/><path d="M1617.426,1181.282s.1,4.763.42,5.205,15.434,6.215,15.434,6.215l-2.482,2.806-11.138-3.182s-7.978-2.862-7.9-3.068.52-3.137.916-4.285a34.314,34.314,0,0,1,1.883-3.743Z" transform="translate(-1482.334 -1070.875)" fill="#f9b7b4"/><path d="M1500.483,1006.3s-10.1,3.67-11.25,23.608l-.493,11.339s11.5,4.927,18.076.658c0,0,.663-20.237,1.358-27.636a3.79,3.79,0,0,0-1.356-3.271C1504.614,1009.176,1500.855,1006.132,1500.483,1006.3Z" transform="translate(-1370.968 -912.517)" fill="#ffc943"/><path d="M1567.5,1149.289s-2.469,10.207.983,13.012c2.153,1.749,22.227,5.179,22.227,5.179l1.294-3.127s-15.986-5.705-16.94-6.366.647-9.387.647-9.387Z" transform="translate(-1441.488 -1041.336)" fill="#ffd8d5"/><path d="M1569.474,1037.778a3.158,3.158,0,0,0-3.317-.544c-1.543.651-3.751,2.5-4.945,7.71l-1.012,4.494s7.5,1.842,9.805,1.738l1.178-6.948S1571.852,1039.886,1569.474,1037.778Z" transform="translate(-1435.657 -940.299)" fill="#b98400"/><path d="M1230.036,1176.153h-6.14l-11.525,22.44h6.145l11.521-22.443Z" transform="translate(-1120.786 -1066.276)" fill="#333"/><path d="M1271.137,1259.831l-4.124-2.117a1.291,1.291,0,0,1-.558-1.735l1.212-2.361a1.29,1.29,0,0,1,1.735-.557l4.124,2.117a1.29,1.29,0,0,1,.558,1.735l-1.212,2.362A1.291,1.291,0,0,1,1271.137,1259.831Zm-2.085-6.1a.533.533,0,0,0-.718.231l-1.212,2.36a.535.535,0,0,0,.231.718l4.124,2.117a.534.534,0,0,0,.718-.231l1.212-2.36a.535.535,0,0,0-.231-.718Z" transform="translate(-1169.618 -1135.769)" fill="#ffe5b6"/><path d="M1609.849,913.982a2.021,2.021,0,0,1-.923,2.773,2.2,2.2,0,0,1-2.765-1.232,2.021,2.021,0,0,1,.923-2.773A2.2,2.2,0,0,1,1609.849,913.982Z" transform="translate(-1477.066 -827.705)" fill="#ffc0bb"/><path d="M1751.6,1792.179l-8.013.028a.113.113,0,0,1-.114-.113v-.6a.114.114,0,0,1,.113-.115l8.013-.027a.113.113,0,0,1,.114.113v.6a.112.112,0,0,1-.113.114Z" transform="translate(-1601.561 -1623.181)" fill="#daeef7"/><path d="M1744.764,1760.619l-.265,2.307c-.033.284.127.542.335.541l7.261-.024a.53.53,0,0,0,.474-.341,1.01,1.01,0,0,0-.207-1.027c-.653-.917-2.79-1.137-3.837-1.915l-3.383.011A.455.455,0,0,0,1744.764,1760.619Z" transform="translate(-1602.488 -1594.947)" fill="#ff5b7e"/><path d="M1781.1,1763.439h0a.155.155,0,0,1-.042-.189,1.4,1.4,0,0,1,1.492-.932.13.13,0,0,1,.079.151h0c-.009.07-.055.115-.106.107a1.208,1.208,0,0,0-1.3.808C1781.193,1763.443,1781.143,1763.465,1781.1,1763.439Z" transform="translate(-1635.572 -1596.881)" fill="#daeef7"/><path d="M1789.069,1766.547h0a.155.155,0,0,1-.042-.189,1.4,1.4,0,0,1,1.492-.932c.053.009.088.079.08.15h0c-.009.069-.056.115-.106.107a1.208,1.208,0,0,0-1.3.808C1789.164,1766.551,1789.113,1766.573,1789.069,1766.547Z" transform="translate(-1642.787 -1599.694)" fill="#daeef7"/><path d="M1796.449,1769.447h0a.155.155,0,0,1-.042-.19,1.4,1.4,0,0,1,1.491-.932c.053.009.089.079.08.15h0c-.009.069-.056.115-.106.106a1.21,1.21,0,0,0-1.3.809C1796.544,1769.45,1796.5,1769.473,1796.449,1769.447Z" transform="translate(-1649.467 -1602.319)" fill="#daeef7"/><path d="M1746.772,1775.659c-.578-1.862-1.564-2.064-2.1-2.019l-.171,1.484c-.033.284.127.542.335.541Z" transform="translate(-1602.488 -1607.144)" fill="#e87b50" opacity="0.3" style="mix-blend-mode:multiply;isolation:isolate"/><rect width="43.99" height="4.798" rx="2.399" transform="translate(121.928 168.288)" fill="#283f56"/><path d="M1026.314,1891.974H999.458s-12.276-3.8,0-3.671c0,0-7.225-5.368,3.709-4.091s11.956,4.539,11.956,4.539S1017.3,1884.9,1026.314,1891.974Z" transform="translate(-923.11 -1707.067)" fill="#fff" opacity="0.8"/><path d="M1674.971,1927.657l17.465-.127s-9.541-5.5-10.884-3.1C1681.552,1924.433,1664.649,1920.937,1674.971,1927.657Z" transform="translate(-1536.53 -1742.831)" fill="#fff" opacity="0.8"/><path d="M1986.845,1857.413h-30.63s-2.739-3.286,3.287-2.094c0,0-3.908-5.03,5.125-3.015l5.49,1.839s-8.96-11.335,1.1-7.4A41.234,41.234,0,0,1,1986.845,1857.413Z" transform="translate(-1793.585 -1672.573)" fill="#fff" opacity="0.8"/><path d="M1444.755,1926.329h-8.1s-1.051-2.3,1.9-1.15C1438.551,1925.179,1434.588,1917.442,1444.755,1926.329Z" transform="translate(-1323.658 -1741.503)" fill="#fff" opacity="0.8"/><path d="M1691.682,956.5l-.4,1.547s-3.464-2.808-3.437-2.863.63-1.055.89-.972,2.424.917,2.424.972S1691.682,956.5,1691.682,956.5Z" transform="translate(-1551.21 -865.365)" fill="#fff"/><path d="M1631.723,858.091a4.246,4.246,0,0,0,2.558,1.281c.148-.533.25-.919.25-.919a4.694,4.694,0,0,0,1.54-.776,6.987,6.987,0,0,1-1.2-2.369c-.017-.758,1.157-5.288-2.105-7.856s-5.2,2.038-5.2,2.038l-1.383,4.767-1.9,2.883a7.563,7.563,0,0,0,3.045,4.44,6.744,6.744,0,0,0,5.934.909,11.038,11.038,0,0,0,.769-2.231A4.054,4.054,0,0,1,1631.723,858.091Z" transform="translate(-1493.674 -768.019)" fill="#ffd8d5"/><path d="M1708.532,929.3a.53.53,0,0,0,.7.189.481.481,0,0,0,.2-.67.53.53,0,0,0-.7-.189.481.481,0,0,0-.2.67Z" transform="translate(-1569.876 -842.15)" fill="#333"/><path d="M1701.32,916.951a4.336,4.336,0,0,1,.543-.4,2.359,2.359,0,0,1,.574-.258,2.16,2.16,0,0,1,.617-.089h.08a.475.475,0,0,1,.082,0l.165.009c.111.008.221.029.342.032a1.9,1.9,0,0,0-.3-.181,1.555,1.555,0,0,0-.339-.106,1.5,1.5,0,0,0-.735.035,1.611,1.611,0,0,0-.643.366A1.438,1.438,0,0,0,1701.32,916.951Z" transform="translate(-1563.405 -830.715)" fill="#333"/><path d="M1621.523,884.356s-1.146.971-1.432,5.431a4.126,4.126,0,0,1-3.06,4c.058-.019.814-7.6.96-7.855s1.12-3.14,1.272-3.213a19.512,19.512,0,0,1,2.233,1.246C1621.608,884,1621.523,884.356,1621.523,884.356Z" transform="translate(-1487.103 -800.649)" fill="#d12a56"/><path d="M1565.441,797.158s-1.168-7.658-10.992-7.243-9.5,11.808-9.5,11.808-.4,8.255,5.484,8.253c0,0,3.98.256,3.98-4.71,0-4.8,1.461-4.8,1.461-4.8Z" transform="translate(-1421.844 -716.624)" fill="#ff5b7e"/><path d="M1547.112,831.86a15.186,15.186,0,0,0-2.145,7.839s-.4,8.255,5.484,8.253c0,0,3.875.248,3.98-4.517C1549.04,841.526,1547.293,836.783,1547.112,831.86Z" transform="translate(-1421.863 -754.61)" fill="#ff5b7e" opacity="0.5" style="mix-blend-mode:multiply;isolation:isolate"/><path d="M1591.819,958.363a1.114,1.114,0,1,1-1.115-1.113A1.114,1.114,0,0,1,1591.819,958.363Z" transform="translate(-1462.262 -868.118)" fill="#d12a56"/><path d="M1660.32,867.478c.3-.1,7.789-.68,11.307-.948a.642.642,0,0,0,.317-1.166l-2.058-1.435Z" transform="translate(-1526.29 -783.641)" fill="#1a1a1a"/><path d="M1660.32,853.993c.333-.115,7.65-2.538,9.76-3.234a.546.546,0,0,0,.33-.732l-.284-.663a.546.546,0,0,0-.758-.266Z" transform="translate(-1526.29 -770.156)" fill="#283f56"/><path d="M1793.64,1296.98s2.482-1.51,3.56-1.51,3.345.647,3.345,1.726a2.586,2.586,0,0,1-.647,1.727l-2.192,1.89s-1.042.806-1.476.379-1.726.108-3.863-1.074c-2.1-1.16-.13-1.839.19-2.163S1793.64,1296.98,1793.64,1296.98Z" transform="translate(-1644.96 -1174.29)" fill="#ffd8d5"/><path d="M1843.592,1306.306a2.3,2.3,0,1,1-2.3-2.3,2.3,2.3,0,0,1,2.3,2.3Z" transform="translate(-1688.039 -1182.02)" fill="#1a1a1a"/><rect width="242.134" height="2.756" rx="1.378" transform="translate(17.773 184.788)" fill="#ac0b18"/><path d="M2382.526,1494.132a13.045,13.045,0,0,1-7.371-2.093,7.543,7.543,0,0,1-3.709-5.216c-.7-5.445,2.441-5.265,3.209-7.486s-1.516-3.215-.527-7.259c.529-2.173,2.2-3.114,4.814-6.6s5.773-5.281,8.082-3.98,2.215,4.1,3.931,5.034,4.353,4.187,3.347,10.376,5.8,3.885,3.136,11.041C2395.485,1493.2,2386.948,1494.052,2382.526,1494.132Z" transform="translate(-2169.941 -1324.196)" fill="#f26571"/><path d="M2455.921,1584.822c-.243,3.439-.6,17.133-.082,18.323.769,1.775-3.266-.437-3.266-.437s1.073-8.176,1.694-12.17c.276-1.777.784-7.125.789-7.59l-.065-.127a10.164,10.164,0,0,0-5.545-4.482,10.962,10.962,0,0,1,5.576,3.263,4.755,4.755,0,0,0-.25-1.38,8.318,8.318,0,0,0-3.1-3.611,10.157,10.157,0,0,0-1.271-.8c-.223-.118-.452-.224-.686-.32a6.6,6.6,0,0,0-.721-.245,6.837,6.837,0,0,1,.758.145c.248.065.5.141.737.229a10.469,10.469,0,0,1,1.411.643q.433.236.853.505a18.118,18.118,0,0,1-1.879-10.346,31.36,31.36,0,0,0,.892,5.875,7.884,7.884,0,0,1,.5-1.308,10.16,10.16,0,0,1,1.1-1.773c.143-.181.29-.358.434-.536-.122.2-.245.388-.365.583a9.977,9.977,0,0,0-.859,1.853,7.477,7.477,0,0,0-.319,1.3,6.256,6.256,0,0,0-.043,1.27,9.9,9.9,0,0,0,.5,1.13c1.182,2.232,2.612,3.838,3.222,5.145q.342-.637.7-1.266c.505-.895,1.023-1.781,1.564-2.653.087-.142.176-.284.264-.424a9.8,9.8,0,0,0,.41-2,13.044,13.044,0,0,0,.074-1.908,13.321,13.321,0,0,1,.126,1.92c0,.322-.017.645-.042.968a1.46,1.46,0,0,1-.016.16l.01-.013c.284-.429.568-.853.865-1.274s.6-.831.923-1.232a13.473,13.473,0,0,1,1.019-1.15,13.465,13.465,0,0,0-.935,1.213c-.291.42-.569.853-.832,1.284s-.523.877-.773,1.321-.493.893-.731,1.344l-.095.173c.1-.027.254-.068.579-.14a19.4,19.4,0,0,1,3.154-.4,19.272,19.272,0,0,0-3.077.69c-.3.095-.62.208-.907.333q-.532,1.032-1.03,2.085-.329.689-.642,1.385a2.914,2.914,0,0,0-.25.562C2456.124,1581.651,2455.921,1584.822,2455.921,1584.822Z" transform="translate(-2240.228 -1419.565)" fill="#ac0b18"/><path d="M465.19,1891.845a6.85,6.85,0,0,1,6.654-2.8,9.923,9.923,0,0,1,8.929-5.081c6.653-.06,7.917,4.575,7.917,4.575s1.9-1.6,6.19.043a11.044,11.044,0,0,1,5.811,4.6Z" transform="translate(-444.407 -1707.02)" fill="#ac0b18"/><path d="M2442.455,1837.07s-.274-4.548-4.233-4.127c0,0-5.391-8.592-11.033,3.537,0,0-5.1-2.754-6.97,3.235,0,0-3.137-5.846-7.6-3.909s-5.987,7.256-5.987,7.256l32.948.7Z" transform="translate(-2201.882 -1658.161)" fill="#f26571"/><path d="M2632.842,1891.845a6.85,6.85,0,0,0-6.654-2.8,9.922,9.922,0,0,0-8.929-5.081c-6.653-.06-7.917,4.575-7.917,4.575s-1.9-1.6-6.19.043a11.044,11.044,0,0,0-5.812,4.6Z" transform="translate(-2374.521 -1707.02)" fill="#ac0b18"/><path d="M2601.688,1244.471a10.192,10.192,0,0,1-5.3-5.945c-.716-2.48-.161-5.117.441-7.622a5.467,5.467,0,0,0,.1-3.323,6.823,6.823,0,0,0-1.238-1.73c-4-4.708-4.909-11.175-4.4-17.2a11.821,11.821,0,0,1,1.223-4.862,5.336,5.336,0,0,1,4.115-2.825c2.723-.179,5.318,2.23,7.911,1.421,1.859-.581,2.8-2.577,4.481-3.522a9.016,9.016,0,0,1,4.807-.676,4.715,4.715,0,0,1,1.525.234,3.881,3.881,0,0,1,1.984,2.628c.557,1.723.833,3.519,1.392,5.241a8.747,8.747,0,0,0,2.963,4.515,24.429,24.429,0,0,0,4.079,1.938,18.3,18.3,0,0,1,7.656,7.675,12.265,12.265,0,0,1,1.327,2.945,7.764,7.764,0,0,1-3.917,8.623c-1.153.609-2.45.948-3.6,1.561-2.633,1.413-4.169,4.09-5.674,6.579s-3.323,5.083-6.159,6.073C2611.53,1247.55,2605.214,1246.271,2601.688,1244.471Z" transform="translate(-2368.934 -1086.19)" fill="#f26571"/><path d="M2724.995,1286.8c-.615-.089-1.232-.135-1.852-.162s-1.239-.022-1.858,0q-.255.009-.508.022a16.116,16.116,0,0,0,2.3-1.313,8.537,8.537,0,0,0,2.151-2.085,7.913,7.913,0,0,1-2.24,1.878,15.708,15.708,0,0,1-2.54,1.168c-.8.291-1.6.538-2.411.765.121-.214.232-.436.335-.663a9.234,9.234,0,0,0,.548-1.581,9.8,9.8,0,0,0,.267-1.67,10.623,10.623,0,0,0-.018-1.684,10.525,10.525,0,0,1-.119,1.66,9.2,9.2,0,0,1-.39,1.575,8.322,8.322,0,0,1-.641,1.421c-.126.222-.26.435-.4.637a2.435,2.435,0,0,1-.474.542c-.663.175-1.334.343-2,.514a18.822,18.822,0,0,0-8.427,4.075c-.138-1.648-.289-3.535-.392-4.856a12.266,12.266,0,0,1,.2-3.356v-.017q.342-1.7.715-3.388.569-2.566,1.189-5.112a18.418,18.418,0,0,0,.716-4.842,3.669,3.669,0,0,0,0-.663v-.033c-.06-.739-.138-1.473-.242-2.2a36.251,36.251,0,0,0-.866-4.278,36.814,36.814,0,0,1,.5,4.334c.042.725.058,1.452.055,2.18,0,.362-.01.723-.023,1.083-.009.179-.016.359-.028.537-.005.089-.011.178-.019.266,0,.053-.3,1.327-.414,1.683-.7,2.191-1.348,4.4-1.973,6.626q-.438,1.564-.853,3.14a13,13,0,0,0-.284,1.413c-.065-.2-.609-1.706-.873-2.326a47.235,47.235,0,0,0-4.881-9c-.853-1.232-.961-1.349-2.085-2.81,1.4,2.052.987,1.421,1.937,2.957a48.764,48.764,0,0,1,4.366,9.24c.415,1.247.634,1.877,1.054,3.52.05.2.1.4.143.6q.039.168.076.336a26.176,26.176,0,0,0,.149,4.636c.075.626.805,11.869.89,15.991a132.714,132.714,0,0,1-1.445,19.743s9.8,3.051,7.806-.638c-1.334-2.473-4.541-24.826-5.237-32.678l.157-.174a18.49,18.49,0,0,1,8.273-5.047c1.013-.353,2.033-.7,3.047-1.083h0c.6-.12,2.329-.44,2.938-.517s1.22-.136,1.833-.169a18.3,18.3,0,0,1,1.839-.009,10.661,10.661,0,0,1,1.831.246A10.937,10.937,0,0,0,2724.995,1286.8Z" transform="translate(-2464.874 -1145.032)" fill="#ac0b18"/></g></g></svg>