<svg xmlns="http://www.w3.org/2000/svg" width="43.233" height="45" viewBox="0 0 43.233 45"><g transform="translate(-0.842 -280.596)"><path d="M10.024,280.6A7.254,7.254,0,0,0,2.77,287.85a9.842,9.842,0,0,0,.171,1.8H17.1a9.84,9.84,0,0,0,.176-1.8A7.254,7.254,0,0,0,10.024,280.6Zm17.738,0a7.254,7.254,0,0,0-7.254,7.254,9.841,9.841,0,0,0,.171,1.8H34.84a9.84,9.84,0,0,0,.175-1.8A7.254,7.254,0,0,0,27.762,280.6Z" transform="translate(3.529 0)" fill="#ffc861"/><path d="M9.29,281.853a3.362,3.362,0,0,0-3.37,3.37v2.6H20.335v-2.6a3.362,3.362,0,0,0-3.37-3.37Z" transform="translate(9.295 2.3)" fill="#ffca3a"/><path d="M9.116,2.774a7.3,7.3,0,0,0-.064.916,9.857,9.857,0,0,0,.171,1.8H23.407a9.856,9.856,0,0,0,.176-1.8,7.3,7.3,0,0,0-.056-.916Z" transform="translate(15.025 284.175)" fill="#ffca3a"/><path d="M9.566,2.774a1.5,1.5,0,1,0,0,3h6.891V3.361a3.385,3.385,0,0,0-.06-.587Z" transform="translate(13.222 284.175)" fill="#ff9700"/><path d="M5.9,283.7H38.943A5.048,5.048,0,0,1,44,288.763v26.012a5.048,5.048,0,0,1-5.059,5.059H5.9a5.048,5.048,0,0,1-5.059-5.059V288.763A5.048,5.048,0,0,1,5.9,283.7Z" transform="translate(0 5.688)" fill="#ef6356"/><path d="M5.661,295.57a1.5,1.5,0,0,0-1,2.549H32.747a5.057,5.057,0,0,0,4.4-2.549H5.81a1.465,1.465,0,0,0-.149,0Z" transform="translate(6.194 27.402)" fill="#d85750"/><g transform="translate(0.845 289.409)"><path d="M.843,8.584V16.8h17.5V8.584Zm25.725,0V16.8h17.5V8.584Z" transform="translate(-0.843 5.4)" fill="#ffca3a"/><path d="M7.028,3.643V39.83h8.221V3.643Z" transform="translate(10.477 -3.643)" fill="#ffc861"/><path d="M7.028,15.527V18.08h8.221V15.527Z" transform="translate(10.477 18.107)" fill="#ffca3a"/></g></g></svg>