<svg xmlns="http://www.w3.org/2000/svg" width="805.55" height="651.592" viewBox="0 0 805.55 651.592"><g transform="translate(-4971.5 -6078.068)"><g transform="translate(4971.5 6382.826)" opacity="0.5"><path d="M861.146,283.1,521.573,87.2,386.5,165.221,855,434.034,1192.05,240.056l-129.072-72.983Z" transform="translate(-386.5 -87.2)" fill="#619bf7"/></g><path d="M391.712,124.065c-9.484,7.409-1.778,19.19,11.114,33.342s19.264,27.341,62.239,13.633c37.788-12.077,33.712-22.821,20.3-41.344-12.744-17.412-24.822-37.64-49.273-29.638a113.663,113.663,0,0,0-44.382,24.007Z" transform="translate(4635.803 6440.588)" fill="#619bf7" opacity="0.5"/><path d="M512.909,115.018c-12.3-8.3-25.34-15.856-37.714-23.636A121.953,121.953,0,0,0,452.3,77.3a7.409,7.409,0,0,0-9.187,2.3c-2.371,4,.445,6.3,3.631,8.15,8.817,5.038,17.782,9.854,26.525,14.819q19.783,11.485,39.122,23.562Z" transform="translate(4986.658 6301.595)" fill="#c2e0f2"/><path d="M511.76,81.07a7.409,7.409,0,0,0-9.039-2.815,119.063,119.063,0,0,0-23.71,12.522c-16.227,8.891-33.491,17.19-49.05,27.415v10.373c16.6-9.114,33.342-18,50.384-26.377,9.114-4.52,18.3-8.743,27.415-13.263C510.945,87.368,513.834,85.219,511.76,81.07Z" transform="translate(4908.009 6308.795)" fill="#c2e0f2"/><path d="M451.523,214.935c0-13.782,2.816-71.2,4.89-85.875s4.52-27.267,6.965-40.826c1.408-8.224,11.929-50.754-1.26-44.456-4.965,2.519-8.076,10.892-10.077,18.672A291.38,291.38,0,0,0,445.669,99.5a720.287,720.287,0,0,0-3.26,112.993C442.335,215.083,451.523,215.083,451.523,214.935Z" transform="translate(4982.102 6087.351)" fill="#e1f2ff"/><path d="M521.322,160.252c1.408-10.373,3.927-20.6,6-30.823a176.026,176.026,0,0,1,9.78-35.121c.667-1.63,1.482-3.26,2.3-4.964-4.52-3.038-40.233-25.044-55.718-33.046-20.228-10.521-24.97-12.892-26.674-9.632a182.037,182.037,0,0,0-14.819,68.759c0,2.149,0,5.483,11.411,11.114,22.821,11.262,62.832,37.047,66.685,38.9C520.952,164.4,521.174,161.586,521.322,160.252Z" transform="translate(4986.396 6101.208)" fill="#fff"/><path d="M540.236,93.129c-.741-6.52-77.576-48.68-83.726-47.642-10.151,1.7-21.413,51.866-11.262,62.239s65.87,42.6,80.466,48.013a2.223,2.223,0,0,0,2.667-1.556c2.741-10.966,5.335-22.228,7.409-33.268a102.028,102.028,0,0,0,4.445-27.785Z" transform="translate(4980.449 6102.24)" fill="#ff5e4c"/><path d="M469.763,52.035c-7.409-6.965-14.226,18.6-14.819,22.228-2.741,11.929-9.41,37.566,4.371,45.864,2.667,1.556,4.668,1.482,6.446-1.334a38.983,38.983,0,0,0,2.667-13.781c.889-5.557,1.778-11.114,2.741-16.671a164.8,164.8,0,0,0,4.446-28.674,7.41,7.41,0,0,0-5.853-7.632Z" transform="translate(5042.253 6136.665)" fill="#ef4335"/><path d="M451.836,221.216H461.1s1.186-4.446,1.186-4.594c0-12.077,5.187-66.685,7.409-81.5s4.52-27.267,6.965-40.752c1.482-8.3,11.929-50.828-1.186-44.456-5.038,2.519-8.15,10.892-10.151,18.672a293.679,293.679,0,0,0-6.372,37.047c-3.334,27.118-9.114,78.614-6.594,106.1A53.714,53.714,0,0,0,451.836,221.216Z" transform="translate(5047.583 6126.564)" fill="#e1f2ff"/><path d="M470.977,151.957q-1.408-40.233-6.224-79.651c0-1.111-.963-1.482-1.556-1.037l-6.224,4.52a1.41,1.41,0,0,0-.519.815c0-1.037-1.333-.963-1.407.371-1.927,27.933-2.3,56.163-3.26,84.171-.445,12.744-5.335,33.49,11.41,33.342C475.719,194.339,471.422,164.182,470.977,151.957Z" transform="translate(5041.483 6266.434)" fill="#e1f2ff"/><path d="M429.559,153.1c.963-26.822,3.038-53.422,6.3-79.651,0-1.111.889-1.482,1.482-1.037l6.3,4.52a1.926,1.926,0,0,1,.519.741c0-.963,1.26-.963,1.408.37,1.852,27.933,2.3,56.237,3.186,84.171.445,12.818,5.335,33.565-11.336,33.416C424.817,195.479,429.114,165.4,429.559,153.1Z" transform="translate(4898.629 6273.741)" fill="#e1f2ff"/><path d="M522.88,86.48a7.409,7.409,0,0,0-8.965-2.816A121.723,121.723,0,0,0,490.13,96.186c-16.152,8.891-33.49,17.19-49.05,27.415v10.373c16.671-9.114,33.416-18,50.458-26.377,9.04-4.52,18.3-8.743,27.415-13.263C521.99,92.7,525.028,90.629,522.88,86.48Z" transform="translate(4979.282 6343.619)" fill="#c2e0f2"/><path d="M500.665,121.635c-12.3-8.3-25.266-15.856-37.64-23.71a122.112,122.112,0,0,0-22.969-14,7.409,7.409,0,0,0-9.114,2.3c-2.371,4,.37,6.224,3.63,8.076,8.817,5.038,17.708,9.855,26.525,14.819,13.189,7.409,26.155,15.486,39.048,23.488Z" transform="translate(4908.582 6344.176)" fill="#c2e0f2"/><path d="M455.933,86.341l-10.6-8.891c-1.926,27.859-4.668,65.944-5.557,93.877-.445,12.744-5.335,33.565,11.336,33.416,12.522,0,8.3-30.23,7.854-42.53C458.082,137.021,458.822,111.163,455.933,86.341Z" transform="translate(4964.503 6307.229)" fill="#e1f2ff"/><path d="M607.537,102.645H598.35L540.186,69.081a33.713,33.713,0,0,0-30.379,1.26l-67.8,38.9-12.818,1.26v10.744a7.319,7.319,0,0,0,0,1.26v1.111h0a9.557,9.557,0,0,0,5.112,6.3L496.4,165.773a34.158,34.158,0,0,0,30.379-1.259l73.2-42.011a11.929,11.929,0,0,0,7.409-10.67h0S607.241,103.461,607.537,102.645Z" transform="translate(4902.922 6234.243)" fill="#c2e0f2"/><path d="M496.52,163.864,434.429,128c-7.779-4.446-6.817-12.374,2.149-17.56l73.205-41.715a33.936,33.936,0,0,1,30.379-1.26l62.091,35.861c7.78,4.446,6.817,12.374-2.149,17.56L526.9,162.6a33.935,33.935,0,0,1-30.379,1.26Z" transform="translate(4902.947 6224.074)" fill="#fff"/><path d="M466.838,136.229c14.448,7.854,30.9,20.45,48.013,14.819a207.986,207.986,0,0,0,42.53-23.636A103.731,103.731,0,0,0,582.2,108,74.757,74.757,0,0,0,564.05,92.291c-14.226-10.151-51.866-28.9-56.83-28.526a44.972,44.972,0,0,0-6.891,1.259A180.632,180.632,0,0,0,473.21,76.138a149.753,149.753,0,0,0-33.342,20.154,41.49,41.49,0,0,0-9.558,9.484C430.9,121.41,455.354,130,466.838,136.229Z" transform="translate(4910.252 6219.479)" fill="#ff5e4c"/><path d="M432.991,90.513c9.04,6.669,25.414,13.485,33.565,18.449s25.933,17.412,35.417,19.635a42.974,42.974,0,0,0,23.932-5.113c10.818-5.557,21.191-12,31.712-18.079,8.595-4.964,20.895-9.41,27.193-17.264a12.67,12.67,0,0,0,0-16.6,103.73,103.73,0,0,1-24.822,19.413,207.974,207.974,0,0,1-42.53,23.636c-17.116,5.483-33.564-7.409-48.013-14.819-11.484-6.224-35.936-14.819-36.528-30.3l-.741,1.26C429.805,75.4,428.323,87.1,432.991,90.513Z" transform="translate(4907.868 6256.082)" fill="#ef4335"/><path d="M492.154,100.808c-2.149-8.521,1.334-15.337,2.445-23.488,3.334-24.747-40.6-3.038-45.271.667s-17.412,12.522-17.041,19.931,14.819,14.819,20.672,17.634c9.114,4.816,22.228,12.077,32.9,11.929a12.522,12.522,0,0,0,11.707-13.189C497.415,109.477,493.34,105.328,492.154,100.808Z" transform="translate(4922.872 6231.56)" fill="#ff7469"/><path d="M468.773,55.584c-8.076-4.742-20.524-11.929-24.747-9.039s3.927,5.631,7.409,8a218.3,218.3,0,0,0,20.524,12,312,312,0,0,0,36.306,17.264c4.075,1.482,6.891-1.556,3.186-3.853C501.523,73.515,481.591,63.216,468.773,55.584Z" transform="translate(4990.562 6104.886)" fill="#ff7469"/><path d="M542.736,44.62A107.223,107.223,0,0,0,519.47,75.147a266.735,266.735,0,0,1-23.933,35.343c-4-4.223-23.265-24.821-32.231-35.343s-13.781-8.076-21.783-9.706-7.409-9.114-16-9.558-7.409,3.631,0,12.966A36.158,36.158,0,0,0,439.6,80.778c8,2.149,15.708,1.7,18,8.965,1.408,4.446,15.337,35.639,22.228,40.455,10,6.15,10,8.373,17.412,8,4.964,0,9.262-5.483,11.41-8a303.762,303.762,0,0,0,21.191-24.3c8.3-11.929,25.488-43.567,26.155-44.456A122.008,122.008,0,0,0,542.736,44.62Z" transform="translate(4841.024 6096.808)" fill="#ffb9a4"/><path d="M471.355,44.26A36.382,36.382,0,0,0,454.61,55.374,342.826,342.826,0,0,0,430.9,92.421a76.032,76.032,0,0,0,10.892,13.633c3.557,2.371,12.522,7.409,12.522,7.409l30.453-45.642Z" transform="translate(4914.034 6094.501)" fill="#960511"/><path d="M455.961,90.572l12-6.743a48.094,48.094,0,0,0-9.929-18.6A52.607,52.607,0,0,0,438.474,49.45L430.25,60.935s5.557,7.409,12.152,14.819a111.137,111.137,0,0,0,13.559,14.819Z" transform="translate(4909.867 6127.766)" fill="#fa8a93"/><path d="M459.631,85.642a49.5,49.5,0,0,0-9.781-18.079,97.275,97.275,0,0,0-18.82-14.819l2.445-3.334a45.344,45.344,0,0,1,19.487,14.819c10.892,12.67,10,19.042,10,19.042Z" transform="translate(4914.867 6127.509)" fill="#2c1d1b"/><path d="M458.9,86.446c-4.223,4.594-8.965,9.855-13.337,14.819-5.853,6.224-12.818,12.744-19.19,18.449-7.78,6.965-8.373,15.337,4.446,14.819,20.6-1.186,25.488-9.855,34.972-17.116,1.333-1.037,3.557,1.408,8.817-.741,6.594-2.667,7.409-3.7,7.409-10.3a54.173,54.173,0,0,0-2.594-17.19h0C480.6,87.335,464.526,80.222,458.9,86.446Z" transform="translate(4849.288 6348.839)" fill="#74cace"/><path d="M464.207,92.466c-4.223,4.594-8.965,9.855-13.337,14.819-5.853,6.224-12.744,12.744-19.116,18.449-7.78,6.965-8.373,15.338,4.371,14.819,20.672-1.186,25.488-9.855,35.047-17.116,1.334-1.037,3.557,1.408,8.743-.741,6.668-2.667,7.409-3.7,7.409-10.3a56.313,56.313,0,0,0-2.593-17.19h0C485.99,93.355,469.838,86.242,464.207,92.466Z" transform="translate(4883.765 6387.424)" fill="#74cace"/><path d="M570.048,77.484c-1.7-3.631-41.271-16.819-40.233-16.3-31.712,11.929-70.241,25.192-96.841,48.161a9.706,9.706,0,0,0-9.632,11.485,256.338,256.338,0,0,0,5.409,26.155c4.075,24.673,9.188,64.536,11.114,89.431,4.223,7.409,16.523,7.409,24.451,1.852,2.371-17.857,3.26-41.789,6.3-56.089,4.075-18.82-2.519-28.008-8.3-38.084,15.56.593,49.347-16.893,64.462-21.117,18.375-5.187,23.414-5.335,37.047-19.264C573.16,94.155,576.494,90.895,570.048,77.484Z" transform="translate(4864.539 6202.871)" fill="#960511"/><path d="M516.774,69.286a96.842,96.842,0,0,1-30.3-1.926,36.427,36.427,0,0,0-2.741,4.372c-3.482,7.409-6.743,12.522-4.075,20.6-4.742,6.743-26.229,33.12-30.082,41.2a19.413,19.413,0,0,0-6.965,19.413,176.178,176.178,0,0,1-1.63,33.046c-2.816,27.415-7.409,50.606-9.707,78.169,6.446,9.78,14.819,10.225,23.488,2.445,8.224-25.488,24.3-43.345,26.007-65.721,1.111-14.819,1.334-25.933-5.261-35.343,27.193-14.819,61.943-23.265,76.91-51.866,9.632-18.375,4.965-32.009-4.964-50.829A59.275,59.275,0,0,1,516.774,69.286Z" transform="translate(4916.405 6213.587)" fill="#960511"/><path d="M456.5,53.977c11.04-14,6.446-10,19.857-2.3a359.852,359.852,0,0,1,37.047,21.339c12.225,10.151,19.264,31.12,21.339,57.423a159.006,159.006,0,0,0,4.15,21.635c5.038,14.374,6.372,19.116,2.741,22.228,6,3.112,6,10.521,4.964,18.079-24.97,31.712-87.8,6.3-94.618-23.117,4.89-3.038,8.595-2.593,12.225-7.409-3.038-1.7-4.52-7.409-4.52-11.707-5.705-3.038-6.891-7.409-8.224-15.782-11.262-2.519-23.117-14.819-17.709-28.23,4.371-10.6,5.853-20.228,9.039-27.489A92.91,92.91,0,0,1,456.5,53.976Z" transform="translate(4923.698 6097.158)" fill="#dd0d1e"/><path d="M439.49,76.828c3.038-.519,11.114-4.594,8.743-19.635-.667-4.223,18.227-15.486,18.227-14.819A57.647,57.647,0,0,0,475.8,77.791c-9.039,9.336-17.412,30.749-32.9,23.117C435.118,96.834,433.34,94.018,439.49,76.828Z" transform="translate(4945.381 6082.234)" fill="#ffb9a4"/><path d="M447.788,45.65s-6,16.6-8.076,22.228l-6,15.708s5.779-2.593,8.669-.963,7.039,6.15,9.558,6.817a16,16,0,0,0,5.854,0l2-6.965s-5.261-1.63-5.187-10.521,1.482-20.969,1.482-20.969Z" transform="translate(4932.044 6103.41)" fill="#960511"/><path d="M466.152,45.22A32.158,32.158,0,0,1,461.262,59a95.582,95.582,0,0,1-20.746,21.635c-7.409,5.928-3.038,16.745-3.038,16.745s2.816-6.224,6.15-5.112,5.187,4.223,9.114,7.409a67.5,67.5,0,0,1,11.633-15.041c5.483-5.409,15.634-17.19,13.189-26.97a17.783,17.783,0,0,0-11.41-12.448Z" transform="translate(4947.985 6100.653)" fill="#960511"/><path d="M447.257,43.688a1.781,1.781,0,0,0-.593-.667l.37-.371h0a9.414,9.414,0,0,0-1.334.445,2.3,2.3,0,0,0-.889,0c-7.41,3.112-14.819,12.818-12.078,20.969a7.409,7.409,0,0,0,8.595,4.594h0c-2.667,8.669.592,19.19,11.04,14.819,6.965-2.741,8.6-11.485,8.447-18.153C460.668,56.136,451.332,51.69,447.257,43.688Z" transform="translate(4922.054 6082.92)" fill="#2c1d1b"/><path d="M440.538,41.8a43.716,43.716,0,0,1,30.9,1.186,64.913,64.913,0,0,1,18.153,8.373,1.7,1.7,0,0,1,.741,1.482c-2.964,16.819-8.595,34.75-27.563,42.234-15.56,6.15-24.3-10.966-26.97-22.228C432.61,59.357,431.647,43.8,440.538,41.8Z" transform="translate(4930.847 6064.214)" fill="#ffc9b6"/><path d="M438.51,49.073s3.038-10.3,9.854-5.038-2.816,15.856-2.816,15.856Z" transform="translate(4962.81 6083.464)" fill="#ffc9b6"/><path d="M440.42,64.2a77.281,77.281,0,0,1,23.488-3.927A64.392,64.392,0,0,1,479.246,64.2s-11.633,1.7-19.413,2a99.587,99.587,0,0,1-19.413-2Z" transform="translate(4975.051 6197.115)" fill="#960511"/><path d="M439.88,64.343c1.037,0,18.153-.445,27.415-1.111s12.818-1.111,12.818-1.111a32.973,32.973,0,0,1-18.3,5.705,86.175,86.175,0,0,1-21.932-3.482Z" transform="translate(4971.59 6208.972)" fill="#960511"/><path d="M429.461,65.546s-3.112-5.335-5.853-11.41c-1.852-4.149-1.111-8,1.111-8.595s2.3,4.594,4.742,6.891,12,10.3,10.447,14.819S429.461,65.546,429.461,65.546Z" transform="translate(4860.568 6102.408)" fill="#ffb9a4"/><path d="M513.067,58.67c-3.927-10.67-26.6,2.149-26.6,2.149V79.787c0,9.336.889,32.9.889,32.9s-25.563,38.9-28.378,42.752c-.963,1.334-6.891,0-10.892,2.519s-5.335,6-8.076,7.409c-5.409,3.26-5.557,6.372-1.408,6.224s7.409-4.594,8.965-4.52.667,4.075-1.852,9.336-8.965,12.226-5.705,16.893,10.892,1.7,18.376-5.705c6.15-6.076,6.817-14.819,10.744-23.34a366.389,366.389,0,0,1,34.9-37.047,11.705,11.705,0,0,0,5.112-6.669,37.785,37.785,0,0,0,2.223-14C511.362,96.162,517.067,69.191,513.067,58.67Z" transform="translate(4944.786 6159.667)" fill="#ffc9b6"/><path d="M457.761,49.948c-8.224,3.038-16.226,16.968-16.671,31.935a170.98,170.98,0,0,0,3.927,34.6h18.375a74.907,74.907,0,0,0,21.709-3.334s6.817-32.9-5.186-51.866C473.395,51.208,464.874,47.355,457.761,49.948Z" transform="translate(4979.346 6125.933)" fill="#960511"/><path d="M523.034,85.869a23.634,23.634,0,0,0-9.41-12.744,10.225,10.225,0,0,0-.667-9.262,23.267,23.267,0,0,0-16.079-10.892,11.187,11.187,0,0,0,1.186-9.558,10.67,10.67,0,0,0-8.743-6,16.153,16.153,0,0,0-15.189,4A9.558,9.558,0,0,0,462.426,36.6a6.891,6.891,0,0,0-3.7,4.89,6.743,6.743,0,0,0-9.929.37,4.372,4.372,0,0,0,0,5.557c-6.149-.667-13.485,1.111-14.818,6.594a7.409,7.409,0,0,0,2.815,7.409C432.2,64.9,429.38,70.384,434.122,75.5a18.376,18.376,0,0,0,23.414-.593,18.153,18.153,0,0,0,14.819,14.3,12.523,12.523,0,0,0,8.743-3.038,29.043,29.043,0,0,0,5.261,6.446,20.448,20.448,0,0,0-3.112,13.263,13.41,13.41,0,0,0,4.964,9.114,20.969,20.969,0,0,0-6.52,21.117c1.926,6.52,9.706,11.559,19.931,4.964a21.19,21.19,0,0,0,7.409-18.6,8.15,8.15,0,0,0,9.78-5.927,15.189,15.189,0,0,0-2.742-11.781,17.709,17.709,0,0,0,6.965-18.894Z" transform="translate(4918.962 6042)" fill="#2c1d1b"/><path d="M483.219,74.981l2.89-13.485a47.642,47.642,0,0,0-20.228-4.668,52.9,52.9,0,0,0-24.821,4.223L444.1,74.684s9.78.815,19.487,1.037a116.615,116.615,0,0,0,19.635-.741Z" transform="translate(4979.153 6174.18)" fill="#fa8a93"/><path d="M485.264,65.684a49.126,49.126,0,0,0-19.931-4.668,99.211,99.211,0,0,0-23.414,4.446l-.889-4a45.05,45.05,0,0,1,24.154-4.668c16.671,0,20.895,5.113,20.895,5.113Z" transform="translate(4978.96 6173.771)" fill="#2c1d1b"/><path d="M501.643,104.47c-1.037-2.445-2.149-4.816-3.26-7.409l-2.816,3.7c-4-4.223-23.266-24.821-32.231-35.343s-13.781-8.076-21.784-9.706-7.409-9.114-16-9.558-7.409,3.631,0,12.966a36.158,36.158,0,0,0,14.078,11.929c8,2.149,15.708,1.7,18,8.965,1.408,4.446,15.338,35.639,22.228,40.455,9.78,6.224,9.78,8.447,17.19,8.076,4.89,0,9.114-5.335,11.262-7.854C506.089,115.214,504.014,109.731,501.643,104.47Z" transform="translate(4841.215 6106.458)" fill="#ffb9a4"/><path d="M827.49,233.865,514.814,53.52l-124.4,71.8L827.49,377.533l304.23-175.084L1007.168,130.5Z" transform="translate(4610.061 6079.758)" fill="#634544"/><path d="M1131.72,260.921,960.193,161.858,827.638,238.174,561.938,84.8,390.41,183.79,827.49,435.931Z" transform="translate(4610.061 6280.243)" fill="#73acff"/><path d="M390.41,63.21V322.168L827.49,574.31V315.426Z" transform="translate(4610.061 6141.865)" fill="#fff"/><path d="M753.63,73.62V332.578L449.4,507.588V248.7Z" transform="translate(4988.151 6208.586)" fill="#e1f2ff"/><path d="M390.41,90.05v60.09L827.49,402.282v-60.09Z" transform="translate(4610.061 6313.893)" fill="#5b3938"/><path d="M400.05,91.26v12.077L765.7,314.283V302.206Z" transform="translate(4671.847 6321.648)" fill="#5b3938"/><path d="M400.05,73.08V85.157L765.7,296.177V284.1Z" transform="translate(4671.847 6205.125)" fill="#5b3938"/><path d="M753.63,77.86V89.937L449.4,265.54V253.463Z" transform="translate(4988.151 6235.762)" fill="#422c2a"/><path d="M753.63,96.04v12.077L449.4,283.646V271.569Z" transform="translate(4988.151 6352.285)" fill="#422c2a"/><path d="M753.63,100.29v61.35L449.4,336.65V275.374Z" transform="translate(4988.151 6379.525)" fill="#422c2a"/><path d="M390.41,63.21V81.289L827.49,333.431v-18Z" transform="translate(4610.061 6141.865)" fill="#5b3938"/><path d="M753.63,73.62V91.7L449.4,266.709v-18Z" transform="translate(4988.151 6208.586)" fill="#422c2a"/><path d="M485.846,104.747a21.336,21.336,0,0,0-4.372-7.928c-.667-.593-1.926,0-1.852.741a37.063,37.063,0,0,0,2.816,8.817,18.677,18.677,0,0,0,2.964,8,1.7,1.7,0,0,0,2.741-.667A14.817,14.817,0,0,0,485.846,104.747Z" transform="translate(5226.297 6429.823)" fill="#2c1d1b"/><path d="M490.613,96.128c-1.26,2.149-2.149,4.446-3.557,6.52a78.115,78.115,0,0,1-5.112,6c-1.26,1.63.444,4.52,2.371,3.112a22.227,22.227,0,0,0,8.6-14.819,1.26,1.26,0,0,0-2.3-.815Z" transform="translate(5238.423 6423.401)" fill="#2c1d1b"/><path d="M486.515,99.05c-1.185-2.075-3.038-4.89-5.557-5.335a.518.518,0,0,0-.592.593,26.666,26.666,0,0,0,3.335,6.446c.963,2,1.185,4.742,3.037,6.076a1.186,1.186,0,0,0,1.63-.445C489.553,104.014,487.775,101.125,486.515,99.05Z" transform="translate(5231.038 6411.44)" fill="#2c1d1b"/><path d="M487.332,98.846a57.386,57.386,0,0,0-4.742,6.743,23.851,23.851,0,0,0-4.89,6.594,1.361,1.361,0,0,0,1.482,1.482c2.964-.667,4.816-3.482,6.446-5.853a16.6,16.6,0,0,0,3.334-8.373.963.963,0,0,0-1.63-.593Z" transform="translate(5213.993 6442.615)" fill="#2c1d1b"/><path d="M497.074,86.228a23.488,23.488,0,0,0-7.409-2.89c-2.741-.963-5.335-2.519-8.15-3.408,0,0-.741,0-.519.593a17.56,17.56,0,0,0,6.891,5.853,12.669,12.669,0,0,0,8.669,2.223,1.408,1.408,0,0,0,.519-2.371Z" transform="translate(5234.853 6323.124)" fill="#a5d7ef"/><path d="M490.841,77.834c-2.816,3.631-6.372,6.817-8.817,10.67a2,2,0,0,0,0,1.926,1.852,1.852,0,0,0,2.964.37A40.237,40.237,0,0,0,492.4,79.241C493.138,78.13,491.656,76.8,490.841,77.834Z" transform="translate(5240.122 6307.29)" fill="#a5d7ef"/><path d="M488.991,82.853a.593.593,0,1,0-1.185,0,54.424,54.424,0,0,1-2.075,8.3c-.963,2.593-3.26,5.038-3.63,7.409a1.185,1.185,0,0,0,1.7,1.334c2.667-1.334,3.779-5.112,4.52-7.78a20.967,20.967,0,0,0,.667-9.262Z" transform="translate(5241.973 6338.058)" fill="#a5d7ef"/><path d="M486.626,90.869a16.152,16.152,0,0,0-4.816-6.52c-.741-.445-1.482.37-1.334,1.111a49.461,49.461,0,0,0,2.594,6.965c.666,1.926.963,4.446,2.741,5.779a1.26,1.26,0,0,0,2,0,8.819,8.819,0,0,0-1.185-7.335Z" transform="translate(5231.667 6350.639)" fill="#a5d7ef"/><path d="M494.91,86.444a38.679,38.679,0,0,0-7.928,3.7,58.7,58.7,0,0,0-8.447,4,.741.741,0,0,0,.371,1.408,19.71,19.71,0,0,0,9.336-2.223A16.893,16.893,0,0,0,495.651,88C496.614,87.185,495.725,86.3,494.91,86.444Z" transform="translate(5216.641 6364.771)" fill="#a5d7ef"/><path d="M491.67,78.071A18.078,18.078,0,0,0,484.261,72a1.659,1.659,0,1,0-1.63,2.89,19.489,19.489,0,0,1,5.706,6.076c1.037,1.778,1.482,4.52,3.556,5.483a1.186,1.186,0,0,0,1.556-.37C495.375,83.628,493.152,80.146,491.67,78.071Z" transform="translate(5240.183 6270.894)" fill="#a5d7ef"/><path d="M491.106,73.1a12.448,12.448,0,0,0-10.6,9.41,1.194,1.194,0,0,0,2,.815,54.1,54.1,0,0,0,4.223-4.89,62.219,62.219,0,0,1,4.817-4.149C491.995,73.919,491.55,73.03,491.106,73.1Z" transform="translate(5232.004 6279.344)" fill="#a5d7ef"/><path d="M456.819,113.437a55.054,55.054,0,0,1-6.52-3.482c-1.852-1.482-3.186-3.408-4.816-4.964,0,0-.963,0-.889.371a13.188,13.188,0,0,0,11.559,10.447,1.334,1.334,0,0,0,.667-2.371Z" transform="translate(5001.774 6483.743)" fill="#a5d7ef"/><path d="M464.793,108.576a31.193,31.193,0,0,0-8.965-2.593,38.752,38.752,0,0,0-9.039-2,.741.741,0,0,0-.593,1.26,19.634,19.634,0,0,0,8.6,4.52,16.818,16.818,0,0,0,9.706.889,1.111,1.111,0,0,0,.3-2.075Z" transform="translate(5010.694 6477.268)" fill="#a5d7ef"/><path d="M457.959,101a28.522,28.522,0,0,0-7.78,6.52,18.451,18.451,0,0,0-5.112,8.224,1.482,1.482,0,0,0,2.371,1.408,39.13,39.13,0,0,0,5.631-7.409c1.927-2.593,4.3-4.89,6.076-7.409C459.515,101.519,458.7,101,457.959,101Z" transform="translate(5004.71 6458.17)" fill="#a5d7ef"/><path d="M479.469,158.571,420.12,124.339l92.766-53.2,59.349,34.305Z" transform="translate(4800.484 6192.691)" fill="#fff"/><path d="M417.305,68c14.374,7.409,28.452,15.337,42.678,23.043,1.111.593,0,2.223-.963,1.63-14.078-7.854-28.378-15.486-42.308-23.636C416.046,68.815,416.639,68,417.305,68Z" transform="translate(4821.229 6246.66)" fill="#3f2a28"/><path d="M418.1,67.517c14.374,7.409,28.526,15.263,42.752,22.969a.963.963,0,1,1-.963,1.63c-14.152-7.854-28.378-15.486-42.308-23.636a.547.547,0,1,1,.519-.963Z" transform="translate(4826.81 6243.142)" fill="#3f2a28"/><path d="M419.028,67.016c14.374,7.409,28.526,15.263,42.752,22.969,1.111.593,0,2.223-.963,1.63-14.152-7.854-28.378-15.486-42.382-23.636a.593.593,0,0,1,.593-.963Z" transform="translate(4833.213 6240.235)" fill="#3f2a28"/><path d="M420.026,66.462C434.4,73.871,448.478,81.8,462.7,89.431c1.111.593,0,2.3-.963,1.7-14.078-7.928-28.3-15.56-42.308-23.71C418.766,67.055,419.359,66.092,420.026,66.462Z" transform="translate(4838.663 6236.269)" fill="#3f2a28"/><path d="M422.135,65.478c14.374,7.409,28.452,15.337,42.678,23.043,1.111.593,0,2.223-.963,1.63-14.078-7.854-28.378-15.486-42.308-23.636C420.876,66.145,421.469,65.182,422.135,65.478Z" transform="translate(4852.187 6230.139)" fill="#3f2a28"/><path d="M422.868,64.926c14.374,7.409,28.526,15.337,42.752,22.969,1.111.593,0,2.3-.963,1.7-14.152-7.928-28.378-15.56-42.382-23.71a.593.593,0,0,1,.592-.963Z" transform="translate(4857.826 6226.839)" fill="#3f2a28"/><path d="M424.306,64.188c14.374,7.409,28.452,15.337,42.678,22.969,1.111.593,0,2.3-.964,1.7-14.078-7.928-28.378-15.56-42.308-23.636C423.046,64.855,423.639,63.892,424.306,64.188Z" transform="translate(4866.095 6221.871)" fill="#3f2a28"/><path d="M425.042,63.587C439.417,71,453.568,78.924,467.795,86.63c1.111.593,0,2.223-.964,1.63-14.152-7.854-28.378-15.486-42.308-23.636a.593.593,0,0,1,.519-1.037Z" transform="translate(4871.73 6218.25)" fill="#3f2a28"/><path d="M426.163,63.138c14.374,7.409,28.526,15.337,42.752,23.043,1.111.519,0,2.223-.963,1.63C453.8,79.958,439.574,72.326,425.57,64.176a.6.6,0,1,1,.593-1.037Z" transform="translate(4877.944 6214.993)" fill="#3f2a28"/><path d="M427.026,62.582C441.4,69.991,455.478,77.845,469.7,85.551a.963.963,0,1,1-.963,1.63c-14.078-7.854-28.3-15.486-42.308-23.636C425.766,63.175,426.359,62.212,427.026,62.582Z" transform="translate(4883.529 6211.4)" fill="#3f2a28"/><path d="M465.6,149.521,406.25,115.215,498.941,62.09,558.365,96.4Z" transform="translate(4711.586 6134.686)" fill="#fff"/><path d="M461.688,108.35l-47.2-27.267L446.2,62.93,493.4,90.2Z" transform="translate(4764.399 6140.07)" fill="#fff"/><path d="M403.165,59.278c14.374,7.409,28.452,15.337,42.678,23.043,1.111.519,0,2.223-.963,1.63C430.8,76.1,416.5,68.466,402.573,60.316,401.906,59.945,402.5,58.982,403.165,59.278Z" transform="translate(4730.6 6190.401)" fill="#3f2a28"/><path d="M403.9,58.686c14.374,7.409,28.526,15.263,42.752,22.969,1.111.593,0,2.3-.963,1.63-14.152-7.854-28.378-15.486-42.382-23.636a.593.593,0,0,1,.593-.963Z" transform="translate(4736.239 6186.844)" fill="#3f2a28"/><path d="M405.023,58.228c14.374,7.409,28.452,15.337,42.752,23.043,1.037.593,0,2.223-.963,1.63-14.152-7.854-28.378-15.486-42.382-23.636a.6.6,0,0,1,.593-1.037Z" transform="translate(4742.45 6183.523)" fill="#3f2a28"/><path d="M405.786,57.672c14.374,7.409,28.452,15.337,42.678,22.969a.963.963,0,1,1-.963,1.63c-14.078-7.854-28.378-15.486-42.308-23.636C404.9,58.265,404.9,57.3,405.786,57.672Z" transform="translate(4748.133 6179.93)" fill="#3f2a28"/><path d="M407.862,56.657c14.374,7.409,28.526,15.337,42.752,23.043,1.111.519,0,2.223-.963,1.63-14.152-7.854-28.378-15.486-42.308-23.636a.593.593,0,0,1,.519-1.037Z" transform="translate(4761.617 6173.832)" fill="#3f2a28"/><path d="M408.729,56.136C423.1,63.545,437.181,71.473,451.48,79.1c1.037.593,0,2.3-.963,1.7-14.152-7.928-28.378-15.56-42.382-23.71a.593.593,0,0,1,.593-.963Z" transform="translate(4767.197 6170.5)" fill="#3f2a28"/><path d="M557.516,152.431l59.349-34.306L524.173,65,464.75,99.305Z" transform="translate(5086.535 6153.337)" fill="#fff"/><path d="M557.516,154.151l59.349-34.231-92.692-53.2L464.75,101.025Z" transform="translate(5086.535 6164.361)" fill="#fff"/><path d="M498.1,111.2l47.2-27.267L513.588,65.85l-47.2,27.192Z" transform="translate(5097.047 6158.786)" fill="#fff"/><path d="M514.6,62.222c-14.374,7.409-28.452,15.263-42.678,22.969a.963.963,0,1,0,.963,1.63c14.078-7.854,28.378-15.486,42.308-23.636C515.856,62.815,515.264,61.852,514.6,62.222Z" transform="translate(5172.873 6209.092)" fill="#3f2a28"/><path d="M513.654,61.637c-14.374,7.409-28.526,15.337-42.752,22.969-1.111.593,0,2.3.963,1.7,14.152-7.928,28.378-15.56,42.308-23.71a.547.547,0,1,0-.519-.963Z" transform="translate(5167.444 6205.455)" fill="#3f2a28"/><path d="M512.635,61.1c-14.374,7.409-28.526,15.337-42.752,22.969-1.037.593,0,2.3.963,1.63C485,77.841,499.224,70.209,513.228,62.059a.593.593,0,0,0-.593-.963Z" transform="translate(5161.127 6202.291)" fill="#3f2a28"/><path d="M511.73,60.582c-14.374,7.409-28.452,15.337-42.678,22.969-1.111.593,0,2.3.964,1.7,14.078-7.928,28.3-15.56,42.308-23.71C512.989,61.175,512.4,60.212,511.73,60.582Z" transform="translate(5155.587 6198.582)" fill="#3f2a28"/><path d="M509.841,59.617c-14.449,7.409-28.526,15.263-42.752,22.969a.963.963,0,1,0,.963,1.63C482.2,76.362,496.43,68.73,510.359,60.58a.547.547,0,0,0-.519-.963Z" transform="translate(5141.916 6192.508)" fill="#3f2a28"/><path d="M508.8,59.068c-14.374,7.409-28.526,15.337-42.752,22.969-1.037.593,0,2.3.964,1.7,14.152-7.854,28.378-15.56,42.382-23.636a.6.6,0,1,0-.593-1.037Z" transform="translate(5136.515 6188.907)" fill="#3f2a28"/><path d="M557.516,135.5V122.755L464.75,69.63V82.374Z" transform="translate(5086.535 6183.013)" fill="#e1f2ff"/><path d="M536.619,84.988V72.17L477.27,106.476V119.22Z" transform="translate(5166.781 6199.293)" fill="#c2e0f2"/><path d="M406.34,76.268l6.668-10.225A54.972,54.972,0,0,1,422.344,53c6.743-4.149,15.708-1.63,11.707,6.891s-7.928,11.781-4.964,12,8.151,0,9.632,2-3.038,3.26-6.742,4.668a61.942,61.942,0,0,1-20.154,5.112C406.488,83.159,406.34,76.268,406.34,76.268Z" transform="translate(4756.619 6137.994)" fill="#ffb9a4"/><path d="M435.839,52.251s-17.486-10-30.749,3.038a37.862,37.862,0,0,0-8.224,33.416L440.581,76.85l6.743-24.525Z" transform="translate(4689.479 6122.223)" fill="#ffb9a4"/><path d="M391.122,111.957a59.646,59.646,0,0,0-1.852,20.524c.889,4.446,8.373,7.409,15.93,6.076a58.088,58.088,0,0,0,21.858-8.3c2.964-3.186,16.227-9.706,23.192-18.3s-1.482-15.93-11.855-12.6S391.122,111.957,391.122,111.957Z" transform="translate(4645.876 6442.397)" fill="#ff5e4c"/><path d="M397.023,105.91s-4,11.707-5.409,17.264,5.705,11.559,14.819,13.115a60.533,60.533,0,0,0,20.672-1.63c6.224-.667,15.263,2.741,27.785-7.409s2.223-19.561-11.336-19.561a159.969,159.969,0,0,1-30.675-4.668Z" transform="translate(4661.092 6471.117)" fill="#ff5e4c"/><path d="M417.814,64.21a85.21,85.21,0,0,0-28.971,45.716,85.723,85.723,0,0,0,4.149,43.345c9.781,27.933,17.931,58.09,20.228,66.685-15.263,14.078-16.523,29.638-17.116,53.422-.37,14.819-2.445,45.716.963,62.609C405,346.8,421,342.877,421.815,337.468c3.186-20.005,10-43.493,14.448-65.2,3.26-16.227,10.151-37.047,10.966-43.493,2.741-21.71-1.778-53.5,0-87.431S417.814,64.21,417.814,64.21Z" transform="translate(4637.338 6222.368)" fill="#2c1d1b"/><path d="M458.428,67.462s9.41,40.678,12,64.684,3.63,74.094,3.63,88.913a41.788,41.788,0,0,1-7.409,27.267,229.181,229.181,0,0,0-22.229,41.715c-12,28.3-20.82,51.866-20.82,51.866a13.93,13.93,0,0,1-15.856,3.927,30.6,30.6,0,0,1-13.337-7.409S397,283.743,407.97,261.44A116.921,116.921,0,0,1,436.719,223.5s-12.3-29.638-18-47.717a264.82,264.82,0,0,1-9.854-43.641,33.861,33.861,0,0,1-17.338-31.786,86.762,86.762,0,0,1,6.965-33.12Z" transform="translate(4661.186 6241.788)" fill="#3f2a28"/><path d="M463.391,48.894c-8.965.889-19.709,11.707-26.97,30.6-5.779,14.819-3.408,20.82-10.447,42.9a72.836,72.836,0,0,1-19.042,33.342c-8.669,10.447-17.041,21.784-17.041,21.784a102.7,102.7,0,0,0,40.159,34.231,61.943,61.943,0,0,0,47.123-1.185s0-14.226,0-18.894,6.743-4.075,8.3-6.224c5.038-7.409-3.482-11.41-3.482-11.41s28.823-32.675,32.6-41.641a74.089,74.089,0,0,0,3.853-25.933c.593-15.486,1.334-15.634-4.816-23.265a133.374,133.374,0,0,0-23.117-20.82C480.285,55.34,472.208,48.079,463.391,48.894Z" transform="translate(4651.184 6123.801)" fill="#ff5e4c"/><path d="M426.558,40.786C433.967,39.749,456.2,58.05,456.2,80.353c0,17.116-5.112,27.933-12.151,32.157C425.3,123.92,406.552,99.024,402.7,84.724,397.661,66.867,406.108,43.6,426.558,40.786Z" transform="translate(4724.176 6071.967)" fill="#ffc9b6"/><path d="M438.632,50.443a109.138,109.138,0,0,0-5.557,25.933,74.762,74.762,0,0,1-29.638-1.7c-6.965-5.261,2.667-13.115,2.667-13.115L419.664,48.22Z" transform="translate(4721.808 6119.882)" fill="#ffc9b6"/><path d="M411.928,59.421c7.928-22.747,29.638-26.452,46.309-10.521,6.076,0,13.337.963,15.93,6.372a13.116,13.116,0,0,1-2.445,14.819,12.67,12.67,0,0,1-4.149,17.56,19.562,19.562,0,0,1-18,0,24.376,24.376,0,0,1-14.819,17.634c0,5.187-6.668,12-14.374,14-3.557-7.409-10.892-14.152-14.819-21.487C397.109,83.576,395.4,69.572,411.928,59.421Z" transform="translate(4711.465 6061.854)" fill="#3f2a28"/><path d="M409.27,49.244a8.668,8.668,0,0,1,7.409-9.484,8.372,8.372,0,0,1,8.3,4.446,6.372,6.372,0,0,1,10.447,0c5.261,6.965.519,12.151-5.779,14.819a9.854,9.854,0,0,1-3.112,15.338,11.41,11.41,0,0,1-13.04-3.409c-6.743,1.853-15.411,0-14.819-8.669C398.749,56.654,403.343,49.689,409.27,49.244Z" transform="translate(4707.306 6065.361)" fill="#ff5e4c"/><path d="M387.459,130.826a18.82,18.82,0,0,1,13.485-17.486,11.41,11.41,0,0,1,1.779-15.782,14.816,14.816,0,0,1,6.3-3.186,20,20,0,0,1-1.481-14.819,23.561,23.561,0,0,1,24.673-14.078A13.485,13.485,0,0,1,447.994,48.36a10.6,10.6,0,0,1,10.892-10.966,21.489,21.489,0,0,1,13.041,5.483,10.966,10.966,0,0,1,17.041,6.15,14.819,14.819,0,0,1-2.816,12.892,13.411,13.411,0,0,1,9.706,19.413,18.006,18.006,0,0,1-19.412,10.6,16.746,16.746,0,0,1,.889,13.485,12.226,12.226,0,0,1-12.152,7.409,20.153,20.153,0,0,1-11.04-4,9.7,9.7,0,0,1-1.778,3.334,13.336,13.336,0,0,1-10.522,4c7.409,8.3,14,21.561,7.409,30.9a16.079,16.079,0,0,1-17.412,6.52c2.667,10.225-2.816,22.6-15.337,21.413a20.376,20.376,0,0,1-16.226-12.374,21.561,21.561,0,0,1,0-16.078C392.942,146.9,387.163,137.569,387.459,130.826Z" transform="translate(4635.537 6050.464)" fill="#2c1d1b"/><path d="M419.292,52.479s-3.26-8.15-8.447-6.224c-6.668,2.519-9.928,12.374-3.26,16.449S419.292,52.479,419.292,52.479Z" transform="translate(4741.148 6105.398)" fill="#ffc9b6"/><path d="M394.85,67.3s12.225,4.223,19.783,6.668a147.18,147.18,0,0,1,17.116,7.409,86.69,86.69,0,0,1-18.968-1.926A66.68,66.68,0,0,1,394.85,67.3Z" transform="translate(4682.975 6242.173)" fill="#ef4335"/><path d="M395.88,69.869s18.449-2.075,24.747-3.334a27.042,27.042,0,0,1,12.3.593,42.307,42.307,0,0,1-16.3,6.372A51.27,51.27,0,0,1,395.88,69.869Z" transform="translate(4689.577 6234.417)" fill="#ef4335"/><path d="M527.8,76.858c-7.409-4.52-14.226,0-20.3,3.556a71.28,71.28,0,0,1-6.594,3.779,18.673,18.673,0,0,0-7.409-7.409c-2.445-1.037-3.482.519-2.222,5.261s1.334,10.892-1.111,13.263c-7.409,7.409-32.676,26.674-33.639,27.415-2.075-3.408-5.779-12.818-9.632-20.079a122.762,122.762,0,0,1-9.187-32.3A25.489,25.489,0,0,0,424.808,53c-11.336.889-19.338,22.228-20.746,33.12a59.276,59.276,0,0,0,1.7,27.489c4.075,6.15,13.559,0,13.559,0a131,131,0,0,0,17.931,22.673,78.691,78.691,0,0,0,17.338,11.188,71.576,71.576,0,0,0,26.9-18.894c9.929-11.855,10.151-17.634,27.415-28.23,4.075-2.519,14.078-5.631,16.226-8.447C530.762,84.638,532.17,79.526,527.8,76.858Z" transform="translate(4736.374 6150.519)" fill="#ffc9b6"/><rect width="7.706" height="7.706" transform="matrix(-0.866, -0.5, 0.5, -0.866, 5406.545, 6218.103)" fill="#3f2a28"/><rect width="24.081" height="15.93" transform="translate(5407.768 6232.415) rotate(-150)" fill="#fff"/><path d="M486.217,106.567l25.34-15.115L482.29,74.04,456.95,89.155Z" transform="translate(5036.542 6211.278)" fill="#74cace"/><path d="M460.9,106.843V91.505L486.24,76.39V91.727Z" transform="translate(5061.859 6226.341)" fill="#42a8a5"/><path d="M456.95,91.343V76.08l29.267,17.412V108.83Z" transform="translate(5036.542 6224.354)" fill="#53b7b7"/><path d="M468.378,67.85l-7.409,4.3L453.93,68a45.709,45.709,0,0,0,7.409.815,41.785,41.785,0,0,0,7.039-.963Z" transform="translate(5061.642 6245.698)" fill="#74cace"/><path d="M468.058,69.9a10.52,10.52,0,0,1-4.816,0,5.63,5.63,0,0,1-2.816-2.371,6.521,6.521,0,0,1-2.445,2.149,18.98,18.98,0,0,1-4,.667,18.446,18.446,0,0,0,6.817,1.037,19.785,19.785,0,0,0,7.261-1.482Z" transform="translate(5061.962 6243.647)" fill="#8de0e0"/><path d="M492.67,106.861,467.33,91.746,496.523,74.26l25.34,15.115Z" transform="translate(5103.072 6212.689)" fill="#ff7469"/><path d="M492.67,107V91.735L467.33,76.62V91.883Z" transform="translate(5103.072 6227.815)" fill="#ff5e4c"/><path d="M499.943,91.637V76.3L470.75,93.786v15.263Z" transform="translate(5124.992 6225.763)" fill="#ef4335"/><path d="M463.77,68.08l7.409,4.3,7.039-4.223a30.377,30.377,0,0,1-14.3,0Z" transform="translate(5124.71 6247.173)" fill="#ff5e4c" opacity="0.5"/><path d="M463.77,70.131a9.929,9.929,0,0,0,4.816,0A5.26,5.26,0,0,0,471.4,67.76a6.519,6.519,0,0,0,2.445,2.149,14.815,14.815,0,0,0,3.927.667,16.745,16.745,0,0,1-6.743,1.111,19.78,19.78,0,0,1-7.261-1.556Z" transform="translate(5124.71 6245.121)" fill="#ff908a"/><path d="M430.056,61.42a3.78,3.78,0,0,0-1.556-3.038.888.888,0,0,0-.963,0h0l-5.187,2.964,2.223,4.223,4.964-2.816a1.334,1.334,0,0,0,.518-1.334Z" transform="translate(4859.233 6184.11)" fill="#3f2a28"/><path d="M422.3,60a3.929,3.929,0,0,0,1.556,3.038c.889.519,1.63,0,1.63-1.185a3.779,3.779,0,0,0-1.63-3.038C423.041,58.295,422.3,58.814,422.3,60Z" transform="translate(4858.913 6186.494)" fill="#fff"/><path d="M423.66,88.922l35.121-20.3,1.852,4.446L425.66,93.293Z" transform="translate(4823.173 6176.539)" fill="#fff"/><path d="M424.852,65.657c.37,0,.592-.593.592-1.26a3.853,3.853,0,0,0-1.556-3.038h-1.037l-6,4.816a4.292,4.292,0,0,1,.889,1.852l7.409-2.3Z" transform="translate(4823.981 6204.101)" fill="#543b39"/><path d="M420.621,62l-4.371,3.482,5.261-1.63A1.226,1.226,0,0,0,420.621,62Z" transform="translate(4820.136 6208.203)" fill="#3f2a28"/></g></svg>